{
.appVersion = "1364";
classes = (
{
code = "zero one two three four five six seven eight nine A B C D E F G H I J K L M N O P Q R S T U V W X Y Z uni0410 uni0411 uni0412 uni0413 uni0414 uni0415 uni0416 uni0417 uni0418 uni0419 uni041A uni041B uni041C uni041D uni041E uni041F uni0420 uni0421 uni0422 uni0423 uni0424 uni0425 uni0426 uni0427 uni0428 uni0429 uni042A uni042B uni042C uni042D uni042E uni042F uni0401 K_alt W_alt Acircumflex Adieresis Ccedilla Ecircumflex Icircumflex Odieresis Udieresis Abreve Idotaccent Scedilla uni0162 uni0218 uni021A uni04C1";
name = calt1;
},
{
code = "o a c d e g q s u y t acircumflex adieresis ccedilla ecircumflex odieresis udieresis u_alt y_alt s_alt c_alt t_alt t2.alt g_alt a_alt abreve scedilla uni0163 uni0219 uni021B uni0430 uni0431 uni0435 uni0437 uni043E uni0441 uni0444 uni044D uni0451 space zero one three five six seven eight nine f v endash emdash uni00AD hyphen.uc uni00AD.uc endash.uc emdash.uc minus hyphen t0163.alt t021b.alt a2_alt a00E2.alt a00E4.alt a0103.alt";
name = calt2;
},
{
code = "uniE000 uniE001 uniE002 uniE003 uniE004 uniE005 uniE006 uniE007 uniE008 uniE009 uniE010 uniE011 uniE012 uniE013 uniE014 uniE015 uniE016 uniE017 uniE018 uniE019 uniE020 uniE021 uniE022";
name = tnum1;
},
{
code = "zero one two three four five six seven eight nine period comma colon semicolon quotesingle quotedbl quoteright quotedblright quoteleft quotedblleft quotesinglbase quotedblbase colon.uc";
name = pnum1;
}
);
copyright = "Copyright 2021 The Onest Project Authors (https://github.com/googlefonts/onest)";
customParameters = (
{
name = glyphOrder;
value = (
.notdef,
NULL,
CR,
space,
B,
D,
E,
F,
H,
I,
L,
M,
N,
P,
R,
U,
V,
W,
X,
Y,
Z,
b,
d,
h,
i,
l,
m,
n,
p,
q,
u,
v,
w,
x,
z,
period,
comma,
A,
breve,
circumflex,
uni0326,
acircumflex,
exclam,
quotedbl,
quotesingle,
numbersign,
percent,
asterisk,
plus,
slash,
colon,
semicolon,
less,
equal,
greater,
at,
bracketleft,
bracketright,
backslash,
asciicircum,
underscore,
braceleft,
bar,
braceright,

glyphs = (
{
glyphname = .notdef;
layers = (
{
layerId = "D8C8E711-746D-4FC3-8EF0-1339555BCA12";
paths = (
{
closed = 1;
nodes = (
"20 960 LINE",
"560 960 LINE",
"560 -295 LINE",
"20 -295 LINE"
);
},
{
closed = 1;
nodes = (
"30 -285 LINE",
"550 -285 LINE",
"550 950 LINE",
"30 950 LINE"
);
}
);
width = 580;
}
);
},
{
glyphname = B;
layers = (
{
layerId = "D8C8E711-746D-4FC3-8EF0-1339555BCA12";
paths = (
{
closed = 1;
nodes = (
"66 0 LINE",
"66 708 LINE",
"418 708 LINE SMOOTH",
"538 708 OFFCURVE",
"632 662 OFFCURVE",
"632 519 CURVE SMOOTH",
"632 468 OFFCURVE",
"607 417 OFFCURVE",
"566 390 CURVE",
"622 363 OFFCURVE",
"662 310 OFFCURVE",
"662 225 CURVE SMOOTH",
"662 148 OFFCURVE",
"630 94 OFFCURVE",
"589 59 CURVE SMOOTH",
"529 10 OFFCURVE",
"447 0 OFFCURVE",
"360 0 CURVE SMOOTH"
);
},
{
closed = 1;
nodes = (
"247 167 LINE",
"391 167 LINE SMOOTH",
"455 167 OFFCURVE",
"481 192 OFFCURVE",
"481 229 CURVE SMOOTH",
"481 268 OFFCURVE",
"453 287 OFFCURVE",
"398 287 CURVE SMOOTH",
"247 287 LINE"
);
},
{
closed = 1;
nodes = (
"374 433 LINE SMOOTH",
"430 433 OFFCURVE",
"452 460 OFFCURVE",
"452 494 CURVE SMOOTH",
"452 531 OFFCURVE",
"423 541 OFFCURVE",
"376 541 CURVE SMOOTH",
"247 541 LINE",
"247 433 LINE"
);
}
);
width = 691;
}
);
leftKerningGroup = _kern1;
unicode = 0042;
},
{
glyphname = D;
layers = (
{
layerId = "D8C8E711-746D-4FC3-8EF0-1339555BCA12";
paths = (
{
closed = 1;
nodes = (
"67 0 LINE",
"67 708 LINE",
"344 708 LINE SMOOTH",
"568 708 OFFCURVE",
"708 588 OFFCURVE",
"708 351 CURVE SMOOTH",
"708 119 OFFCURVE",
"574 0 OFFCURVE",
"346 0 CURVE SMOOTH"
);
},
{
closed = 1;
nodes = (
"348 167 LINE SMOOTH",
"481 167 OFFCURVE",
"525 243 OFFCURVE",
"525 353 CURVE SMOOTH",
"525 459 OFFCURVE",
"485 540 OFFCURVE",
"341 540 CURVE SMOOTH",
"248 540 LINE",
"248 167 LINE"
);
}
);
width = 737;
}
);
leftKerningGroup = _kern1;
rightKerningGroup = _kern4;
unicode = 0044;
},
{
glyphname = E;
layers = (
{
layerId = "D8C8E711-746D-4FC3-8EF0-1339555BCA12";
paths = (
{
closed = 1;
nodes = (
"601 708 LINE",
"601 540 LINE",
"248 540 LINE",
"248 432 LINE",
"539 432 LINE",
"539 272 LINE",
"248 272 LINE",
"248 167 LINE",
"601 167 LINE",
"601 0 LINE",
"67 0 LINE",
"67 708 LINE"
);
}
);
width = 629;
}
);
leftKerningGroup = _kern1;
unicode = 0045;
},
{
glyphname = F;
layers = (
{
layerId = "D8C8E711-746D-4FC3-8EF0-1339555BCA12";
paths = (
{
closed = 1;
nodes = (
"590 708 LINE",
"590 540 LINE",
"248 540 LINE",
"248 411 LINE",
"530 411 LINE",
"530 245 LINE",
"248 245 LINE",
"248 0 LINE",
"67 0 LINE",
"67 708 LINE"
);
}
);
width = 607;
}
);
leftKerningGroup = _kern1;
unicode = 0046;
},
{
glyphname = H;
layers = (
{
layerId = "D8C8E711-746D-4FC3-8EF0-1339555BCA12";
paths = (
{
closed = 1;
nodes = (
"248 433 LINE",
"505 433 LINE",
"505 708 LINE",
"686 708 LINE",
"686 0 LINE",
"505 0 LINE",
"505 267 LINE",
"248 267 LINE",
"248 0 LINE",
"67 0 LINE",
"67 708 LINE",
"248 708 LINE"
);
}
);
width = 753;
}
);
leftKerningGroup = _kern1;
rightKerningGroup = _kern2;
unicode = 0048;
},
{
glyphname = I;
layers = (
{
layerId = "D8C8E711-746D-4FC3-8EF0-1339555BCA12";
paths = (
{
closed = 1;
nodes = (
"248 0 LINE",
"67 0 LINE",
"67 708 LINE",
"248 708 LINE"
);
}
);
width = 315;
}
);
leftKerningGroup = _kern1;
rightKerningGroup = _kern2;
unicode = 0049;
},
{
glyphname = L;
layers = (
{
layerId = "D8C8E711-746D-4FC3-8EF0-1339555BCA12";
paths = (
{
closed = 1;
nodes = (
"248 167 LINE",
"587 167 LINE",
"587 0 LINE",
"67 0 LINE",
"67 708 LINE",
"248 708 LINE"
);
}
);
width = 607;
}
);
unicode = 004C;
},
{
glyphname = M;
layers = (
{
layerId = "D8C8E711-746D-4FC3-8EF0-1339555BCA12";
paths = (
{
closed = 1;
nodes = (
"296 708 LINE",
"469 398 LINE",
"641 708 LINE",
"861 708 LINE",
"861 0 LINE",
"680 0 LINE",
"680 451 LINE",
"501 140 LINE",
"430 140 LINE",
"248 451 LINE",
"248 0 LINE",
"67 0 LINE",
"67 708 LINE"
);
}
);
width = 928;
}
);
leftKerningGroup = _kern1;
rightKerningGroup = _kern2;
unicode = 004D;
},
{
glyphname = N;
layers = (
{
layerId = "D8C8E711-746D-4FC3-8EF0-1339555BCA12";
paths = (
{
closed = 1;
nodes = (
"236 708 LINE",
"535 303 LINE",
"535 708 LINE",
"716 708 LINE",
"716 0 LINE",
"552 0 LINE",
"248 399 LINE",
"248 0 LINE",
"67 0 LINE",
"67 708 LINE"
);
}
);
width = 783;
}
);
leftKerningGroup = _kern1;
rightKerningGroup = _kern2;
unicode = 004E;
},
{
glyphname = P;
layers = (
{
layerId = "D8C8E711-746D-4FC3-8EF0-1339555BCA12";
paths = (
{
closed = 1;
nodes = (
"364 708 LINE SMOOTH",
"529 708 OFFCURVE",
"645 646 OFFCURVE",
"645 457 CURVE SMOOTH",
"645 282 OFFCURVE",
"520 199 OFFCURVE",
"357 199 CURVE SMOOTH",
"248 199 LINE",
"248 0 LINE",
"67 0 LINE",
"67 708 LINE"
);
},
{
closed = 1;
nodes = (
"357 360 LINE SMOOTH",
"426 360 OFFCURVE",
"467 395 OFFCURVE",
"467 456 CURVE SMOOTH",
"467 510 OFFCURVE",
"436 540 OFFCURVE",
"356 540 CURVE SMOOTH",
"248 540 LINE",
"248 360 LINE"
);
}
);
width = 669;
}
);
leftKerningGroup = _kern1;
unicode = 0050;
},
{
glyphname = R;
layers = (
{
layerId = "D8C8E711-746D-4FC3-8EF0-1339555BCA12";
paths = (
{
closed = 1;
nodes = (
"366 708 LINE SMOOTH",
"494 708 OFFCURVE",
"652 673 OFFCURVE",
"652 475 CURVE SMOOTH",
"652 382 OFFCURVE",
"612 304 OFFCURVE",
"513 267 CURVE",
"677 0 LINE",
"471 0 LINE",
"335 239 LINE",
"248 239 LINE",
"248 0 LINE",
"67 0 LINE",
"67 708 LINE"
);
},
{
closed = 1;
nodes = (
"367 398 LINE SMOOTH",
"435 398 OFFCURVE",
"473 424 OFFCURVE",
"473 474 CURVE SMOOTH",
"473 530 OFFCURVE",
"427 540 OFFCURVE",
"370 540 CURVE SMOOTH",
"248 540 LINE",
"248 398 LINE"
);
}
);
width = 710;
}
);
leftKerningGroup = _kern1;
unicode = 0052;
},
{
glyphname = U;
layers = (
{
layerId = "D8C8E711-746D-4FC3-8EF0-1339555BCA12";
paths = (
{
closed = 1;
nodes = (
"161 -8 OFFCURVE",
"62 106 OFFCURVE",
"62 326 CURVE SMOOTH",
"62 708 LINE",
"243 708 LINE",
"243 315 LINE SMOOTH",
"243 238 OFFCURVE",
"272 161 OFFCURVE",
"376 161 CURVE SMOOTH",
"481 161 OFFCURVE",
"502 240 OFFCURVE",
"502 315 CURVE SMOOTH",
"502 708 LINE",
"683 708 LINE",
"683 326 LINE SMOOTH",
"683 107 OFFCURVE",
"587 -8 OFFCURVE",
"374 -8 CURVE SMOOTH"
);
}
);
width = 745;
}
);
unicode = 0055;
},
{
glyphname = V;
layers = (
{
layerId = "D8C8E711-746D-4FC3-8EF0-1339555BCA12";
paths = (
{
closed = 1;
nodes = (
"540 708 LINE",
"736 708 LINE",
"484 0 LINE",
"254 0 LINE",
"0 708 LINE",
"197 708 LINE",
"372 152 LINE"
);
}
);
width = 736;
}
);
unicode = 0056;
},
{
glyphname = W;
layers = (
{
layerId = "D8C8E711-746D-4FC3-8EF0-1339555BCA12";
paths = (
{
closed = 1;
nodes = (
"161 0 LINE",
"0 708 LINE",
"201 708 LINE",
"300 212 LINE",
"405 708 LINE",
"631 708 LINE",
"734 212 LINE",
"828 708 LINE",
"1018 708 LINE",
"860 0 LINE",
"618 0 LINE",
"515 478 LINE",
"413 0 LINE"
);
}
);
width = 1018;
}
);
leftKerningGroup = _kern19;
rightKerningGroup = _kern19;
unicode = 0057;
},
{
glyphname = X;
layers = (
{
layerId = "D8C8E711-746D-4FC3-8EF0-1339555BCA12";
paths = (
{
closed = 1;
nodes = (
"500 708 LINE",
"712 708 LINE",
"471 354 LINE",
"719 0 LINE",
"501 0 LINE",
"356 225 LINE",
"205 0 LINE",
"0 0 LINE",
"250 355 LINE",
"8 708 LINE",
"225 708 LINE",
"364 483 LINE"
);
}
);
width = 719;
}
);
unicode = 0058;
},
{
glyphname = Y;
layers = (
{
layerId = "D8C8E711-746D-4FC3-8EF0-1339555BCA12";
paths = (
{
closed = 1;
nodes = (
"522 708 LINE",
"727 708 LINE",
"453 264 LINE",
"453 0 LINE",
"272 0 LINE",
"272 263 LINE",
"0 708 LINE",
"209 708 LINE",
"363 427 LINE"
);
}
);
width = 727;
}
);
leftKerningGroup = _kern31;
rightKerningGroup = _kern31;
unicode = 0059;
},
{
glyphname = Z;
layers = (
{
layerId = "D8C8E711-746D-4FC3-8EF0-1339555BCA12";
paths = (
{
closed = 1;
nodes = (
"33 540 LINE",
"33 708 LINE",
"607 708 LINE",
"607 567 LINE",
"262 167 LINE",
"601 167 LINE",
"601 0 LINE",
"24 0 LINE",
"24 142 LINE",
"370 540 LINE"
);
}
);
width = 631;
}
);
unicode = 005A;
},
{
glyphname = b;
layers = (
{
layerId = "D8C8E711-746D-4FC3-8EF0-1339555BCA12";
paths = (
{
closed = 1;
nodes = (
"221 0 LINE",
"47 0 LINE",
"47 708 LINE",
"224 708 LINE",
"224 475 LINE",
"268 519 OFFCURVE",
"324 538 OFFCURVE",
"386 538 CURVE SMOOTH",
"538 538 OFFCURVE",
"610 423 OFFCURVE",
"610 264 CURVE SMOOTH",
"610 106 OFFCURVE",
"539 -8 OFFCURVE",
"381 -8 CURVE SMOOTH",
"342 -8 OFFCURVE",
"276 -8 OFFCURVE",
"221 55 CURVE"
);
},
{
closed = 1;
nodes = (
"260 376 OFFCURVE",
"224 326 OFFCURVE",
"224 264 CURVE SMOOTH",
"224 205 OFFCURVE",
"257 150 OFFCURVE",
"332 150 CURVE SMOOTH",
"415 150 OFFCURVE",
"436 217 OFFCURVE",
"436 270 CURVE SMOOTH",
"436 322 OFFCURVE",
"409 376 OFFCURVE",
"333 376 CURVE SMOOTH"
);
}
);
width = 637;
}
);
rightKerningGroup = _kern6;
unicode = 0062;
},
{
glyphname = d;
layers = (
{
layerId = "D8C8E711-746D-4FC3-8EF0-1339555BCA12";
paths = (
{
closed = 1;
nodes = (
"419 0 LINE",
"419 46 LINE",
"381 10 OFFCURVE",
"329 -8 OFFCURVE",
"268 -8 CURVE SMOOTH",
"106 -8 OFFCURVE",
"27 117 OFFCURVE",
"27 265 CURVE SMOOTH",
"27 426 OFFCURVE",
"119 539 OFFCURVE",
"283 538 CURVE SMOOTH",
"336 538 OFFCURVE",
"386 521 OFFCURVE",
"415 490 CURVE",
"415 708 LINE",
"592 708 LINE",
"592 0 LINE"
);
},
{
closed = 1;
nodes = (
"228 376 OFFCURVE",
"203 313 OFFCURVE",
"203 261 CURVE SMOOTH",
"203 207 OFFCURVE",
"231 153 OFFCURVE",
"307 153 CURVE SMOOTH",
"386 153 OFFCURVE",
"415 210 OFFCURVE",
"415 264 CURVE SMOOTH",
"415 319 OFFCURVE",
"385 376 OFFCURVE",
"308 376 CURVE SMOOTH"
);
}
);
width = 639;
}
);
leftKerningGroup = _kern5;
unicode = 0064;
},
{
glyphname = h;
layers = (
{
layerId = "D8C8E711-746D-4FC3-8EF0-1339555BCA12";
paths = (
{
closed = 1;
nodes = (
"224 479 LINE",
"273 531 OFFCURVE",
"344 538 OFFCURVE",
"380 538 CURVE SMOOTH",
"524 538 OFFCURVE",
"570 423 OFFCURVE",
"570 291 CURVE SMOOTH",
"570 0 LINE",
"393 0 LINE",
"393 276 LINE SMOOTH",
"393 319 OFFCURVE",
"375 376 OFFCURVE",
"309 376 CURVE SMOOTH",
"247 376 OFFCURVE",
"224 325 OFFCURVE",
"224 272 CURVE SMOOTH",
"224 0 LINE",
"47 0 LINE",
"47 708 LINE",
"224 708 LINE"
);
}
);
width = 614;
}
);
unicode = 0068;
},
{
glyphname = i;
layers = (
{
layerId = "D8C8E711-746D-4FC3-8EF0-1339555BCA12";
paths = (
{
closed = 1;
nodes = (
"235 0 LINE",
"59 0 LINE",
"59 527 LINE",
"235 527 LINE"
);
},
{
closed = 1;
nodes = (
"204 777 OFFCURVE",
"253 737 OFFCURVE",
"253 670 CURVE SMOOTH",
"253 603 OFFCURVE",
"203 567 OFFCURVE",
"146 567 CURVE SMOOTH",
"91 567 OFFCURVE",
"39 601 OFFCURVE",
"39 668 CURVE SMOOTH",
"39 737 OFFCURVE",
"95 777 OFFCURVE",
"149 777 CURVE SMOOTH"
);
}
);
width = 292;
}
);
unicode = 0069;
},
{
glyphname = l;
layers = (
{
layerId = "D8C8E711-746D-4FC3-8EF0-1339555BCA12";
paths = (
{
closed = 1;
nodes = (
"224 0 LINE",
"47 0 LINE",
"47 708 LINE",
"224 708 LINE"
);
}
);
width = 272;
}
);
unicode = 006C;
},
{
glyphname = m;
layers = (
{
layerId = "D8C8E711-746D-4FC3-8EF0-1339555BCA12";
paths = (
{
closed = 1;
nodes = (
"219 471 LINE",
"265 533 OFFCURVE",
"328 537 OFFCURVE",
"357 537 CURVE SMOOTH",
"413 537 OFFCURVE",
"466 522 OFFCURVE",
"499 466 CURVE",
"545 525 OFFCURVE",
"604 537 OFFCURVE",
"652 537 CURVE SMOOTH",
"779 537 OFFCURVE",
"831 454 OFFCURVE",
"831 327 CURVE SMOOTH",
"831 0 LINE",
"654 0 LINE",
"654 294 LINE SMOOTH",
"654 325 OFFCURVE",
"649 376 OFFCURVE",
"597 376 CURVE SMOOTH",
"542 376 OFFCURVE",
"529 330 OFFCURVE",
"529 284 CURVE SMOOTH",
"529 0 LINE",
"352 0 LINE",
"352 295 LINE SMOOTH",
"352 323 OFFCURVE",
"347 376 OFFCURVE",
"289 376 CURVE SMOOTH",
"226 376 OFFCURVE",
"224 313 OFFCURVE",
"224 279 CURVE SMOOTH",
"224 0 LINE",
"47 0 LINE",
"47 527 LINE",
"203 527 LINE"
);
}
);
width = 874;
}
);
unicode = 006D;
},
{
glyphname = n;
layers = (
{
layerId = "D8C8E711-746D-4FC3-8EF0-1339555BCA12";
paths = (
{
closed = 1;
nodes = (
"220 479 LINE",
"269 530 OFFCURVE",
"336 538 OFFCURVE",
"375 538 CURVE SMOOTH",
"523 538 OFFCURVE",
"570 425 OFFCURVE",
"570 291 CURVE SMOOTH",
"570 0 LINE",
"393 0 LINE",
"393 276 LINE SMOOTH",
"393 319 OFFCURVE",
"378 376 OFFCURVE",
"315 376 CURVE SMOOTH",
"252 376 OFFCURVE",
"224 329 OFFCURVE",
"224 272 CURVE SMOOTH",
"224 0 LINE",
"47 0 LINE",
"47 527 LINE",
"210 527 LINE"
);
}
);
width = 614;
}
);
unicode = 006E;
},
{
glyphname = p;
layers = (
{
layerId = "D8C8E711-746D-4FC3-8EF0-1339555BCA12";
paths = (
{
closed = 1;
nodes = (
"259 376 OFFCURVE",
"224 320 OFFCURVE",
"224 264 CURVE SMOOTH",
"224 209 OFFCURVE",
"257 153 OFFCURVE",
"335 153 CURVE SMOOTH",
"415 153 OFFCURVE",
"436 213 OFFCURVE",
"436 260 CURVE SMOOTH",
"436 314 OFFCURVE",
"409 376 OFFCURVE",
"332 376 CURVE SMOOTH"
);
},
{
closed = 1;
nodes = (
"220 469 LINE",
"268 521 OFFCURVE",
"316 538 OFFCURVE",
"380 538 CURVE SMOOTH",
"531 538 OFFCURVE",
"610 418 OFFCURVE",
"610 266 CURVE SMOOTH",
"610 109 OFFCURVE",
"525 -8 OFFCURVE",
"371 -8 CURVE SMOOTH",
"308 -8 OFFCURVE",
"252 17 OFFCURVE",
"224 45 CURVE",
"224 -201 LINE",
"47 -201 LINE",
"47 527 LINE",
"211 527 LINE"
);
}
);
width = 637;
}
);
rightKerningGroup = _kern6;
unicode = 0070;
},
{
glyphname = q;
layers = (
{
layerId = "D8C8E711-746D-4FC3-8EF0-1339555BCA12";
paths = (
{
closed = 1;
nodes = (
"236 376 OFFCURVE",
"203 319 OFFCURVE",
"203 266 CURVE SMOOTH",
"203 213 OFFCURVE",
"235 153 OFFCURVE",
"311 153 CURVE SMOOTH",
"382 153 OFFCURVE",
"415 204 OFFCURVE",
"415 262 CURVE SMOOTH",
"415 323 OFFCURVE",
"379 376 OFFCURVE",
"309 376 CURVE SMOOTH"
);
},
{
closed = 1;
nodes = (
"429 527 LINE",
"592 527 LINE",
"592 -201 LINE",
"415 -201 LINE",
"415 42 LINE",
"372 2 OFFCURVE",
"315 -8 OFFCURVE",
"269 -8 CURVE SMOOTH",
"109 -8 OFFCURVE",
"27 111 OFFCURVE",
"27 260 CURVE SMOOTH",
"27 427 OFFCURVE",
"131 538 OFFCURVE",
"280 538 CURVE SMOOTH",
"338 538 OFFCURVE",
"389 521 OFFCURVE",
"420 481 CURVE"
);
}
);
width = 639;
}
);
leftKerningGroup = _kern5;
unicode = 0071;
},
{
glyphname = u;
layers = (
{
layerId = "D8C8E711-746D-4FC3-8EF0-1339555BCA12";
paths = (
{
closed = 1;
nodes = (
"366 153 OFFCURVE",
"369 207 OFFCURVE",
"369 248 CURVE SMOOTH",
"369 527 LINE",
"545 527 LINE",
"545 234 LINE SMOOTH",
"545 62 OFFCURVE",
"450 -8 OFFCURVE",
"299 -8 CURVE SMOOTH",
"137 -8 OFFCURVE",
"45 72 OFFCURVE",
"45 234 CURVE SMOOTH",
"45 527 LINE",
"222 527 LINE",
"222 248 LINE SMOOTH",
"222 196 OFFCURVE",
"241 153 OFFCURVE",
"300 153 CURVE SMOOTH"
);
}
);
width = 591;
}
);
unicode = 0075;
},
{
glyphname = v;
layers = (
{
layerId = "D8C8E711-746D-4FC3-8EF0-1339555BCA12";
paths = (
{
closed = 1;
nodes = (
"386 527 LINE",
"577 527 LINE",
"404 0 LINE",
"168 0 LINE",
"-5 527 LINE",
"187 527 LINE",
"286 136 LINE"
);
}
);
width = 572;
}
);
unicode = 0076;
},
{
glyphname = w;
layers = (
{
layerId = "D8C8E711-746D-4FC3-8EF0-1339555BCA12";
paths = (
{
closed = 1;
nodes = (
"162 0 LINE",
"-5 527 LINE",
"187 527 LINE",
"265 212 LINE",
"352 527 LINE",
"538 527 LINE",
"624 212 LINE",
"701 527 LINE",
"888 527 LINE",
"721 0 LINE",
"530 0 LINE",
"441 309 LINE",
"354 0 LINE"
);
}
);
width = 883;
}
);
leftKerningGroup = _kern20;
rightKerningGroup = _kern20;
unicode = 0077;
},
{
glyphname = x;
layers = (
{
layerId = "D8C8E711-746D-4FC3-8EF0-1339555BCA12";
paths = (
{
closed = 1;
nodes = (
"380 527 LINE",
"578 527 LINE",
"404 266 LINE",
"590 0 LINE",
"385 0 LINE",
"291 154 LINE",
"196 0 LINE",
"0 0 LINE",
"182 269 LINE",
"10 527 LINE",
"213 527 LINE",
"297 384 LINE"
);
}
);
width = 590;
}
);
unicode = 0078;
},
{
glyphname = z;
layers = (
{
layerId = "D8C8E711-746D-4FC3-8EF0-1339555BCA12";
paths = (
{
closed = 1;
nodes = (
"478 400 LINE",
"255 159 LINE",
"478 159 LINE",
"478 0 LINE",
"27 0 LINE",
"27 128 LINE",
"250 369 LINE",
"27 369 LINE",
"27 527 LINE",
"478 527 LINE"
);
}
);
width = 505;
}
);
unicode = 007A;
},
{
glyphname = period;
layers = (
{
layerId = "D8C8E711-746D-4FC3-8EF0-1339555BCA12";
paths = (
{
closed = 1;
nodes = (
"206 195 OFFCURVE",
"252 156 OFFCURVE",
"252 87 CURVE SMOOTH",
"252 18 OFFCURVE",
"206 -17 OFFCURVE",
"150 -17 CURVE SMOOTH",
"94 -17 OFFCURVE",
"47 18 OFFCURVE",
"47 86 CURVE SMOOTH",
"47 155 OFFCURVE",
"96 195 OFFCURVE",
"151 195 CURVE SMOOTH"
);
}
);
width = 299;
}
);
leftKerningGroup = _kern14;
rightKerningGroup = _kern14;
unicode = 002E;
},
{
glyphname = comma;
layers = (
{
layerId = "D8C8E711-746D-4FC3-8EF0-1339555BCA12";
paths = (
{
closed = 1;
nodes = (
"47 -94 LINE",
"79 -83 OFFCURVE",
"140 -33 OFFCURVE",
"152 -6 CURVE",
"108 -2 OFFCURVE",
"64 31 OFFCURVE",
"64 92 CURVE SMOOTH",
"64 159 OFFCURVE",
"116 194 OFFCURVE",
"171 194 CURVE SMOOTH",
"242 194 OFFCURVE",
"281 135 OFFCURVE",
"281 57 CURVE SMOOTH",
"281 -59 OFFCURVE",
"189 -146 OFFCURVE",
"98 -175 CURVE"
);
}
);
width = 328;
}
);
leftKerningGroup = _kern14;
rightKerningGroup = _kern14;
unicode = 002C;
},
{
glyphname = A;
layers = (
{
layerId = "D8C8E711-746D-4FC3-8EF0-1339555BCA12";
paths = (
{
closed = 1;
nodes = (
"189 0 LINE",
"-5 0 LINE",
"279 708 LINE",
"463 708 LINE",
"744 0 LINE",
"549 0 LINE",
"514 100 LINE",
"225 100 LINE"
);
},
{
closed = 1;
nodes = (
"457 263 LINE",
"371 506 LINE",
"282 263 LINE"
);
}
);
width = 739;
}
);
leftKerningGroup = _kern30;
rightKerningGroup = _kern30;
unicode = 0041;
},
{
glyphname = breve;
layers = (
{
layerId = "D8C8E711-746D-4FC3-8EF0-1339555BCA12";
paths = (
{
closed = 1;
nodes = (
"170 577 OFFCURVE",
"93 638 OFFCURVE",
"93 769 CURVE",
"235 769 LINE",
"235 757 LINE SMOOTH",
"235 721 OFFCURVE",
"260 698 OFFCURVE",
"296 698 CURVE SMOOTH",
"333 698 OFFCURVE",
"357 720 OFFCURVE",
"357 757 CURVE SMOOTH",
"357 769 LINE",
"499 769 LINE",
"499 640 OFFCURVE",
"422 577 OFFCURVE",
"295 577 CURVE SMOOTH"
);
}
);
width = 592;
}
);
unicode = 02D8;
},
{
glyphname = circumflex;
layers = (
{
layerId = "D8C8E711-746D-4FC3-8EF0-1339555BCA12";
paths = (
{
closed = 1;
nodes = (
"378 769 LINE",
"547 577 LINE",
"381 577 LINE",
"320 661 LINE",
"262 577 LINE",
"96 577 LINE",
"262 769 LINE"
);
}
);
width = 643;
}
);
unicode = 02C6;
},
{
glyphname = uni0326;
layers = (
{
layerId = "D8C8E711-746D-4FC3-8EF0-1339555BCA12";
paths = (
{
closed = 1;
nodes = (
"-375 -238 LINE",
"-351 -229 OFFCURVE",
"-302 -194 OFFCURVE",
"-294 -173 CURVE",
"-329 -172 OFFCURVE",
"-363 -148 OFFCURVE",
"-363 -105 CURVE SMOOTH",
"-363 -54 OFFCURVE",
"-324 -30 OFFCURVE",
"-281 -30 CURVE SMOOTH",
"-226 -31 OFFCURVE",
"-196 -73 OFFCURVE",
"-196 -132 CURVE SMOOTH",
"-196 -214 OFFCURVE",
"-265 -270 OFFCURVE",
"-336 -295 CURVE"
);
}
);
width = 0;
}
);
unicode = 0326;
},
{
glyphname = acircumflex;
layers = (
{
layerId = "D8C8E711-746D-4FC3-8EF0-1339555BCA12";
paths = (
{
closed = 1;
nodes = (
"265 213 LINE SMOOTH",
"232 213 OFFCURVE",
"204 201 OFFCURVE",
"204 170 CURVE SMOOTH",
"204 142 OFFCURVE",
"229 127 OFFCURVE",
"261 127 CURVE SMOOTH",
"317 127 OFFCURVE",
"361 169 OFFCURVE",
"364 213 CURVE"
);
},
{
closed = 1;
nodes = (
"367 69 LINE",
"315 -10 OFFCURVE",
"232 -8 OFFCURVE",
"213 -8 CURVE SMOOTH",
"115 -8 OFFCURVE",
"29 44 OFFCURVE",
"29 153 CURVE SMOOTH",
"29 223 OFFCURVE",
"65 270 OFFCURVE",
"114 295 CURVE SMOOTH",
"175 326 OFFCURVE",
"253 322 OFFCURVE",
"338 322 CURVE SMOOTH",
"362 322 LINE",
"361 359 OFFCURVE",
"334 389 OFFCURVE",
"287 389 CURVE SMOOTH",
"252 389 OFFCURVE",
"219 373 OFFCURVE",
"215 350 CURVE",
"39 350 LINE",
"55 481 OFFCURVE",
"170 537 OFFCURVE",
"295 537 CURVE SMOOTH",
"450 537 OFFCURVE",
"530 450 OFFCURVE",
"530 283 CURVE SMOOTH",
"530 0 LINE",
"367 0 LINE"
);
},
{
closed = 1;
nodes = (
"351 769 LINE",
"520 577 LINE",
"354 577 LINE",
"293 661 LINE",
"235 577 LINE",
"69 577 LINE",
"235 769 LINE"
);
}
);
width = 576;
}
);
leftKerningGroup = _kern27;
rightKerningGroup = _kern27;
unicode = 00E2;
},
{
glyphname = exclam;
layers = (
{
layerId = "D8C8E711-746D-4FC3-8EF0-1339555BCA12";
paths = (
{
closed = 1;
nodes = (
"216 197 OFFCURVE",
"268 165 OFFCURVE",
"268 94 CURVE SMOOTH",
"268 22 OFFCURVE",
"213 -9 OFFCURVE",
"163 -9 CURVE SMOOTH",
"114 -9 OFFCURVE",
"57 22 OFFCURVE",
"57 94 CURVE SMOOTH",
"57 165 OFFCURVE",
"112 197 OFFCURVE",
"164 197 CURVE SMOOTH"
);
},
{
closed = 1;
nodes = (
"248 254 LINE",
"79 254 LINE",
"68 708 LINE",
"260 708 LINE"
);
}
);
width = 325;
}
);
unicode = 0021;
},
{
glyphname = quotedbl;
layers = (
{
layerId = "D8C8E711-746D-4FC3-8EF0-1339555BCA12";
paths = (
{
closed = 1;
nodes = (
"375 411 LINE",
"271 411 LINE",
"245 708 LINE",
"408 708 LINE"
);
},
{
closed = 1;
nodes = (
"168 411 LINE",
"65 411 LINE",
"39 708 LINE",
"202 708 LINE"
);
}
);
width = 447;
}
);
unicode = 0022;
},
{
glyphname = quotesingle;
layers = (
{
layerId = "D8C8E711-746D-4FC3-8EF0-1339555BCA12";
paths = (
{
closed = 1;
nodes = (
"182 411 LINE",
"79 411 LINE",
"47 708 LINE",
"216 708 LINE"
);
}
);
width = 263;
}
);
unicode = 0027;
},
{
glyphname = numbersign;
layers = (
{
layerId = "D8C8E711-746D-4FC3-8EF0-1339555BCA12";
paths = (
{
closed = 1;
nodes = (
"572 549 LINE",
"661 549 LINE",
"661 393 LINE",
"553 393 LINE",
"543 314 LINE",
"633 314 LINE",
"633 158 LINE",
"525 158 LINE",
"503 0 LINE",
"362 0 LINE",
"381 158 LINE",
"273 158 LINE",
"253 0 LINE",
"107 0 LINE",
"129 158 LINE",
"39 158 LINE",
"39 314 LINE",
"150 314 LINE",
"147 314 LINE",
"157 393 LINE",
"67 393 LINE",
"67 549 LINE",
"176 549 LINE",
"197 708 LINE",
"339 708 LINE",
"320 549 LINE",
"429 549 LINE",
"450 708 LINE",
"593 708 LINE"
);
},
{
closed = 1;
nodes = (
"290 314 LINE",
"400 314 LINE",
"410 393 LINE",
"300 393 LINE"
);
}
);
width = 700;
}
);
unicode = 0023;
},
{
glyphname = percent;
layers = (
{
layerId = "D8C8E711-746D-4FC3-8EF0-1339555BCA12";
paths = (
{
closed = 1;
nodes = (
"140 0 LINE",
"618 708 LINE",
"799 708 LINE",
"325 0 LINE"
);
},
{
closed = 1;
nodes = (
"334 717 OFFCURVE",
"413 650 OFFCURVE",
"413 533 CURVE SMOOTH",
"413 414 OFFCURVE",
"332 345 OFFCURVE",
"226 345 CURVE SMOOTH",
"118 345 OFFCURVE",
"39 414 OFFCURVE",
"39 529 CURVE SMOOTH",
"39 646 OFFCURVE",
"121 717 OFFCURVE",
"229 717 CURVE SMOOTH"
);
},
{
closed = 1;
nodes = (
"823 364 OFFCURVE",
"902 297 OFFCURVE",
"902 180 CURVE SMOOTH",
"902 60 OFFCURVE",
"819 -8 OFFCURVE",
"715 -8 CURVE SMOOTH",
"609 -8 OFFCURVE",
"527 60 OFFCURVE",
"527 177 CURVE SMOOTH",
"527 293 OFFCURVE",
"610 364 OFFCURVE",
"718 364 CURVE SMOOTH"
);
},
{
closed = 1;
nodes = (
"674 233 OFFCURVE",
"655 203 OFFCURVE",
"656 174 CURVE SMOOTH",
"657 147 OFFCURVE",
"675 120 OFFCURVE",
"715 120 CURVE SMOOTH",
"755 120 OFFCURVE",
"773 148 OFFCURVE",
"773 176 CURVE SMOOTH",
"773 204 OFFCURVE",
"754 233 OFFCURVE",
"715 233 CURVE SMOOTH"
);
},
{
closed = 1;
nodes = (
"185 587 OFFCURVE",
"166 557 OFFCURVE",
"167 528 CURVE SMOOTH",
"168 501 OFFCURVE",
"186 474 OFFCURVE",
"226 474 CURVE SMOOTH",
"266 474 OFFCURVE",
"284 502 OFFCURVE",
"284 530 CURVE SMOOTH",
"284 558 OFFCURVE",
"265 587 OFFCURVE",
"226 587 CURVE SMOOTH"
);
}
);
width = 941;
}
);
unicode = 0025;
},
{
glyphname = asterisk;
layers = (
{
layerId = "D8C8E711-746D-4FC3-8EF0-1339555BCA12";
paths = (
{
closed = 1;
nodes = (
"327 727 LINE",
"307 626 LINE",
"397 676 LINE",
"446 525 LINE",
"344 512 LINE",
"419 443 LINE",
"291 349 LINE",
"248 442 LINE",
"204 349 LINE",
"76 443 LINE",
"151 512 LINE",
"49 525 LINE",
"98 676 LINE",
"188 626 LINE",
"168 727 LINE"
);
}
);
width = 495;
}
);
unicode = 002A;
},
{
glyphname = plus;
layers = (
{
layerId = "D8C8E711-746D-4FC3-8EF0-1339555BCA12";
paths = (
{
closed = 1;
nodes = (
"375 282 LINE",
"375 113 LINE",
"218 113 LINE",
"218 282 LINE",
"54 282 LINE",
"54 440 LINE",
"218 440 LINE",
"218 607 LINE",
"375 607 LINE",
"375 440 LINE",
"539 440 LINE",
"539 282 LINE"
);
}
);
width = 593;
}
);
unicode = 002B;
},
{
glyphname = slash;
layers = (
{
layerId = "D8C8E711-746D-4FC3-8EF0-1339555BCA12";
paths = (
{
closed = 1;
nodes = (
"192 -160 LINE",
"19 -160 LINE",
"343 779 LINE",
"517 779 LINE"
);
}
);
width = 536;
}
);
unicode = 002F;
},
{
glyphname = colon;
layers = (
{
layerId = "D8C8E711-746D-4FC3-8EF0-1339555BCA12";
paths = (
{
closed = 1;
nodes = (
"210 531 OFFCURVE",
"258 492 OFFCURVE",
"258 423 CURVE SMOOTH",
"258 355 OFFCURVE",
"209 319 OFFCURVE",
"153 319 CURVE SMOOTH",
"97 319 OFFCURVE",
"47 354 OFFCURVE",
"47 422 CURVE SMOOTH",
"47 491 OFFCURVE",
"101 531 OFFCURVE",
"155 531 CURVE SMOOTH"
);
},
{
closed = 1;
nodes = (
"210 203 OFFCURVE",
"258 164 OFFCURVE",
"258 95 CURVE SMOOTH",
"258 27 OFFCURVE",
"209 -9 OFFCURVE",
"153 -9 CURVE SMOOTH",
"97 -9 OFFCURVE",
"47 26 OFFCURVE",
"47 94 CURVE SMOOTH",
"47 163 OFFCURVE",
"101 203 OFFCURVE",
"155 203 CURVE SMOOTH"
);
}
);
width = 305;
}
);
leftKerningGroup = _kern15;
unicode = 003A;
},
{
glyphname = semicolon;
layers = (
{
layerId = "D8C8E711-746D-4FC3-8EF0-1339555BCA12";
paths = (
{
closed = 1;
nodes = (
"47 -94 LINE",
"79 -83 OFFCURVE",
"140 -33 OFFCURVE",
"152 -6 CURVE",
"108 -2 OFFCURVE",
"65 31 OFFCURVE",
"65 92 CURVE SMOOTH",
"65 159 OFFCURVE",
"116 194 OFFCURVE",
"171 194 CURVE SMOOTH",
"242 194 OFFCURVE",
"281 135 OFFCURVE",
"280 57 CURVE SMOOTH",
"278 -59 OFFCURVE",
"190 -145 OFFCURVE",
"98 -175 CURVE"
);
},
{
closed = 1;
nodes = (
"228 531 OFFCURVE",
"276 492 OFFCURVE",
"276 423 CURVE SMOOTH",
"276 355 OFFCURVE",
"227 319 OFFCURVE",
"171 319 CURVE SMOOTH",
"115 319 OFFCURVE",
"65 354 OFFCURVE",
"65 422 CURVE SMOOTH",
"65 491 OFFCURVE",
"119 531 OFFCURVE",
"173 531 CURVE SMOOTH"
);
}
);
width = 327;
}
);
leftKerningGroup = _kern15;
unicode = 003B;
},
{
glyphname = less;
layers = (
{
layerId = "D8C8E711-746D-4FC3-8EF0-1339555BCA12";
paths = (
{
closed = 1;
nodes = (
"452 479 LINE",
"244 363 LINE",
"452 244 LINE",
"452 62 LINE",
"19 312 LINE",
"19 404 LINE",
"452 657 LINE"
);
}
);
width = 501;
}
);
unicode = 003C;
},
{
glyphname = equal;
layers = (
{
layerId = "D8C8E711-746D-4FC3-8EF0-1339555BCA12";
paths = (
{
closed = 1;
nodes = (
"49 397 LINE",
"49 553 LINE",
"528 553 LINE",
"528 397 LINE"
);
},
{
closed = 1;
nodes = (
"49 136 LINE",
"49 294 LINE",
"528 294 LINE",
"528 136 LINE"
);
}
);
width = 577;
}
);
unicode = 003D;
},
{
glyphname = greater;
layers = (
{
layerId = "D8C8E711-746D-4FC3-8EF0-1339555BCA12";
paths = (
{
closed = 1;
nodes = (
"49 242 LINE",
"257 359 LINE",
"49 477 LINE",
"49 658 LINE",
"481 409 LINE",
"481 317 LINE",
"49 63 LINE"
);
}
);
width = 500;
}
);
unicode = 003E;
},
{
glyphname = at;
layers = (
{
layerId = "D8C8E711-746D-4FC3-8EF0-1339555BCA12";
paths = (
{
closed = 1;
nodes = (
"50 557 OFFCURVE",
"249 726 OFFCURVE",
"536 724 CURVE SMOOTH",
"783 723 OFFCURVE",
"955 584 OFFCURVE",
"952 310 CURVE SMOOTH",
"950 170 OFFCURVE",
"883 43 OFFCURVE",
"755 43 CURVE SMOOTH",
"689 43 OFFCURVE",
"629 76 OFFCURVE",
"615 139 CURVE",
"586 80 OFFCURVE",
"525 49 OFFCURVE",
"457 49 CURVE SMOOTH",
"338 49 OFFCURVE",
"273 145 OFFCURVE",
"273 277 CURVE SMOOTH",
"273 408 OFFCURVE",
"356 523 OFFCURVE",
"494 523 CURVE SMOOTH",
"547 523 OFFCURVE",
"603 506 OFFCURVE",
"622 445 CURVE",
"641 495 LINE",
"739 484 LINE",
"718 381 OFFCURVE",
"702 295 OFFCURVE",
"702 246 CURVE SMOOTH",
"702 213 OFFCURVE",
"709 184 OFFCURVE",
"743 184 CURVE SMOOTH",
"809 184 OFFCURVE",
"810 294 OFFCURVE",
"810 312 CURVE SMOOTH",
"810 473 OFFCURVE",
"729 579 OFFCURVE",
"522 579 CURVE SMOOTH",
"314 579 OFFCURVE",
"200 443 OFFCURVE",
"200 269 CURVE SMOOTH",
"200 113 OFFCURVE",
"291 -9 OFFCURVE",
"472 -9 CURVE SMOOTH",
"527 -9 OFFCURVE",
"565 -5 OFFCURVE",
"605 6 CURVE",
"626 -135 LINE",
"570 -150 OFFCURVE",
"521 -156 OFFCURVE",
"465 -156 CURVE SMOOTH",
"232 -154 OFFCURVE",
"50 -12 OFFCURVE",
"50 261 CURVE SMOOTH"
);
},
{
closed = 1;
nodes = (
"561 187 OFFCURVE",
"573 254 OFFCURVE",
"576 295 CURVE SMOOTH",
"579 330 OFFCURVE",
"556 384 OFFCURVE",
"497 384 CURVE SMOOTH",
"439 384 OFFCURVE",
"410 331 OFFCURVE",
"410 279 CURVE SMOOTH",
"410 227 OFFCURVE",
"440 187 OFFCURVE",
"493 187 CURVE SMOOTH"
);
}
);
width = 1001;
}
);
unicode = 0040;
},
{
glyphname = bracketleft;
layers = (
{
layerId = "D8C8E711-746D-4FC3-8EF0-1339555BCA12";
paths = (
{
closed = 1;
nodes = (
"67 779 LINE",
"359 779 LINE",
"359 623 LINE",
"238 623 LINE",
"238 -4 LINE",
"359 -4 LINE",
"359 -160 LINE",
"67 -160 LINE"
);
}
);
width = 374;
}
);
unicode = 005B;
},
{
glyphname = bracketright;
layers = (
{
layerId = "D8C8E711-746D-4FC3-8EF0-1339555BCA12";
paths = (
{
closed = 1;
nodes = (
"308 -160 LINE",
"15 -160 LINE",
"15 -4 LINE",
"137 -4 LINE",
"137 623 LINE",
"15 623 LINE",
"15 779 LINE",
"308 779 LINE"
);
}
);
width = 375;
}
);
unicode = 005D;
},
{
glyphname = backslash;
layers = (
{
layerId = "D8C8E711-746D-4FC3-8EF0-1339555BCA12";
paths = (
{
closed = 1;
nodes = (
"342 -160 LINE",
"19 779 LINE",
"191 779 LINE",
"517 -160 LINE"
);
}
);
width = 536;
}
);
unicode = 005C;
},
{
glyphname = asciicircum;
layers = (
{
layerId = "D8C8E711-746D-4FC3-8EF0-1339555BCA12";
paths = (
{
closed = 1;
nodes = (
"376 429 LINE",
"292 567 LINE",
"205 429 LINE",
"39 429 LINE",
"230 709 LINE",
"347 709 LINE",
"545 429 LINE"
);
}
);
width = 584;
}
);
unicode = 005E;
},
{
glyphname = underscore;
layers = (
{
layerId = "D8C8E711-746D-4FC3-8EF0-1339555BCA12";
paths = (
{
closed = 1;
nodes = (
"-23 -161 LINE",
"-23 -7 LINE",
"455 -7 LINE",
"455 -161 LINE"
);
}
);
width = 432;
}
);
unicode = 005F;
},
{
glyphname = braceleft;
layers = (
{
layerId = "D8C8E711-746D-4FC3-8EF0-1339555BCA12";
paths = (
{
closed = 1;
nodes = (
"17 388 LINE",
"50 388 LINE SMOOTH",
"100 388 OFFCURVE",
"101 424 OFFCURVE",
"101 448 CURVE SMOOTH",
"101 638 LINE SMOOTH",
"101 742 OFFCURVE",
"166 779 OFFCURVE",
"254 779 CURVE SMOOTH",
"374 779 LINE",
"374 623 LINE",
"307 623 LINE SMOOTH",
"267 623 OFFCURVE",
"271 596 OFFCURVE",
"271 579 CURVE SMOOTH",
"271 425 LINE SMOOTH",
"271 374 OFFCURVE",
"258 336 OFFCURVE",
"231 310 CURVE",
"258 284 OFFCURVE",
"271 246 OFFCURVE",
"271 195 CURVE SMOOTH",
"271 40 LINE SMOOTH",
"271 24 OFFCURVE",
"267 -3 OFFCURVE",
"307 -3 CURVE SMOOTH",
"374 -3 LINE",
"374 -159 LINE",
"254 -159 LINE SMOOTH",
"166 -159 OFFCURVE",
"101 -122 OFFCURVE",
"101 -18 CURVE SMOOTH",
"101 173 LINE SMOOTH",
"101 197 OFFCURVE",
"100 232 OFFCURVE",
"50 232 CURVE SMOOTH",
"17 232 LINE"
);
}
);
width = 413;
}
);
unicode = 007B;
},
{
glyphname = bar;
layers = (
{
layerId = "D8C8E711-746D-4FC3-8EF0-1339555BCA12";
paths = (
{
closed = 1;
nodes = (
"67 -163 LINE",
"67 794 LINE",
"231 794 LINE",
"231 -163 LINE"
);
}
);
width = 298;
}
);
unicode = 007C;
},
{
glyphname = braceright;
layers = (
{
layerId = "D8C8E711-746D-4FC3-8EF0-1339555BCA12";
paths = (
{
closed = 1;
nodes = (
"396 232 LINE",
"363 232 LINE SMOOTH",
"315 232 OFFCURVE",
"312 196 OFFCURVE",
"312 173 CURVE SMOOTH",
"312 -18 LINE SMOOTH",
"312 -122 OFFCURVE",
"248 -159 OFFCURVE",
"161 -159 CURVE SMOOTH",
"39 -159 LINE",
"39 -3 LINE",
"106 -3 LINE SMOOTH",
"146 -3 OFFCURVE",
"142 24 OFFCURVE",
"142 41 CURVE SMOOTH",
"142 195 LINE SMOOTH",
"142 244 OFFCURVE",
"156 283 OFFCURVE",
"183 310 CURVE",
"182 310 LINE",
"153 337 OFFCURVE",
"142 374 OFFCURVE",
"142 425 CURVE SMOOTH",
"142 580 LINE SMOOTH",
"142 596 OFFCURVE",
"146 623 OFFCURVE",
"106 623 CURVE SMOOTH",
"39 623 LINE",
"39 779 LINE",
"161 779 LINE SMOOTH",
"248 779 OFFCURVE",
"312 742 OFFCURVE",
"312 638 CURVE SMOOTH",
"312 448 LINE SMOOTH",
"312 424 OFFCURVE",
"313 388 OFFCURVE",
"363 388 CURVE SMOOTH",
"396 388 LINE"
);
}
);
width = 413;
}
);
unicode = 007D;
},
{
glyphname = Euro;
layers = (
{
layerId = "D8C8E711-746D-4FC3-8EF0-1339555BCA12";
paths = (
{
closed = 1;
nodes = (
"333 -8 OFFCURVE",
"188 57 OFFCURVE",
"153 203 CURVE",
"29 203 LINE",
"58 337 LINE",
"134 337 LINE",
"134 374 LINE",
"36 374 LINE",
"64 508 LINE",
"156 508 LINE",
"212 646 OFFCURVE",
"336 716 OFFCURVE",
"475 717 CURVE SMOOTH",
"570 717 OFFCURVE",
"645 701 OFFCURVE",
"714 632 CURVE",
"629 513 LINE",
"608 537 OFFCURVE",
"563 564 OFFCURVE",
"494 564 CURVE SMOOTH",
"432 564 OFFCURVE",
"367 542 OFFCURVE",
"346 508 CURVE",
"574 508 LINE",
"548 374 LINE",
"308 374 LINE",
"307 337 LINE",
"546 337 LINE",
"519 203 LINE",
"350 203 LINE",
"381 171 OFFCURVE",
"432 154 OFFCURVE",
"484 154 CURVE SMOOTH",
"541 154 OFFCURVE",
"598 174 OFFCURVE",
"633 211 CURVE",
"725 89 LINE",
"660 18 OFFCURVE",
"574 -8 OFFCURVE",
"471 -8 CURVE SMOOTH"
);
}
);
width = 754;
}
);
unicode = 20AC;
},
{
glyphname = quotedblbase;
layers = (
{
layerId = "D8C8E711-746D-4FC3-8EF0-1339555BCA12";
paths = (
{
closed = 1;
nodes = (
"47 -98 LINE",
"76 -87 OFFCURVE",
"137 -39 OFFCURVE",
"147 -14 CURVE",
"104 -10 OFFCURVE",
"64 22 OFFCURVE",
"64 80 CURVE SMOOTH",
"64 145 OFFCURVE",
"113 177 OFFCURVE",
"165 177 CURVE SMOOTH",
"234 177 OFFCURVE",
"269 120 OFFCURVE",
"269 47 CURVE SMOOTH",
"269 -63 OFFCURVE",
"182 -148 OFFCURVE",
"96 -175 CURVE"
);
},
{
closed = 1;
nodes = (
"304 -98 LINE",
"333 -87 OFFCURVE",
"394 -39 OFFCURVE",
"404 -14 CURVE",
"361 -10 OFFCURVE",
"321 22 OFFCURVE",
"321 80 CURVE SMOOTH",
"321 145 OFFCURVE",
"370 177 OFFCURVE",
"422 177 CURVE SMOOTH",
"491 177 OFFCURVE",
"526 120 OFFCURVE",
"526 47 CURVE SMOOTH",
"526 -63 OFFCURVE",
"439 -148 OFFCURVE",
"353 -175 CURVE"
);
}
);
width = 574;
}
);
leftKerningGroup = _kern14;
rightKerningGroup = _kern14;
unicode = 201E;
},
{
glyphname = quotesinglbase;
layers = (
{
layerId = "D8C8E711-746D-4FC3-8EF0-1339555BCA12";
paths = (
{
closed = 1;
nodes = (
"47 -98 LINE",
"76 -87 OFFCURVE",
"137 -39 OFFCURVE",
"147 -14 CURVE",
"104 -10 OFFCURVE",
"64 22 OFFCURVE",
"64 80 CURVE SMOOTH",
"64 145 OFFCURVE",
"113 177 OFFCURVE",
"165 177 CURVE SMOOTH",
"234 177 OFFCURVE",
"269 120 OFFCURVE",
"269 49 CURVE SMOOTH",
"269 -63 OFFCURVE",
"182 -148 OFFCURVE",
"96 -175 CURVE"
);
}
);
width = 317;
}
);
unicode = 201A;
},
{
glyphname = quotedblright;
layers = (
{
layerId = "D8C8E711-746D-4FC3-8EF0-1339555BCA12";
paths = (
{
closed = 1;
nodes = (
"47 473 LINE",
"76 484 OFFCURVE",
"137 532 OFFCURVE",
"147 557 CURVE",
"104 561 OFFCURVE",
"64 593 OFFCURVE",
"64 651 CURVE SMOOTH",
"64 716 OFFCURVE",
"113 748 OFFCURVE",
"165 748 CURVE SMOOTH",
"234 748 OFFCURVE",
"269 691 OFFCURVE",
"269 620 CURVE SMOOTH",
"269 508 OFFCURVE",
"182 423 OFFCURVE",
"96 396 CURVE"
);
},
{
closed = 1;
nodes = (
"304 473 LINE",
"333 484 OFFCURVE",
"394 532 OFFCURVE",
"404 557 CURVE",
"361 561 OFFCURVE",
"321 593 OFFCURVE",
"321 651 CURVE SMOOTH",
"321 716 OFFCURVE",
"370 748 OFFCURVE",
"422 748 CURVE SMOOTH",
"491 748 OFFCURVE",
"526 691 OFFCURVE",
"526 620 CURVE SMOOTH",
"526 508 OFFCURVE",
"439 423 OFFCURVE",
"353 396 CURVE"
);
}
);
width = 574;
}
);
unicode = 201D;
},
{
glyphname = quoteright;
layers = (
{
layerId = "D8C8E711-746D-4FC3-8EF0-1339555BCA12";
paths = (
{
closed = 1;
nodes = (
"47 473 LINE",
"76 484 OFFCURVE",
"137 532 OFFCURVE",
"147 557 CURVE",
"104 561 OFFCURVE",
"64 593 OFFCURVE",
"64 651 CURVE SMOOTH",
"64 716 OFFCURVE",
"113 748 OFFCURVE",
"165 748 CURVE SMOOTH",
"234 748 OFFCURVE",
"269 691 OFFCURVE",
"269 620 CURVE SMOOTH",
"269 508 OFFCURVE",
"182 423 OFFCURVE",
"96 396 CURVE"
);
}
);
width = 317;
}
);
unicode = 2019;
},
{
glyphname = quotedblleft;
layers = (
{
layerId = "D8C8E711-746D-4FC3-8EF0-1339555BCA12";
paths = (
{
closed = 1;
nodes = (
"527 700 LINE",
"498 687 OFFCURVE",
"438 643 OFFCURVE",
"427 616 CURVE",
"470 612 OFFCURVE",
"510 580 OFFCURVE",
"510 522 CURVE SMOOTH",
"510 457 OFFCURVE",
"461 425 OFFCURVE",
"409 425 CURVE SMOOTH",
"340 425 OFFCURVE",
"305 482 OFFCURVE",
"305 553 CURVE SMOOTH",
"305 667 OFFCURVE",
"392 747 OFFCURVE",
"478 777 CURVE"
);
},
{
closed = 1;
nodes = (
"270 700 LINE",
"241 687 OFFCURVE",
"181 643 OFFCURVE",
"170 616 CURVE",
"213 612 OFFCURVE",
"253 580 OFFCURVE",
"253 522 CURVE SMOOTH",
"253 457 OFFCURVE",
"204 425 OFFCURVE",
"152 425 CURVE SMOOTH",
"83 425 OFFCURVE",
"48 482 OFFCURVE",
"48 553 CURVE SMOOTH",
"48 667 OFFCURVE",
"135 747 OFFCURVE",
"221 777 CURVE"
);
}
);
width = 574;
}
);
unicode = 201C;
},
{
glyphname = quoteleft;
layers = (
{
layerId = "D8C8E711-746D-4FC3-8EF0-1339555BCA12";
paths = (
{
closed = 1;
nodes = (
"270 700 LINE",
"241 687 OFFCURVE",
"181 643 OFFCURVE",
"170 616 CURVE",
"213 612 OFFCURVE",
"253 580 OFFCURVE",
"253 522 CURVE SMOOTH",
"253 457 OFFCURVE",
"204 425 OFFCURVE",
"152 425 CURVE SMOOTH",
"83 425 OFFCURVE",
"48 482 OFFCURVE",
"48 553 CURVE SMOOTH",
"48 667 OFFCURVE",
"135 747 OFFCURVE",
"221 777 CURVE"
);
}
);
width = 317;
}
);
unicode = 2018;
},
{
glyphname = minus;
layers = (
{
layerId = "D8C8E711-746D-4FC3-8EF0-1339555BCA12";
paths = (
{
closed = 1;
nodes = (
"54 282 LINE",
"54 440 LINE",
"532 440 LINE",
"532 282 LINE"
);
}
);
width = 586;
}
);
unicode = 2212;
},
{
glyphname = hyphen;
layers = (
{
layerId = "D8C8E711-746D-4FC3-8EF0-1339555BCA12";
paths = (
{
closed = 1;
nodes = (
"415 216 LINE",
"54 216 LINE",
"54 374 LINE",
"415 374 LINE"
);
}
);
width = 469;
}
);
unicode = 002D;
},
{
glyphname = endash;
layers = (
{
layerId = "D8C8E711-746D-4FC3-8EF0-1339555BCA12";
paths = (
{
closed = 1;
nodes = (
"582 216 LINE",
"54 216 LINE",
"54 374 LINE",
"582 374 LINE"
);
}
);
width = 636;
}
);
unicode = 2013;
},
{
glyphname = emdash;
layers = (
{
layerId = "D8C8E711-746D-4FC3-8EF0-1339555BCA12";
paths = (
{
closed = 1;
nodes = (
"800 216 LINE",
"54 216 LINE",
"54 374 LINE",
"800 374 LINE"
);
}
);
width = 854;
}
);
unicode = 2014;
},
{
glyphname = grave;
layers = (
{
layerId = "D8C8E711-746D-4FC3-8EF0-1339555BCA12";
paths = (
{
closed = 1;
nodes = (
"201 577 LINE",
"30 769 LINE",
"217 769 LINE",
"349 577 LINE"
);
}
);
width = 436;
}
);
unicode = 0060;
},
{
glyphname = acute;
layers = (
{
layerId = "D8C8E711-746D-4FC3-8EF0-1339555BCA12";
paths = (
{
closed = 1;
nodes = (
"235 577 LINE",
"87 577 LINE",
"219 769 LINE",
"406 769 LINE"
);
}
);
width = 436;
}
);
unicode = 00B4;
},
{
glyphname = guillemotright;
layers = (
{
layerId = "D8C8E711-746D-4FC3-8EF0-1339555BCA12";
paths = (
{
closed = 1;
nodes = (
"445 276 LINE",
"301 477 LINE",
"459 477 LINE",
"603 276 LINE",
"459 76 LINE",
"301 76 LINE"
);
},
{
closed = 1;
nodes = (
"185 276 LINE",
"39 477 LINE",
"197 477 LINE",
"340 276 LINE",
"197 76 LINE",
"39 76 LINE"
);
}
);
width = 622;
}
);
unicode = 00BB;
},
{
glyphname = guilsinglright;
layers = (
{
layerId = "D8C8E711-746D-4FC3-8EF0-1339555BCA12";
paths = (
{
closed = 1;
nodes = (
"39 477 LINE",
"223 477 LINE",
"366 277 LINE",
"223 76 LINE",
"39 76 LINE",
"187 277 LINE"
);
}
);
width = 385;
}
);
unicode = 203A;
},
{
glyphname = guillemotleft;
layers = (
{
layerId = "D8C8E711-746D-4FC3-8EF0-1339555BCA12";
paths = (
{
closed = 1;
nodes = (
"178 277 LINE",
"323 76 LINE",
"163 76 LINE",
"19 277 LINE",
"163 477 LINE",
"323 477 LINE"
);
},
{
closed = 1;
nodes = (
"439 277 LINE",
"583 76 LINE",
"423 76 LINE",
"281 277 LINE",
"423 477 LINE",
"583 477 LINE"
);
}
);
width = 622;
}
);
unicode = 00AB;
},
{
glyphname = guilsinglleft;
layers = (
{
layerId = "D8C8E711-746D-4FC3-8EF0-1339555BCA12";
paths = (
{
closed = 1;
nodes = (
"199 277 LINE",
"344 76 LINE",
"162 76 LINE",
"19 277 LINE",
"162 477 LINE",
"344 477 LINE"
);
}
);
width = 383;
}
);
unicode = 2039;
},
{
glyphname = uni00AD;
layers = (
{
layerId = "D8C8E711-746D-4FC3-8EF0-1339555BCA12";
paths = (
{
closed = 1;
nodes = (
"415 218 LINE",
"54 218 LINE",
"54 372 LINE",
"415 372 LINE"
);
}
);
width = 469;
}
);
unicode = 00AD;
},
{
glyphname = ellipsis;
layers = (
{
layerId = "D8C8E711-746D-4FC3-8EF0-1339555BCA12";
paths = (
{
closed = 1;
nodes = (
"200 203 OFFCURVE",
"248 164 OFFCURVE",
"248 95 CURVE SMOOTH",
"248 27 OFFCURVE",
"199 -9 OFFCURVE",
"143 -9 CURVE SMOOTH",
"87 -9 OFFCURVE",
"37 26 OFFCURVE",
"37 94 CURVE SMOOTH",
"37 163 OFFCURVE",
"91 203 OFFCURVE",
"145 203 CURVE SMOOTH"
);
},
{
closed = 1;
nodes = (
"461 203 OFFCURVE",
"509 164 OFFCURVE",
"509 95 CURVE SMOOTH",
"509 27 OFFCURVE",
"460 -9 OFFCURVE",
"404 -9 CURVE SMOOTH",
"348 -9 OFFCURVE",
"298 26 OFFCURVE",
"298 94 CURVE SMOOTH",
"298 163 OFFCURVE",
"352 203 OFFCURVE",
"406 203 CURVE SMOOTH"
);
},
{
closed = 1;
nodes = (
"719 203 OFFCURVE",
"767 164 OFFCURVE",
"767 95 CURVE SMOOTH",
"767 27 OFFCURVE",
"718 -9 OFFCURVE",
"662 -9 CURVE SMOOTH",
"606 -9 OFFCURVE",
"556 26 OFFCURVE",
"556 94 CURVE SMOOTH",
"556 163 OFFCURVE",
"610 203 OFFCURVE",
"664 203 CURVE SMOOTH"
);
}
);
width = 804;
}
);
unicode = 2026;
},
{
glyphname = uni0445;
layers = (
{
layerId = "D8C8E711-746D-4FC3-8EF0-1339555BCA12";
paths = (
{
closed = 1;
nodes = (
"380 527 LINE",
"578 527 LINE",
"404 266 LINE",
"590 0 LINE",
"385 0 LINE",
"291 154 LINE",
"196 0 LINE",
"0 0 LINE",
"182 269 LINE",
"10 527 LINE",
"213 527 LINE",
"297 384 LINE"
);
}
);
width = 590;
}
);
unicode = 0445;
},
{
glyphname = uni0431;
layers = (
{
layerId = "D8C8E711-746D-4FC3-8EF0-1339555BCA12";
paths = (
{
closed = 1;
nodes = (
"32 528 OFFCURVE",
"89 639 OFFCURVE",
"209 697 CURVE SMOOTH",
"260 722 OFFCURVE",
"322 732 OFFCURVE",
"398 741 CURVE SMOOTH",
"530 757 OFFCURVE",
"549 760 OFFCURVE",
"572 765 CURVE",
"572 579 LINE",
"544 572 OFFCURVE",
"499 569 OFFCURVE",
"458 567 CURVE SMOOTH",
"361 561 OFFCURVE",
"260 553 OFFCURVE",
"218 500 CURVE SMOOTH",
"206 485 OFFCURVE",
"189 457 OFFCURVE",
"190 416 CURVE",
"239 492 OFFCURVE",
"320 507 OFFCURVE",
"374 507 CURVE SMOOTH",
"522 507 OFFCURVE",
"599 394 OFFCURVE",
"599 259 CURVE SMOOTH",
"599 93 OFFCURVE",
"484 -8 OFFCURVE",
"322 -8 CURVE SMOOTH",
"122 -8 OFFCURVE",
"32 148 OFFCURVE",
"32 331 CURVE SMOOTH"
);
},
{
closed = 1;
nodes = (
"391 149 OFFCURVE",
"423 201 OFFCURVE",
"423 248 CURVE SMOOTH",
"423 296 OFFCURVE",
"390 343 OFFCURVE",
"323 343 CURVE SMOOTH",
"257 343 OFFCURVE",
"219 298 OFFCURVE",
"219 248 CURVE SMOOTH",
"219 202 OFFCURVE",
"251 149 OFFCURVE",
"321 149 CURVE SMOOTH"
);
}
);
width = 626;
}
);
rightKerningGroup = _kern10;
unicode = 0431;
},
{
glyphname = uni0432;
layers = (
{
layerId = "D8C8E711-746D-4FC3-8EF0-1339555BCA12";
paths = (
{
closed = 1;
nodes = (
"339 527 LINE SMOOTH",
"426 527 OFFCURVE",
"530 508 OFFCURVE",
"530 384 CURVE SMOOTH",
"530 340 OFFCURVE",
"506 302 OFFCURVE",
"482 286 CURVE",
"525 265 OFFCURVE",
"546 229 OFFCURVE",
"546 167 CURVE SMOOTH",
"546 37 OFFCURVE",
"416 0 OFFCURVE",
"336 0 CURVE SMOOTH",
"47 0 LINE",
"47 527 LINE"
);
},
{
closed = 1;
nodes = (
"329 153 LINE SMOOTH",
"358 153 OFFCURVE",
"374 167 OFFCURVE",
"374 187 CURVE SMOOTH",
"374 203 OFFCURVE",
"364 218 OFFCURVE",
"332 218 CURVE SMOOTH",
"224 218 LINE",
"224 153 LINE"
);
},
{
closed = 1;
nodes = (
"322 324 LINE SMOOTH",
"354 324 OFFCURVE",
"363 340 OFFCURVE",
"363 356 CURVE SMOOTH",
"363 375 OFFCURVE",
"349 384 OFFCURVE",
"320 384 CURVE SMOOTH",
"224 384 LINE",
"224 324 LINE"
);
}
);
width = 577;
}
);
leftKerningGroup = _kern11;
unicode = 0432;
},
{
glyphname = uni0433;
layers = (
{
layerId = "D8C8E711-746D-4FC3-8EF0-1339555BCA12";
paths = (
{
closed = 1;
nodes = (
"437 527 LINE",
"437 369 LINE",
"224 369 LINE",
"224 0 LINE",
"47 0 LINE",
"47 527 LINE"
);
}
);
width = 445;
}
);
leftKerningGroup = _kern11;
rightKerningGroup = _kern24;
unicode = 0433;
},
{
glyphname = uni0434;
layers = (
{
layerId = "D8C8E711-746D-4FC3-8EF0-1339555BCA12";
paths = (
{
closed = 1;
nodes = (
"570 527 LINE",
"570 159 LINE",
"635 159 LINE",
"635 -139 LINE",
"459 -139 LINE",
"459 0 LINE",
"185 0 LINE",
"185 -139 LINE",
"8 -139 LINE",
"8 159 LINE",
"109 159 OFFCURVE",
"112 340 OFFCURVE",
"112 479 CURVE SMOOTH",
"112 527 LINE"
);
},
{
closed = 1;
nodes = (
"393 159 LINE",
"393 369 LINE",
"266 369 LINE",
"266 298 OFFCURVE",
"263 219 OFFCURVE",
"239 159 CURVE"
);
}
);
width = 643;
}
);
rightKerningGroup = _kern13;
unicode = 0434;
},
{
glyphname = uni0436;
layers = (
{
layerId = "D8C8E711-746D-4FC3-8EF0-1339555BCA12";
paths = (
{
closed = 1;
nodes = (
"517 182 LINE",
"517 0 LINE",
"340 0 LINE",
"340 182 LINE",
"269 182 LINE",
"194 0 LINE",
"0 0 LINE",
"129 276 LINE",
"4 527 LINE",
"187 527 LINE",
"271 341 LINE",
"340 341 LINE",
"340 527 LINE",
"517 527 LINE",
"517 341 LINE",
"588 341 LINE",
"668 527 LINE",
"854 527 LINE",
"726 276 LINE",
"858 0 LINE",
"662 0 LINE",
"589 182 LINE"
);
}
);
width = 858;
}
);
unicode = 0436;
},
{
glyphname = uni043A;
layers = (
{
layerId = "D8C8E711-746D-4FC3-8EF0-1339555BCA12";
paths = (
{
closed = 1;
nodes = (
"224 182 LINE",
"224 0 LINE",
"47 0 LINE",
"47 527 LINE",
"224 527 LINE",
"224 341 LINE",
"296 341 LINE",
"406 527 LINE",
"605 527 LINE",
"447 281 LINE",
"597 0 LINE",
"395 0 LINE",
"303 182 LINE"
);
}
);
width = 605;
}
);
leftKerningGroup = _kern11;
unicode = 043A;
},
{
glyphname = uni0438;
layers = (
{
layerId = "D8C8E711-746D-4FC3-8EF0-1339555BCA12";
paths = (
{
closed = 1;
nodes = (
"224 276 LINE",
"429 527 LINE",
"575 527 LINE",
"575 0 LINE",
"398 0 LINE",
"398 241 LINE",
"201 0 LINE",
"47 0 LINE",
"47 527 LINE",
"224 527 LINE"
);
}
);
width = 622;
}
);
leftKerningGroup = _kern11;
unicode = 0438;
},
{
glyphname = uni0439;
layers = (
{
layerId = "D8C8E711-746D-4FC3-8EF0-1339555BCA12";
paths = (
{
closed = 1;
nodes = (
"208 552 OFFCURVE",
"122 611 OFFCURVE",
"119 727 CURVE",
"260 727 LINE",
"263 688 OFFCURVE",
"290 670 OFFCURVE",
"325 670 CURVE SMOOTH",
"360 670 OFFCURVE",
"381 689 OFFCURVE",
"385 727 CURVE",
"525 727 LINE",
"518 608 OFFCURVE",
"438 552 OFFCURVE",
"325 552 CURVE SMOOTH"
);
},
{
closed = 1;
nodes = (
"224 276 LINE",
"429 527 LINE",
"575 527 LINE",
"575 0 LINE",
"398 0 LINE",
"398 241 LINE",
"201 0 LINE",
"47 0 LINE",
"47 527 LINE",
"224 527 LINE"
);
}
);
width = 622;
}
);
unicode = 0439;
},
{
glyphname = uni043B;
layers = (
{
layerId = "D8C8E711-746D-4FC3-8EF0-1339555BCA12";
paths = (
{
closed = 1;
nodes = (
"537 527 LINE",
"537 0 LINE",
"361 0 LINE",
"361 369 LINE",
"254 369 LINE",
"254 306 OFFCURVE",
"253 207 OFFCURVE",
"237 138 CURVE SMOOTH",
"211 31 OFFCURVE",
"148 -1 OFFCURVE",
"45 -1 CURVE SMOOTH",
"7 -1 LINE",
"7 163 LINE",
"79 163 OFFCURVE",
"89 256 OFFCURVE",
"91 313 CURVE SMOOTH",
"94 392 OFFCURVE",
"96 504 OFFCURVE",
"96 527 CURVE"
);
}
);
width = 585;
}
);
unicode = 043B;
},
{
glyphname = uni043C;
layers = (
{
layerId = "D8C8E711-746D-4FC3-8EF0-1339555BCA12";
paths = (
{
closed = 1;
nodes = (
"349 88 LINE",
"224 282 LINE",
"224 0 LINE",
"47 0 LINE",
"47 527 LINE",
"249 527 LINE",
"376 323 LINE",
"502 527 LINE",
"701 527 LINE",
"701 0 LINE",
"524 0 LINE",
"524 280 LINE",
"401 88 LINE"
);
}
);
width = 748;
}
);
leftKerningGroup = _kern11;
unicode = 043C;
},
{
glyphname = uni043D;
layers = (
{
layerId = "D8C8E711-746D-4FC3-8EF0-1339555BCA12";
paths = (
{
closed = 1;
nodes = (
"224 343 LINE",
"379 343 LINE",
"379 527 LINE",
"556 527 LINE",
"556 0 LINE",
"379 0 LINE",
"379 184 LINE",
"224 184 LINE",
"224 0 LINE",
"47 0 LINE",
"47 527 LINE",
"224 527 LINE"
);
}
);
width = 603;
}
);
leftKerningGroup = _kern11;
unicode = 043D;
},
{
glyphname = uni043F;
layers = (
{
layerId = "D8C8E711-746D-4FC3-8EF0-1339555BCA12";
paths = (
{
closed = 1;
nodes = (
"553 527 LINE",
"553 0 LINE",
"377 0 LINE",
"377 369 LINE",
"224 369 LINE",
"224 0 LINE",
"47 0 LINE",
"47 527 LINE"
);
}
);
width = 600;
}
);
leftKerningGroup = _kern11;
unicode = 043F;
},
{
glyphname = uni0442;
layers = (
{
layerId = "D8C8E711-746D-4FC3-8EF0-1339555BCA12";
paths = (
{
closed = 1;
nodes = (
"8 369 LINE",
"8 527 LINE",
"516 527 LINE",
"516 369 LINE",
"349 369 LINE",
"349 0 LINE",
"173 0 LINE",
"173 369 LINE"
);
}
);
width = 524;
}
);
unicode = 0442;
},
{
glyphname = uni0444;
layers = (
{
layerId = "D8C8E711-746D-4FC3-8EF0-1339555BCA12";
paths = (
{
closed = 1;
nodes = (
"492 698 LINE",
"492 536 LINE",
"666 536 OFFCURVE",
"784 447 OFFCURVE",
"784 261 CURVE SMOOTH",
"784 85 OFFCURVE",
"658 6 OFFCURVE",
"492 -5 CURVE",
"492 -201 LINE",
"315 -201 LINE",
"315 -4 LINE",
"148 4 OFFCURVE",
"23 88 OFFCURVE",
"23 267 CURVE SMOOTH",
"23 448 OFFCURVE",
"150 536 OFFCURVE",
"315 536 CURVE",
"315 698 LINE"
);
},
{
closed = 1;
nodes = (
"315 375 LINE",
"238 375 OFFCURVE",
"200 322 OFFCURVE",
"200 266 CURVE SMOOTH",
"200 206 OFFCURVE",
"242 154 OFFCURVE",
"315 154 CURVE"
);
},
{
closed = 1;
nodes = (
"492 154 LINE",
"565 154 OFFCURVE",
"607 206 OFFCURVE",
"607 266 CURVE SMOOTH",
"607 322 OFFCURVE",
"569 375 OFFCURVE",
"492 375 CURVE"
);
}
);
width = 807;
}
);
leftKerningGroup = _kern9;
rightKerningGroup = _kern10;
unicode = 0444;
},
{
glyphname = uni0446;
layers = (
{
layerId = "D8C8E711-746D-4FC3-8EF0-1339555BCA12";
paths = (
{
closed = 1;
nodes = (
"47 0 LINE",
"47 527 LINE",
"224 527 LINE",
"224 159 LINE",
"379 159 LINE",
"379 527 LINE",
"556 527 LINE",
"556 159 LINE",
"623 159 LINE",
"623 -139 LINE",
"446 -139 LINE",
"446 0 LINE"
);
}
);
width = 628;
}
);
leftKerningGroup = _kern11;
rightKerningGroup = _kern13;
unicode = 0446;
},
{
glyphname = uni0447;
layers = (
{
layerId = "D8C8E711-746D-4FC3-8EF0-1339555BCA12";
paths = (
{
closed = 1;
nodes = (
"24 527 LINE",
"201 527 LINE",
"201 389 LINE SMOOTH",
"201 351 OFFCURVE",
"204 318 OFFCURVE",
"276 318 CURVE SMOOTH",
"289 318 OFFCURVE",
"310 319 OFFCURVE",
"333 321 CURVE",
"333 527 LINE",
"510 527 LINE",
"510 0 LINE",
"333 0 LINE",
"333 160 LINE",
"279 156 OFFCURVE",
"267 157 OFFCURVE",
"248 157 CURVE SMOOTH",
"94 157 OFFCURVE",
"24 230 OFFCURVE",
"24 384 CURVE SMOOTH"
);
}
);
width = 558;
}
);
leftKerningGroup = _kern11;
unicode = 0447;
},
{
glyphname = uni0448;
layers = (
{
layerId = "D8C8E711-746D-4FC3-8EF0-1339555BCA12";
paths = (
{
closed = 1;
nodes = (
"47 0 LINE",
"47 527 LINE",
"224 527 LINE",
"224 159 LINE",
"343 159 LINE",
"343 527 LINE",
"520 527 LINE",
"520 159 LINE",
"641 159 LINE",
"641 527 LINE",
"818 527 LINE",
"818 0 LINE"
);
}
);
width = 866;
}
);
leftKerningGroup = _kern11;
unicode = 0448;
},
{
glyphname = uni0449;
layers = (
{
layerId = "D8C8E711-746D-4FC3-8EF0-1339555BCA12";
paths = (
{
closed = 1;
nodes = (
"47 0 LINE",
"47 527 LINE",
"224 527 LINE",
"224 159 LINE",
"343 159 LINE",
"343 527 LINE",
"520 527 LINE",
"520 159 LINE",
"640 159 LINE",
"640 527 LINE",
"817 527 LINE",
"817 159 LINE",
"886 159 LINE",
"886 -139 LINE",
"709 -139 LINE",
"709 0 LINE"
);
}
);
width = 888;
}
);
leftKerningGroup = _kern11;
rightKerningGroup = _kern13;
unicode = 0449;
},
{
glyphname = uni044A;
layers = (
{
layerId = "D8C8E711-746D-4FC3-8EF0-1339555BCA12";
paths = (
{
closed = 1;
nodes = (
"-6 369 LINE",
"-6 527 LINE",
"273 527 LINE",
"273 379 LINE",
"357 379 LINE SMOOTH",
"477 379 OFFCURVE",
"576 338 OFFCURVE",
"576 193 CURVE SMOOTH",
"576 48 OFFCURVE",
"451 0 OFFCURVE",
"329 0 CURVE SMOOTH",
"96 0 LINE",
"96 369 LINE"
);
},
{
closed = 1;
nodes = (
"273 232 LINE",
"273 155 LINE",
"337 155 LINE SMOOTH",
"382 155 OFFCURVE",
"401 168 OFFCURVE",
"401 195 CURVE SMOOTH",
"401 215 OFFCURVE",
"389 232 OFFCURVE",
"348 232 CURVE SMOOTH"
);
}
);
width = 596;
}
);
unicode = 044A;
},
{
glyphname = uni044B;
layers = (
{
layerId = "D8C8E711-746D-4FC3-8EF0-1339555BCA12";
paths = (
{
closed = 1;
nodes = (
"741 0 LINE",
"565 0 LINE",
"565 527 LINE",
"741 527 LINE"
);
},
{
closed = 1;
nodes = (
"224 527 LINE",
"224 379 LINE",
"291 379 LINE SMOOTH",
"406 379 OFFCURVE",
"507 343 OFFCURVE",
"507 196 CURVE SMOOTH",
"507 49 OFFCURVE",
"383 0 OFFCURVE",
"267 0 CURVE SMOOTH",
"47 0 LINE",
"47 527 LINE"
);
},
{
closed = 1;
nodes = (
"273 155 LINE SMOOTH",
"317 155 OFFCURVE",
"333 168 OFFCURVE",
"333 192 CURVE SMOOTH",
"333 218 OFFCURVE",
"315 232 OFFCURVE",
"279 232 CURVE SMOOTH",
"224 232 LINE",
"224 155 LINE"
);
}
);
width = 789;
}
);
leftKerningGroup = _kern11;
unicode = 044B;
},
{
glyphname = uni044C;
layers = (
{
layerId = "D8C8E711-746D-4FC3-8EF0-1339555BCA12";
paths = (
{
closed = 1;
nodes = (
"224 527 LINE",
"224 379 LINE",
"325 379 LINE SMOOTH",
"446 379 OFFCURVE",
"541 336 OFFCURVE",
"541 198 CURVE SMOOTH",
"541 51 OFFCURVE",
"420 0 OFFCURVE",
"299 0 CURVE SMOOTH",
"47 0 LINE",
"47 527 LINE"
);
},
{
closed = 1;
nodes = (
"307 155 LINE SMOOTH",
"347 155 OFFCURVE",
"367 168 OFFCURVE",
"367 195 CURVE SMOOTH",
"367 220 OFFCURVE",
"348 232 OFFCURVE",
"311 232 CURVE SMOOTH",
"224 232 LINE",
"224 155 LINE"
);
}
);
width = 566;
}
);
leftKerningGroup = _kern11;
unicode = 044C;
},
{
glyphname = uni044E;
layers = (
{
layerId = "D8C8E711-746D-4FC3-8EF0-1339555BCA12";
paths = (
{
closed = 1;
nodes = (
"474 376 OFFCURVE",
"447 318 OFFCURVE",
"447 264 CURVE SMOOTH",
"447 211 OFFCURVE",
"474 153 OFFCURVE",
"546 153 CURVE SMOOTH",
"621 153 OFFCURVE",
"642 215 OFFCURVE",
"642 265 CURVE SMOOTH",
"642 313 OFFCURVE",
"621 376 OFFCURVE",
"546 376 CURVE SMOOTH"
);
},
{
closed = 1;
nodes = (
"224 343 LINE",
"291 343 LINE",
"315 458 OFFCURVE",
"412 538 OFFCURVE",
"549 538 CURVE SMOOTH",
"701 538 OFFCURVE",
"816 439 OFFCURVE",
"816 262 CURVE SMOOTH",
"816 94 OFFCURVE",
"712 -8 OFFCURVE",
"551 -8 CURVE SMOOTH",
"414 -8 OFFCURVE",
"315 65 OFFCURVE",
"291 184 CURVE",
"224 184 LINE",
"224 0 LINE",
"47 0 LINE",
"47 527 LINE",
"224 527 LINE"
);
}
);
width = 839;
}
);
leftKerningGroup = _kern11;
rightKerningGroup = _kern10;
unicode = 044E;
},
{
glyphname = uni044F;
layers = (
{
layerId = "D8C8E711-746D-4FC3-8EF0-1339555BCA12";
paths = (
{
closed = 1;
nodes = (
"549 527 LINE",
"549 0 LINE",
"373 0 LINE",
"373 153 LINE",
"323 153 LINE",
"223 0 LINE",
"14 0 LINE",
"161 190 LINE",
"99 208 OFFCURVE",
"53 271 OFFCURVE",
"53 345 CURVE SMOOTH",
"53 493 OFFCURVE",
"167 527 OFFCURVE",
"277 527 CURVE SMOOTH"
);
},
{
closed = 1;
nodes = (
"373 296 LINE",
"373 377 LINE",
"279 377 LINE SMOOTH",
"244 377 OFFCURVE",
"228 359 OFFCURVE",
"228 338 CURVE SMOOTH",
"228 306 OFFCURVE",
"266 296 OFFCURVE",
"288 296 CURVE SMOOTH"
);
}
);
width = 597;
}
);
leftKerningGroup = _kern11;
unicode = 044F;
},
{
glyphname = u_alt;
layers = (
{
layerId = "D8C8E711-746D-4FC3-8EF0-1339555BCA12";
paths = (
{
closed = 1;
nodes = (
"405 0 LINE",
"405 57 LINE",
"368 4 OFFCURVE",
"301 -8 OFFCURVE",
"249 -8 CURVE SMOOTH",
"103 -8 OFFCURVE",
"42 87 OFFCURVE",
"42 236 CURVE SMOOTH",
"42 527 LINE",
"219 527 LINE",
"219 260 LINE SMOOTH",
"219 213 OFFCURVE",
"228 153 OFFCURVE",
"307 153 CURVE SMOOTH",
"377 153 OFFCURVE",
"392 198 OFFCURVE",
"392 258 CURVE SMOOTH",
"392 527 LINE",
"569 527 LINE",
"569 0 LINE"
);
}
);
width = 616;
}
);
},
{
glyphname = uni0410;
layers = (
{
layerId = "D8C8E711-746D-4FC3-8EF0-1339555BCA12";
paths = (
{
closed = 1;
nodes = (
"189 0 LINE",
"-5 0 LINE",
"279 708 LINE",
"463 708 LINE",
"744 0 LINE",
"549 0 LINE",
"514 100 LINE",
"225 100 LINE"
);
},
{
closed = 1;
nodes = (
"457 263 LINE",
"371 506 LINE",
"282 263 LINE"
);
}
);
width = 739;
}
);
leftKerningGroup = _kern30;
rightKerningGroup = _kern30;
unicode = 0410;
},
{
glyphname = uni0415;
layers = (
{
layerId = "D8C8E711-746D-4FC3-8EF0-1339555BCA12";
paths = (
{
closed = 1;
nodes = (
"601 708 LINE",
"601 540 LINE",
"248 540 LINE",
"248 432 LINE",
"539 432 LINE",
"539 272 LINE",
"248 272 LINE",
"248 167 LINE",
"601 167 LINE",
"601 0 LINE",
"67 0 LINE",
"67 708 LINE"
);
}
);
width = 629;
}
);
unicode = 0415;
},
{
glyphname = uni041C;
layers = (
{
layerId = "D8C8E711-746D-4FC3-8EF0-1339555BCA12";
paths = (
{
closed = 1;
nodes = (
"296 708 LINE",
"469 398 LINE",
"641 708 LINE",
"861 708 LINE",
"861 0 LINE",
"680 0 LINE",
"680 451 LINE",
"501 140 LINE",
"430 140 LINE",
"248 451 LINE",
"248 0 LINE",
"67 0 LINE",
"67 708 LINE"
);
}
);
width = 928;
}
);
unicode = 041C;
},
{
glyphname = uni041D;
layers = (
{
layerId = "D8C8E711-746D-4FC3-8EF0-1339555BCA12";
paths = (
{
closed = 1;
nodes = (
"248 433 LINE",
"505 433 LINE",
"505 708 LINE",
"686 708 LINE",
"686 0 LINE",
"505 0 LINE",
"505 267 LINE",
"248 267 LINE",
"248 0 LINE",
"67 0 LINE",
"67 708 LINE",
"248 708 LINE"
);
}
);
width = 753;
}
);
unicode = 041D;
},
{
glyphname = uni0420;
layers = (
{
layerId = "D8C8E711-746D-4FC3-8EF0-1339555BCA12";
paths = (
{
closed = 1;
nodes = (
"364 708 LINE SMOOTH",
"529 708 OFFCURVE",
"645 646 OFFCURVE",
"645 457 CURVE SMOOTH",
"645 282 OFFCURVE",
"520 199 OFFCURVE",
"357 199 CURVE SMOOTH",
"248 199 LINE",
"248 0 LINE",
"67 0 LINE",
"67 708 LINE"
);
},
{
closed = 1;
nodes = (
"357 360 LINE SMOOTH",
"426 360 OFFCURVE",
"467 395 OFFCURVE",
"467 456 CURVE SMOOTH",
"467 512 OFFCURVE",
"436 540 OFFCURVE",
"356 540 CURVE SMOOTH",
"248 540 LINE",
"248 360 LINE"
);
}
);
width = 669;
}
);
unicode = 0420;
},
{
glyphname = uni0422;
layers = (
{
layerId = "D8C8E711-746D-4FC3-8EF0-1339555BCA12";
paths = (
{
closed = 1;
nodes = (
"5 540 LINE",
"5 708 LINE",
"607 708 LINE",
"607 540 LINE",
"396 540 LINE",
"396 0 LINE",
"215 0 LINE",
"215 540 LINE"
);
}
);
width = 612;
}
);
leftKerningGroup = _kern28;
rightKerningGroup = _kern28;
unicode = 0422;
},
{
glyphname = uni0425;
layers = (
{
layerId = "D8C8E711-746D-4FC3-8EF0-1339555BCA12";
paths = (
{
closed = 1;
nodes = (
"500 708 LINE",
"712 708 LINE",
"471 354 LINE",
"719 0 LINE",
"501 0 LINE",
"356 225 LINE",
"205 0 LINE",
"0 0 LINE",
"250 355 LINE",
"8 708 LINE",
"225 708 LINE",
"364 483 LINE"
);
}
);
width = 719;
}
);
unicode = 0425;
},
{
glyphname = T;
layers = (
{
layerId = "D8C8E711-746D-4FC3-8EF0-1339555BCA12";
paths = (
{
closed = 1;
nodes = (
"5 540 LINE",
"5 708 LINE",
"607 708 LINE",
"607 540 LINE",
"396 540 LINE",
"396 0 LINE",
"215 0 LINE",
"215 540 LINE"
);
}
);
width = 612;
}
);
leftKerningGroup = _kern28;
rightKerningGroup = _kern28;
unicode = 0054;
},
{
glyphname = uni0412;
layers = (
{
layerId = "D8C8E711-746D-4FC3-8EF0-1339555BCA12";
paths = (
{
closed = 1;
nodes = (
"66 0 LINE",
"66 708 LINE",
"418 708 LINE SMOOTH",
"538 708 OFFCURVE",
"632 662 OFFCURVE",
"632 519 CURVE SMOOTH",
"632 468 OFFCURVE",
"607 417 OFFCURVE",
"566 390 CURVE",
"622 363 OFFCURVE",
"662 310 OFFCURVE",
"662 225 CURVE SMOOTH",
"662 45 OFFCURVE",
"522 0 OFFCURVE",
"370 0 CURVE SMOOTH"
);
},
{
closed = 1;
nodes = (
"247 167 LINE",
"391 167 LINE SMOOTH",
"455 167 OFFCURVE",
"481 192 OFFCURVE",
"481 229 CURVE SMOOTH",
"481 268 OFFCURVE",
"453 287 OFFCURVE",
"398 287 CURVE SMOOTH",
"247 287 LINE"
);
},
{
closed = 1;
nodes = (
"374 433 LINE SMOOTH",
"430 433 OFFCURVE",
"452 459 OFFCURVE",
"452 490 CURVE SMOOTH",
"452 526 OFFCURVE",
"429 541 OFFCURVE",
"382 541 CURVE SMOOTH",
"247 541 LINE",
"247 433 LINE"
);
}
);
width = 691;
}
);
unicode = 0412;
},
{
glyphname = uni041F;
layers = (
{
layerId = "D8C8E711-746D-4FC3-8EF0-1339555BCA12";
paths = (
{
closed = 1;
nodes = (
"677 708 LINE",
"677 0 LINE",
"496 0 LINE",
"496 542 LINE",
"248 542 LINE",
"248 0 LINE",
"67 0 LINE",
"67 708 LINE"
);
}
);
width = 744;
}
);
unicode = 041F;
},
{
glyphname = uni0413;
layers = (
{
layerId = "D8C8E711-746D-4FC3-8EF0-1339555BCA12";
paths = (
{
closed = 1;
nodes = (
"67 0 LINE",
"67 708 LINE",
"579 708 LINE",
"579 540 LINE",
"248 540 LINE",
"248 0 LINE"
);
}
);
width = 591;
}
);
leftKerningGroup = _kern23;
rightKerningGroup = _kern23;
unicode = 0413;
},
{
glyphname = uni041B;
layers = (
{
layerId = "D8C8E711-746D-4FC3-8EF0-1339555BCA12";
paths = (
{
closed = 1;
nodes = (
"284 540 LINE",
"284 404 LINE SMOOTH",
"284 168 OFFCURVE",
"280 -1 OFFCURVE",
"45 -1 CURVE SMOOTH",
"7 -1 LINE",
"7 170 LINE",
"89 170 OFFCURVE",
"103 217 OFFCURVE",
"111 292 CURVE SMOOTH",
"117 348 OFFCURVE",
"117 419 OFFCURVE",
"117 455 CURVE SMOOTH",
"117 708 LINE",
"639 708 LINE",
"639 0 LINE",
"458 0 LINE",
"458 540 LINE"
);
}
);
width = 706;
}
);
unicode = 041B;
},
{
glyphname = uni0414;
layers = (
{
layerId = "D8C8E711-746D-4FC3-8EF0-1339555BCA12";
paths = (
{
closed = 1;
nodes = (
"747 -168 LINE",
"566 -168 LINE",
"566 0 LINE",
"188 0 LINE",
"188 -168 LINE",
"7 -168 LINE",
"7 167 LINE",
"67 167 OFFCURVE",
"91 207 OFFCURVE",
"102 255 CURVE SMOOTH",
"121 335 OFFCURVE",
"123 416 OFFCURVE",
"126 484 CURVE SMOOTH",
"129 566 OFFCURVE",
"130 637 OFFCURVE",
"130 708 CURVE",
"662 708 LINE",
"662 167 LINE",
"747 167 LINE"
);
},
{
closed = 1;
nodes = (
"289 304 OFFCURVE",
"285 218 OFFCURVE",
"261 167 CURVE",
"481 167 LINE",
"481 540 LINE",
"294 540 LINE",
"294 417 OFFCURVE",
"292 385 OFFCURVE",
"291 352 CURVE SMOOTH"
);
}
);
width = 754;
}
);
rightKerningGroup = _kern12;
unicode = 0414;
},
{
glyphname = uni0411;
layers = (
{
layerId = "D8C8E711-746D-4FC3-8EF0-1339555BCA12";
paths = (
{
closed = 1;
nodes = (
"67 0 LINE",
"67 708 LINE",
"614 708 LINE",
"614 540 LINE",
"248 540 LINE",
"248 446 LINE",
"395 446 LINE SMOOTH",
"534 446 OFFCURVE",
"657 410 OFFCURVE",
"657 241 CURVE SMOOTH",
"657 46 OFFCURVE",
"495 3 OFFCURVE",
"358 0 CURVE"
);
},
{
closed = 1;
nodes = (
"248 167 LINE",
"370 167 LINE SMOOTH",
"419 167 OFFCURVE",
"478 175 OFFCURVE",
"478 233 CURVE SMOOTH",
"478 282 OFFCURVE",
"436 291 OFFCURVE",
"377 291 CURVE SMOOTH",
"248 291 LINE"
);
}
);
width = 692;
}
);
unicode = 0411;
},
{
glyphname = uni0416;
layers = (
{
layerId = "D8C8E711-746D-4FC3-8EF0-1339555BCA12";
paths = (
{
closed = 1;
nodes = (
"614 270 LINE",
"614 0 LINE",
"433 0 LINE",
"433 270 LINE",
"349 271 LINE",
"212 0 LINE",
"2 0 LINE",
"203 370 LINE",
"0 708 LINE",
"206 708 LINE",
"352 434 LINE",
"433 434 LINE",
"433 708 LINE",
"614 708 LINE",
"614 434 LINE",
"695 434 LINE",
"843 708 LINE",
"1048 708 LINE",
"844 370 LINE",
"1047 0 LINE",
"835 0 LINE",
"700 270 LINE"
);
}
);
width = 1048;
}
);
unicode = 0416;
},
{
glyphname = uni0417;
layers = (
{
layerId = "D8C8E711-746D-4FC3-8EF0-1339555BCA12";
paths = (
{
closed = 1;
nodes = (
"196 248 LINE",
"212 181 OFFCURVE",
"275 163 OFFCURVE",
"346 163 CURVE SMOOTH",
"407 163 OFFCURVE",
"465 179 OFFCURVE",
"465 230 CURVE SMOOTH",
"465 277 OFFCURVE",
"415 287 OFFCURVE",
"366 287 CURVE SMOOTH",
"255 287 LINE",
"255 434 LINE",
"347 434 LINE SMOOTH",
"402 434 OFFCURVE",
"440 450 OFFCURVE",
"440 494 CURVE SMOOTH",
"440 537 OFFCURVE",
"385 549 OFFCURVE",
"335 549 CURVE SMOOTH",
"265 549 OFFCURVE",
"220 526 OFFCURVE",
"213 474 CURVE",
"40 474 LINE",
"48 653 OFFCURVE",
"188 717 OFFCURVE",
"353 717 CURVE SMOOTH",
"478 717 OFFCURVE",
"620 661 OFFCURVE",
"620 514 CURVE SMOOTH",
"620 457 OFFCURVE",
"598 421 OFFCURVE",
"555 386 CURVE",
"625 355 OFFCURVE",
"646 291 OFFCURVE",
"646 218 CURVE SMOOTH",
"646 128 OFFCURVE",
"589 60 OFFCURVE",
"531 31 CURVE SMOOTH",
"465 -3 OFFCURVE",
"406 -8 OFFCURVE",
"342 -8 CURVE SMOOTH",
"177 -8 OFFCURVE",
"40 62 OFFCURVE",
"24 248 CURVE"
);
}
);
width = 676;
}
);
leftKerningGroup = _kern7;
rightKerningGroup = _kern8;
unicode = 0417;
},
{
glyphname = uni0418;
layers = (
{
layerId = "D8C8E711-746D-4FC3-8EF0-1339555BCA12";
paths = (
{
closed = 1;
nodes = (
"248 312 LINE",
"560 708 LINE",
"702 708 LINE",
"702 0 LINE",
"521 0 LINE",
"521 389 LINE",
"209 0 LINE",
"67 0 LINE",
"67 708 LINE",
"248 708 LINE"
);
}
);
width = 769;
}
);
unicode = 0418;
},
{
glyphname = uni0419;
layers = (
{
layerId = "D8C8E711-746D-4FC3-8EF0-1339555BCA12";
paths = (
{
closed = 1;
nodes = (
"272 736 OFFCURVE",
"191 791 OFFCURVE",
"186 916 CURVE",
"328 916 LINE",
"329 877 OFFCURVE",
"358 857 OFFCURVE",
"391 857 CURVE SMOOTH",
"425 857 OFFCURVE",
"449 877 OFFCURVE",
"450 916 CURVE",
"592 916 LINE",
"587 791 OFFCURVE",
"505 736 OFFCURVE",
"389 736 CURVE SMOOTH"
);
},
{
closed = 1;
nodes = (
"248 312 LINE",
"560 708 LINE",
"702 708 LINE",
"702 0 LINE",
"521 0 LINE",
"521 389 LINE",
"209 0 LINE",
"67 0 LINE",
"67 708 LINE",
"248 708 LINE"
);
}
);
width = 769;
}
);
unicode = 0419;
},
{
glyphname = uni041A;
layers = (
{
layerId = "D8C8E711-746D-4FC3-8EF0-1339555BCA12";
paths = (
{
closed = 1;
nodes = (
"248 269 LINE",
"248 0 LINE",
"67 0 LINE",
"67 708 LINE",
"248 708 LINE",
"248 436 LINE",
"346 436 LINE",
"499 708 LINE",
"705 708 LINE",
"495 369 LINE",
"703 0 LINE",
"493 0 LINE",
"350 269 LINE"
);
}
);
width = 705;
}
);
unicode = 041A;
},
{
glyphname = uni0423;
layers = (
{
layerId = "D8C8E711-746D-4FC3-8EF0-1339555BCA12";
paths = (
{
closed = 1;
nodes = (
"481 708 LINE",
"674 708 LINE",
"480 258 LINE SMOOTH",
"411 99 OFFCURVE",
"358 0 OFFCURVE",
"156 0 CURVE SMOOTH",
"114 0 LINE",
"114 173 LINE",
"152 173 LINE SMOOTH",
"212 173 OFFCURVE",
"243 189 OFFCURVE",
"268 226 CURVE",
"5 708 LINE",
"215 708 LINE",
"360 396 LINE"
);
}
);
width = 669;
}
);
unicode = 0423;
},
{
glyphname = uni0424;
layers = (
{
layerId = "D8C8E711-746D-4FC3-8EF0-1339555BCA12";
paths = (
{
closed = 1;
nodes = (
"536 735 LINE",
"536 642 LINE",
"721 642 OFFCURVE",
"864 556 OFFCURVE",
"864 367 CURVE SMOOTH",
"864 170 OFFCURVE",
"737 90 OFFCURVE",
"536 90 CURVE",
"536 -18 LINE",
"355 -18 LINE",
"355 90 LINE",
"163 90 OFFCURVE",
"28 172 OFFCURVE",
"28 363 CURVE SMOOTH",
"28 559 OFFCURVE",
"164 642 OFFCURVE",
"355 642 CURVE",
"355 735 LINE"
);
},
{
closed = 1;
nodes = (
"355 486 LINE",
"252 486 OFFCURVE",
"203 437 OFFCURVE",
"203 366 CURVE SMOOTH",
"203 291 OFFCURVE",
"255 245 OFFCURVE",
"355 245 CURVE"
);
},
{
closed = 1;
nodes = (
"536 245 LINE",
"636 245 OFFCURVE",
"688 291 OFFCURVE",
"688 366 CURVE SMOOTH",
"688 437 OFFCURVE",
"639 486 OFFCURVE",
"536 486 CURVE"
);
}
);
width = 892;
}
);
leftKerningGroup = _kern7;
rightKerningGroup = _kern8;
unicode = 0424;
},
{
glyphname = uni0426;
layers = (
{
layerId = "D8C8E711-746D-4FC3-8EF0-1339555BCA12";
paths = (
{
closed = 1;
nodes = (
"484 167 LINE",
"484 708 LINE",
"665 708 LINE",
"665 167 LINE",
"748 167 LINE",
"748 -168 LINE",
"567 -168 LINE",
"567 0 LINE",
"67 0 LINE",
"67 708 LINE",
"248 708 LINE",
"248 167 LINE"
);
}
);
width = 755;
}
);
rightKerningGroup = _kern12;
unicode = 0426;
},
{
glyphname = uni0427;
layers = (
{
layerId = "D8C8E711-746D-4FC3-8EF0-1339555BCA12";
paths = (
{
closed = 1;
nodes = (
"44 708 LINE",
"225 708 LINE",
"225 491 LINE SMOOTH",
"225 412 OFFCURVE",
"264 389 OFFCURVE",
"357 389 CURVE SMOOTH",
"385 389 OFFCURVE",
"416 391 OFFCURVE",
"455 398 CURVE",
"455 708 LINE",
"636 708 LINE",
"636 0 LINE",
"455 0 LINE",
"455 229 LINE",
"399 221 OFFCURVE",
"353 219 OFFCURVE",
"313 219 CURVE SMOOTH",
"137 219 OFFCURVE",
"44 302 OFFCURVE",
"44 482 CURVE SMOOTH"
);
}
);
width = 703;
}
);
unicode = 0427;
},
{
glyphname = uni0428;
layers = (
{
layerId = "D8C8E711-746D-4FC3-8EF0-1339555BCA12";
paths = (
{
closed = 1;
nodes = (
"67 0 LINE",
"67 708 LINE",
"248 708 LINE",
"248 167 LINE",
"417 167 LINE",
"417 708 LINE",
"598 708 LINE",
"598 167 LINE",
"767 167 LINE",
"767 708 LINE",
"948 708 LINE",
"948 0 LINE"
);
}
);
width = 1015;
}
);
unicode = 0428;
},
{
glyphname = uni0429;
layers = (
{
layerId = "D8C8E711-746D-4FC3-8EF0-1339555BCA12";
paths = (
{
closed = 1;
nodes = (
"67 0 LINE",
"67 708 LINE",
"248 708 LINE",
"248 167 LINE",
"417 167 LINE",
"417 708 LINE",
"598 708 LINE",
"598 167 LINE",
"766 167 LINE",
"766 708 LINE",
"947 708 LINE",
"947 167 LINE",
"1030 167 LINE",
"1030 -168 LINE",
"849 -168 LINE",
"849 0 LINE"
);
}
);
width = 1037;
}
);
rightKerningGroup = _kern12;
unicode = 0429;
},
{
glyphname = uni042A;
layers = (
{
layerId = "D8C8E711-746D-4FC3-8EF0-1339555BCA12";
paths = (
{
closed = 1;
nodes = (
"150 0 LINE",
"150 540 LINE",
"-6 540 LINE",
"-6 708 LINE",
"331 708 LINE",
"331 465 LINE",
"469 465 LINE SMOOTH",
"588 465 OFFCURVE",
"735 427 OFFCURVE",
"735 240 CURVE SMOOTH",
"735 51 OFFCURVE",
"584 0 OFFCURVE",
"445 0 CURVE SMOOTH"
);
},
{
closed = 1;
nodes = (
"331 167 LINE",
"438 167 LINE SMOOTH",
"507 167 OFFCURVE",
"558 177 OFFCURVE",
"558 241 CURVE SMOOTH",
"558 284 OFFCURVE",
"526 306 OFFCURVE",
"463 306 CURVE SMOOTH",
"331 306 LINE"
);
}
);
width = 765;
}
);
unicode = 042A;
},
{
glyphname = uni042B;
layers = (
{
layerId = "D8C8E711-746D-4FC3-8EF0-1339555BCA12";
paths = (
{
closed = 1;
nodes = (
"67 0 LINE",
"67 708 LINE",
"248 708 LINE",
"248 465 LINE",
"339 465 LINE SMOOTH",
"467 465 OFFCURVE",
"608 418 OFFCURVE",
"608 241 CURVE SMOOTH",
"608 52 OFFCURVE",
"449 0 OFFCURVE",
"304 0 CURVE SMOOTH"
);
},
{
closed = 1;
nodes = (
"248 167 LINE",
"313 167 LINE SMOOTH",
"382 167 OFFCURVE",
"431 184 OFFCURVE",
"431 239 CURVE SMOOTH",
"431 297 OFFCURVE",
"378 306 OFFCURVE",
"320 306 CURVE SMOOTH",
"248 306 LINE"
);
},
{
closed = 1;
nodes = (
"691 708 LINE",
"872 708 LINE",
"872 0 LINE",
"691 0 LINE"
);
}
);
width = 939;
}
);
unicode = 042B;
},
{
glyphname = uni042C;
layers = (
{
layerId = "D8C8E711-746D-4FC3-8EF0-1339555BCA12";
paths = (
{
closed = 1;
nodes = (
"66 0 LINE",
"66 708 LINE",
"247 708 LINE",
"247 465 LINE",
"382 465 LINE SMOOTH",
"534 465 OFFCURVE",
"651 412 OFFCURVE",
"651 244 CURVE SMOOTH",
"651 51 OFFCURVE",
"497 0 OFFCURVE",
"344 0 CURVE SMOOTH"
);
},
{
closed = 1;
nodes = (
"247 167 LINE",
"356 167 LINE SMOOTH",
"424 167 OFFCURVE",
"472 180 OFFCURVE",
"472 240 CURVE SMOOTH",
"472 292 OFFCURVE",
"435 306 OFFCURVE",
"375 306 CURVE SMOOTH",
"247 306 LINE"
);
}
);
width = 681;
}
);
unicode = 042C;
},
{
glyphname = uni042D;
layers = (
{
layerId = "D8C8E711-746D-4FC3-8EF0-1339555BCA12";
paths = (
{
closed = 1;
nodes = (
"505 434 LINE",
"500 491 OFFCURVE",
"462 549 OFFCURVE",
"356 549 CURVE SMOOTH",
"271 549 OFFCURVE",
"222 512 OFFCURVE",
"207 452 CURVE",
"32 452 LINE",
"53 632 OFFCURVE",
"203 717 OFFCURVE",
"366 717 CURVE SMOOTH",
"584 717 OFFCURVE",
"696 566 OFFCURVE",
"696 357 CURVE SMOOTH",
"696 136 OFFCURVE",
"571 -8 OFFCURVE",
"357 -8 CURVE SMOOTH",
"194 -8 OFFCURVE",
"47 76 OFFCURVE",
"28 257 CURVE",
"201 257 LINE",
"221 192 OFFCURVE",
"279 163 OFFCURVE",
"356 163 CURVE SMOOTH",
"451 163 OFFCURVE",
"502 208 OFFCURVE",
"506 275 CURVE",
"260 275 LINE",
"260 434 LINE"
);
}
);
width = 724;
}
);
leftKerningGroup = _kern7;
rightKerningGroup = _kern8;
unicode = 042D;
},
{
glyphname = uni042E;
layers = (
{
layerId = "D8C8E711-746D-4FC3-8EF0-1339555BCA12";
paths = (
{
closed = 1;
nodes = (
"489 263 OFFCURVE",
"531 162 OFFCURVE",
"652 162 CURVE SMOOTH",
"776 162 OFFCURVE",
"816 265 OFFCURVE",
"816 358 CURVE SMOOTH",
"816 446 OFFCURVE",
"780 548 OFFCURVE",
"655 548 CURVE SMOOTH",
"524 548 OFFCURVE",
"489 435 OFFCURVE",
"489 353 CURVE SMOOTH"
);
},
{
closed = 1;
nodes = (
"248 431 LINE",
"323 431 LINE",
"342 603 OFFCURVE",
"477 717 OFFCURVE",
"649 717 CURVE SMOOTH",
"866 717 OFFCURVE",
"1001 580 OFFCURVE",
"1001 356 CURVE SMOOTH",
"1001 137 OFFCURVE",
"873 -8 OFFCURVE",
"658 -8 CURVE SMOOTH",
"469 -8 OFFCURVE",
"344 104 OFFCURVE",
"325 269 CURVE",
"248 269 LINE",
"248 0 LINE",
"67 0 LINE",
"67 708 LINE",
"248 708 LINE"
);
}
);
width = 1029;
}
);
rightKerningGroup = _kern8;
unicode = 042E;
},
{
glyphname = uni042F;
layers = (
{
layerId = "D8C8E711-746D-4FC3-8EF0-1339555BCA12";
paths = (
{
closed = 1;
nodes = (
"663 708 LINE",
"663 0 LINE",
"482 0 LINE",
"482 225 LINE",
"409 225 LINE",
"252 0 LINE",
"35 0 LINE",
"231 254 LINE",
"123 291 OFFCURVE",
"74 367 OFFCURVE",
"74 475 CURVE SMOOTH",
"74 660 OFFCURVE",
"220 708 OFFCURVE",
"376 708 CURVE SMOOTH"
);
},
{
closed = 1;
nodes = (
"482 385 LINE",
"482 540 LINE",
"358 540 LINE SMOOTH",
"302 540 OFFCURVE",
"252 524 OFFCURVE",
"252 466 CURVE SMOOTH",
"252 402 OFFCURVE",
"312 385 OFFCURVE",
"361 385 CURVE SMOOTH"
);
}
);
width = 730;
}
);
unicode = 042F;
},
{
glyphname = uni0440;
layers = (
{
layerId = "D8C8E711-746D-4FC3-8EF0-1339555BCA12";
paths = (
{
closed = 1;
nodes = (
"259 376 OFFCURVE",
"224 320 OFFCURVE",
"224 264 CURVE SMOOTH",
"224 209 OFFCURVE",
"257 153 OFFCURVE",
"335 153 CURVE SMOOTH",
"415 153 OFFCURVE",
"436 213 OFFCURVE",
"436 260 CURVE SMOOTH",
"436 314 OFFCURVE",
"409 376 OFFCURVE",
"332 376 CURVE SMOOTH"
);
},
{
closed = 1;
nodes = (
"220 469 LINE",
"268 524 OFFCURVE",
"326 537 OFFCURVE",
"386 537 CURVE SMOOTH",
"527 537 OFFCURVE",
"610 417 OFFCURVE",
"610 263 CURVE SMOOTH",
"610 109 OFFCURVE",
"532 -8 OFFCURVE",
"368 -8 CURVE SMOOTH",
"297 -8 OFFCURVE",
"252 20 OFFCURVE",
"224 45 CURVE",
"224 -201 LINE",
"47 -201 LINE",
"47 527 LINE",
"211 527 LINE"
);
}
);
width = 633;
}
);
leftKerningGroup = _kern11;
rightKerningGroup = _kern10;
unicode = 0440;
},
{
glyphname = O;
layers = (
{
layerId = "D8C8E711-746D-4FC3-8EF0-1339555BCA12";
paths = (
{
closed = 1;
nodes = (
"605 717 OFFCURVE",
"753 577 OFFCURVE",
"753 358 CURVE SMOOTH",
"753 141 OFFCURVE",
"607 -8 OFFCURVE",
"387 -8 CURVE SMOOTH",
"170 -8 OFFCURVE",
"28 136 OFFCURVE",
"28 353 CURVE SMOOTH",
"28 574 OFFCURVE",
"176 717 OFFCURVE",
"392 717 CURVE SMOOTH"
);
},
{
closed = 1;
nodes = (
"213 260 OFFCURVE",
"266 163 OFFCURVE",
"391 163 CURVE SMOOTH",
"519 163 OFFCURVE",
"568 266 OFFCURVE",
"568 353 CURVE SMOOTH",
"568 437 OFFCURVE",
"522 546 OFFCURVE",
"390 546 CURVE SMOOTH",
"264 546 OFFCURVE",
"213 447 OFFCURVE",
"213 354 CURVE SMOOTH"
);
}
);
width = 781;
}
);
leftKerningGroup = _kern3;
rightKerningGroup = _kern4;
unicode = 004F;
},
{
glyphname = be_alt;
layers = (
{
layerId = "D8C8E711-746D-4FC3-8EF0-1339555BCA12";
paths = (
{
closed = 1;
nodes = (
"24 575 OFFCURVE",
"95 667 OFFCURVE",
"296 731 CURVE SMOOTH",
"340 745 OFFCURVE",
"380 757 OFFCURVE",
"417 771 CURVE SMOOTH",
"454 784 OFFCURVE",
"479 800 OFFCURVE",
"492 811 CURVE",
"579 679 LINE",
"540 621 OFFCURVE",
"461 599 OFFCURVE",
"382 578 CURVE SMOOTH",
"289 553 OFFCURVE",
"200 511 OFFCURVE",
"194 442 CURVE",
"195 442 LINE",
"242 493 OFFCURVE",
"298 507 OFFCURVE",
"362 507 CURVE SMOOTH",
"482 507 OFFCURVE",
"578 420 OFFCURVE",
"578 262 CURVE SMOOTH",
"578 93 OFFCURVE",
"468 -8 OFFCURVE",
"306 -8 CURVE SMOOTH",
"106 -8 OFFCURVE",
"24 148 OFFCURVE",
"24 331 CURVE SMOOTH"
);
},
{
closed = 1;
nodes = (
"377 153 OFFCURVE",
"402 204 OFFCURVE",
"402 248 CURVE SMOOTH",
"402 294 OFFCURVE",
"374 342 OFFCURVE",
"309 342 CURVE SMOOTH",
"247 342 OFFCURVE",
"212 298 OFFCURVE",
"212 250 CURVE SMOOTH",
"212 203 OFFCURVE",
"245 153 OFFCURVE",
"311 153 CURVE SMOOTH"
);
}
);
width = 602;
}
);
},
{
glyphname = a;
layers = (
{
layerId = "D8C8E711-746D-4FC3-8EF0-1339555BCA12";
paths = (
{
closed = 1;
nodes = (
"265 213 LINE SMOOTH",
"232 213 OFFCURVE",
"204 201 OFFCURVE",
"204 170 CURVE SMOOTH",
"204 142 OFFCURVE",
"229 127 OFFCURVE",
"261 127 CURVE SMOOTH",
"317 127 OFFCURVE",
"361 169 OFFCURVE",
"364 213 CURVE"
);
},
{
closed = 1;
nodes = (
"367 69 LINE",
"315 -10 OFFCURVE",
"232 -8 OFFCURVE",
"213 -8 CURVE SMOOTH",
"115 -8 OFFCURVE",
"29 44 OFFCURVE",
"29 153 CURVE SMOOTH",
"29 223 OFFCURVE",
"65 270 OFFCURVE",
"114 295 CURVE SMOOTH",
"175 326 OFFCURVE",
"253 322 OFFCURVE",
"338 322 CURVE SMOOTH",
"362 322 LINE",
"361 359 OFFCURVE",
"334 389 OFFCURVE",
"287 389 CURVE SMOOTH",
"252 389 OFFCURVE",
"219 373 OFFCURVE",
"215 350 CURVE",
"39 350 LINE",
"55 481 OFFCURVE",
"170 537 OFFCURVE",
"295 537 CURVE SMOOTH",
"450 537 OFFCURVE",
"530 450 OFFCURVE",
"530 283 CURVE SMOOTH",
"530 0 LINE",
"367 0 LINE"
);
}
);
width = 576;
}
);
leftKerningGroup = _kern27;
rightKerningGroup = _kern27;
unicode = 0061;
},
{
glyphname = c;
layers = (
{
layerId = "D8C8E711-746D-4FC3-8EF0-1339555BCA12";
paths = (
{
closed = 1;
nodes = (
"335 153 OFFCURVE",
"363 175 OFFCURVE",
"370 211 CURVE",
"546 211 LINE",
"541 67 OFFCURVE",
"429 -8 OFFCURVE",
"290 -8 CURVE SMOOTH",
"130 -8 OFFCURVE",
"27 91 OFFCURVE",
"27 262 CURVE SMOOTH",
"27 437 OFFCURVE",
"134 538 OFFCURVE",
"293 538 CURVE SMOOTH",
"435 538 OFFCURVE",
"535 458 OFFCURVE",
"540 317 CURVE",
"370 317 LINE",
"362 356 OFFCURVE",
"333 376 OFFCURVE",
"294 376 CURVE SMOOTH",
"221 376 OFFCURVE",
"202 309 OFFCURVE",
"202 262 CURVE SMOOTH",
"202 208 OFFCURVE",
"227 153 OFFCURVE",
"293 153 CURVE SMOOTH"
);
}
);
width = 568;
}
);
leftKerningGroup = _kern5;
rightKerningGroup = _kern6;
unicode = 0063;
},
{
glyphname = e;
layers = (
{
layerId = "D8C8E711-746D-4FC3-8EF0-1339555BCA12";
paths = (
{
closed = 1;
nodes = (
"339 140 OFFCURVE",
"369 159 OFFCURVE",
"376 178 CURVE",
"549 178 LINE",
"520 47 OFFCURVE",
"414 -8 OFFCURVE",
"296 -8 CURVE SMOOTH",
"134 -8 OFFCURVE",
"27 94 OFFCURVE",
"27 260 CURVE SMOOTH",
"27 426 OFFCURVE",
"135 538 OFFCURVE",
"298 538 CURVE SMOOTH",
"452 538 OFFCURVE",
"549 437 OFFCURVE",
"549 278 CURVE SMOOTH",
"549 255 OFFCURVE",
"547 236 OFFCURVE",
"542 213 CURVE",
"202 213 LINE",
"206 174 OFFCURVE",
"234 140 OFFCURVE",
"292 140 CURVE SMOOTH"
);
},
{
closed = 1;
nodes = (
"232 398 OFFCURVE",
"205 358 OFFCURVE",
"205 328 CURVE",
"383 328 LINE",
"383 358 OFFCURVE",
"359 398 OFFCURVE",
"295 398 CURVE SMOOTH"
);
}
);
width = 576;
}
);
leftKerningGroup = _kern5;
rightKerningGroup = _kern6;
unicode = 0065;
},
{
glyphname = f;
layers = (
{
layerId = "D8C8E711-746D-4FC3-8EF0-1339555BCA12";
paths = (
{
closed = 1;
nodes = (
"386 527 LINE",
"386 369 LINE",
"264 369 LINE",
"264 0 LINE",
"87 0 LINE",
"87 369 LINE",
"12 369 LINE",
"12 527 LINE",
"87 527 LINE",
"87 569 LINE SMOOTH",
"87 693 OFFCURVE",
"150 745 OFFCURVE",
"281 745 CURVE SMOOTH",
"386 745 LINE",
"386 588 LINE",
"304 588 LINE SMOOTH",
"276 588 OFFCURVE",
"264 575 OFFCURVE",
"264 551 CURVE SMOOTH",
"264 527 LINE"
);
}
);
width = 396;
}
);
unicode = 0066;
},
{
glyphname = g;
layers = (
{
layerId = "D8C8E711-746D-4FC3-8EF0-1339555BCA12";
paths = (
{
closed = 1;
nodes = (
"592 109 LINE SMOOTH",
"592 13 OFFCURVE",
"589 -79 OFFCURVE",
"538 -150 CURVE SMOOTH",
"484 -226 OFFCURVE",
"397 -249 OFFCURVE",
"317 -249 CURVE SMOOTH",
"185 -249 OFFCURVE",
"74 -187 OFFCURVE",
"47 -39 CURVE",
"227 -39 LINE",
"236 -67 OFFCURVE",
"267 -86 OFFCURVE",
"314 -86 CURVE SMOOTH",
"406 -86 OFFCURVE",
"412 -16 OFFCURVE",
"412 56 CURVE",
"373 1 OFFCURVE",
"307 -7 OFFCURVE",
"264 -7 CURVE SMOOTH",
"93 -7 OFFCURVE",
"27 121 OFFCURVE",
"27 256 CURVE SMOOTH",
"27 410 OFFCURVE",
"114 537 OFFCURVE",
"276 537 CURVE SMOOTH",
"343 537 OFFCURVE",
"383 515 OFFCURVE",
"416 482 CURVE",
"432 527 LINE",
"592 527 LINE"
);
},
{
closed = 1;
nodes = (
"227 378 OFFCURVE",
"203 309 OFFCURVE",
"203 260 CURVE SMOOTH",
"203 207 OFFCURVE",
"230 152 OFFCURVE",
"308 152 CURVE SMOOTH",
"384 152 OFFCURVE",
"415 204 OFFCURVE",
"415 265 CURVE SMOOTH",
"415 326 OFFCURVE",
"384 378 OFFCURVE",
"311 378 CURVE SMOOTH"
);
}
);
width = 639;
}
);
leftKerningGroup = _kern5;
unicode = 0067;
},
{
glyphname = j;
layers = (
{
layerId = "D8C8E711-746D-4FC3-8EF0-1339555BCA12";
paths = (
{
closed = 1;
nodes = (
"41 527 LINE",
"218 527 LINE",
"218 -35 LINE SMOOTH",
"218 -159 OFFCURVE",
"171 -220 OFFCURVE",
"40 -220 CURVE SMOOTH",
"-52 -220 LINE",
"-52 -61 LINE",
"-11 -61 LINE SMOOTH",
"43 -61 OFFCURVE",
"41 -23 OFFCURVE",
"41 -7 CURVE SMOOTH"
);
},
{
closed = 1;
nodes = (
"190 777 OFFCURVE",
"237 737 OFFCURVE",
"237 669 CURVE SMOOTH",
"237 600 OFFCURVE",
"188 567 OFFCURVE",
"131 567 CURVE SMOOTH",
"75 567 OFFCURVE",
"24 601 OFFCURVE",
"24 668 CURVE SMOOTH",
"24 737 OFFCURVE",
"79 777 OFFCURVE",
"134 777 CURVE SMOOTH"
);
}
);
width = 277;
}
);
unicode = 006A;
},
{
glyphname = o;
layers = (
{
layerId = "D8C8E711-746D-4FC3-8EF0-1339555BCA12";
paths = (
{
closed = 1;
nodes = (
"224 373 OFFCURVE",
"200 310 OFFCURVE",
"200 261 CURVE SMOOTH",
"200 210 OFFCURVE",
"225 156 OFFCURVE",
"301 156 CURVE SMOOTH",
"377 156 OFFCURVE",
"401 212 OFFCURVE",
"401 261 CURVE SMOOTH",
"401 308 OFFCURVE",
"378 373 OFFCURVE",
"301 373 CURVE SMOOTH"
);
},
{
closed = 1;
nodes = (
"148 -8 OFFCURVE",
"27 87 OFFCURVE",
"27 262 CURVE SMOOTH",
"27 439 OFFCURVE",
"151 538 OFFCURVE",
"301 538 CURVE SMOOTH",
"454 538 OFFCURVE",
"574 436 OFFCURVE",
"574 259 CURVE SMOOTH",
"574 86 OFFCURVE",
"459 -8 OFFCURVE",
"304 -8 CURVE SMOOTH"
);
}
);
width = 601;
}
);
leftKerningGroup = _kern5;
rightKerningGroup = _kern6;
unicode = 006F;
},
{
glyphname = r;
layers = (
{
layerId = "D8C8E711-746D-4FC3-8EF0-1339555BCA12";
paths = (
{
closed = 1;
nodes = (
"214 477 LINE",
"254 535 OFFCURVE",
"310 538 OFFCURVE",
"350 538 CURVE SMOOTH",
"373 538 OFFCURVE",
"394 537 OFFCURVE",
"399 536 CURVE",
"399 365 LINE",
"365 365 LINE SMOOTH",
"290 365 OFFCURVE",
"224 345 OFFCURVE",
"224 240 CURVE SMOOTH",
"224 0 LINE",
"47 0 LINE",
"47 527 LINE",
"202 527 LINE"
);
}
);
width = 406;
}
);
leftKerningGroup = _kern29;
rightKerningGroup = _kern29;
unicode = 0072;
},
{
glyphname = t;
layers = (
{
layerId = "D8C8E711-746D-4FC3-8EF0-1339555BCA12";
paths = (
{
closed = 1;
nodes = (
"257 369 LINE",
"257 207 LINE SMOOTH",
"257 182 OFFCURVE",
"259 159 OFFCURVE",
"301 159 CURVE SMOOTH",
"348 159 LINE",
"348 0 LINE",
"302 0 LINE SMOOTH",
"162 0 OFFCURVE",
"80 35 OFFCURVE",
"80 180 CURVE SMOOTH",
"80 369 LINE",
"7 369 LINE",
"7 527 LINE",
"80 527 LINE",
"80 658 LINE",
"257 658 LINE",
"257 527 LINE",
"354 527 LINE",
"354 369 LINE"
);
}
);
width = 364;
}
);
leftKerningGroup = _kern21;
rightKerningGroup = _kern21;
unicode = 0074;
},
{
glyphname = y_alt;
layers = (
{
layerId = "D8C8E711-746D-4FC3-8EF0-1339555BCA12";
paths = (
{
closed = 1;
nodes = (
"381 -86 OFFCURVE",
"408 -39 OFFCURVE",
"408 34 CURVE",
"369 -3 OFFCURVE",
"305 -8 OFFCURVE",
"270 -8 CURVE SMOOTH",
"123 -8 OFFCURVE",
"52 81 OFFCURVE",
"52 236 CURVE SMOOTH",
"52 527 LINE",
"228 527 LINE",
"228 271 LINE SMOOTH",
"228 222 OFFCURVE",
"234 153 OFFCURVE",
"318 153 CURVE SMOOTH",
"403 153 OFFCURVE",
"403 225 OFFCURVE",
"403 270 CURVE SMOOTH",
"403 527 LINE",
"580 527 LINE",
"580 115 LINE SMOOTH",
"580 22 OFFCURVE",
"581 -78 OFFCURVE",
"529 -150 CURVE SMOOTH",
"474 -228 OFFCURVE",
"391 -249 OFFCURVE",
"313 -249 CURVE SMOOTH",
"179 -249 OFFCURVE",
"74 -185 OFFCURVE",
"47 -38 CURVE",
"228 -38 LINE",
"237 -66 OFFCURVE",
"266 -86 OFFCURVE",
"311 -86 CURVE SMOOTH"
);
}
);
width = 627;
}
);
},
{
glyphname = y2_alt;
layers = (
{
layerId = "D8C8E711-746D-4FC3-8EF0-1339555BCA12";
paths = (
{
closed = 1;
nodes = (
"402 527 LINE",
"592 527 LINE",
"458 48 LINE SMOOTH",
"409 -129 OFFCURVE",
"329 -251 OFFCURVE",
"119 -251 CURVE SMOOTH",
"77 -251 LINE",
"77 -67 LINE",
"92 -67 LINE SMOOTH",
"149 -67 OFFCURVE",
"189 -61 OFFCURVE",
"216 -26 CURVE",
"2 527 LINE",
"206 527 LINE",
"319 170 LINE"
);
}
);
width = 584;
}
);
},
{
glyphname = uni0443;
layers = (
{
layerId = "D8C8E711-746D-4FC3-8EF0-1339555BCA12";
paths = (
{
closed = 1;
nodes = (
"402 527 LINE",
"592 527 LINE",
"458 48 LINE SMOOTH",
"409 -129 OFFCURVE",
"329 -251 OFFCURVE",
"119 -251 CURVE SMOOTH",
"77 -251 LINE",
"77 -67 LINE",
"92 -67 LINE SMOOTH",
"149 -67 OFFCURVE",
"189 -61 OFFCURVE",
"216 -26 CURVE",
"2 527 LINE",
"206 527 LINE",
"319 170 LINE"
);
}
);
width = 584;
}
);
unicode = 0443;
},
{
glyphname = uni0451;
layers = (
{
layerId = "D8C8E711-746D-4FC3-8EF0-1339555BCA12";
paths = (
{
closed = 1;
nodes = (
"339 140 OFFCURVE",
"369 159 OFFCURVE",
"376 178 CURVE",
"549 178 LINE",
"520 47 OFFCURVE",
"414 -8 OFFCURVE",
"296 -8 CURVE SMOOTH",
"134 -8 OFFCURVE",
"27 94 OFFCURVE",
"27 260 CURVE SMOOTH",
"27 426 OFFCURVE",
"135 538 OFFCURVE",
"298 538 CURVE SMOOTH",
"452 538 OFFCURVE",
"549 437 OFFCURVE",
"549 278 CURVE SMOOTH",
"549 255 OFFCURVE",
"547 236 OFFCURVE",
"542 213 CURVE",
"202 213 LINE",
"206 174 OFFCURVE",
"234 140 OFFCURVE",
"292 140 CURVE SMOOTH"
);
},
{
closed = 1;
nodes = (
"232 398 OFFCURVE",
"205 358 OFFCURVE",
"205 328 CURVE",
"383 328 LINE",
"383 358 OFFCURVE",
"359 398 OFFCURVE",
"295 398 CURVE SMOOTH"
);
},
{
closed = 1;
nodes = (
"217 763 OFFCURVE",
"263 729 OFFCURVE",
"263 667 CURVE SMOOTH",
"263 607 OFFCURVE",
"219 576 OFFCURVE",
"168 576 CURVE SMOOTH",
"117 576 OFFCURVE",
"73 607 OFFCURVE",
"73 667 CURVE SMOOTH",
"73 728 OFFCURVE",
"118 763 OFFCURVE",
"168 763 CURVE SMOOTH"
);
},
{
closed = 1;
nodes = (
"476 763 OFFCURVE",
"520 729 OFFCURVE",
"520 668 CURVE SMOOTH",
"520 607 OFFCURVE",
"478 576 OFFCURVE",
"427 576 CURVE SMOOTH",
"377 576 OFFCURVE",
"330 607 OFFCURVE",
"330 667 CURVE SMOOTH",
"330 728 OFFCURVE",
"377 763 OFFCURVE",
"427 763 CURVE SMOOTH"
);
}
);
width = 576;
}
);
leftKerningGroup = _kern9;
rightKerningGroup = _kern10;
unicode = 0451;
},
{
glyphname = uni0437;
layers = (
{
layerId = "D8C8E711-746D-4FC3-8EF0-1339555BCA12";
paths = (
{
closed = 1;
nodes = (
"505 348 OFFCURVE",
"491 308 OFFCURVE",
"462 289 CURVE",
"502 265 OFFCURVE",
"520 220 OFFCURVE",
"520 173 CURVE SMOOTH",
"519 36 OFFCURVE",
"392 -8 OFFCURVE",
"282 -8 CURVE SMOOTH",
"161 -8 OFFCURVE",
"33 45 OFFCURVE",
"17 189 CURVE",
"189 189 LINE",
"192 156 OFFCURVE",
"233 140 OFFCURVE",
"279 140 CURVE SMOOTH",
"317 140 OFFCURVE",
"351 151 OFFCURVE",
"351 180 CURVE SMOOTH",
"351 195 OFFCURVE",
"341 207 OFFCURVE",
"310 207 CURVE SMOOTH",
"220 207 LINE",
"220 328 LINE",
"288 328 LINE SMOOTH",
"335 328 OFFCURVE",
"340 344 OFFCURVE",
"340 355 CURVE SMOOTH",
"340 382 OFFCURVE",
"312 392 OFFCURVE",
"277 392 CURVE SMOOTH",
"233 392 OFFCURVE",
"193 376 OFFCURVE",
"186 344 CURVE",
"20 344 LINE",
"44 496 OFFCURVE",
"161 538 OFFCURVE",
"279 538 CURVE SMOOTH",
"383 538 OFFCURVE",
"504 505 OFFCURVE",
"505 384 CURVE SMOOTH"
);
}
);
width = 543;
}
);
leftKerningGroup = _kern9;
rightKerningGroup = _kern10;
unicode = 0437;
},
{
glyphname = uni044D;
layers = (
{
layerId = "D8C8E711-746D-4FC3-8EF0-1339555BCA12";
paths = (
{
closed = 1;
nodes = (
"340 136 OFFCURVE",
"363 166 OFFCURVE",
"366 191 CURVE",
"207 191 LINE",
"207 330 LINE",
"364 330 LINE",
"357 357 OFFCURVE",
"329 386 OFFCURVE",
"281 386 CURVE SMOOTH",
"240 386 OFFCURVE",
"206 366 OFFCURVE",
"195 342 CURVE",
"19 342 LINE",
"43 468 OFFCURVE",
"159 535 OFFCURVE",
"287 535 CURVE SMOOTH",
"442 535 OFFCURVE",
"537 436 OFFCURVE",
"537 262 CURVE SMOOTH",
"537 90 OFFCURVE",
"445 -11 OFFCURVE",
"282 -11 CURVE SMOOTH",
"162 -11 OFFCURVE",
"48 43 OFFCURVE",
"19 174 CURVE",
"192 174 LINE",
"211 150 OFFCURVE",
"239 136 OFFCURVE",
"280 136 CURVE SMOOTH"
);
}
);
width = 561;
}
);
leftKerningGroup = _kern9;
rightKerningGroup = _kern10;
unicode = 044D;
},
{
glyphname = C;
layers = (
{
layerId = "D8C8E711-746D-4FC3-8EF0-1339555BCA12";
paths = (
{
closed = 1;
nodes = (
"215 265 OFFCURVE",
"259 163 OFFCURVE",
"386 163 CURVE SMOOTH",
"461 163 OFFCURVE",
"509 199 OFFCURVE",
"524 263 CURVE",
"699 263 LINE",
"686 83 OFFCURVE",
"540 -8 OFFCURVE",
"380 -8 CURVE SMOOTH",
"160 -8 OFFCURVE",
"28 130 OFFCURVE",
"28 350 CURVE SMOOTH",
"28 576 OFFCURVE",
"167 717 OFFCURVE",
"377 717 CURVE SMOOTH",
"543 717 OFFCURVE",
"675 628 OFFCURVE",
"691 445 CURVE",
"520 445 LINE",
"504 509 OFFCURVE",
"461 546 OFFCURVE",
"383 546 CURVE SMOOTH",
"257 546 OFFCURVE",
"215 449 OFFCURVE",
"215 358 CURVE SMOOTH"
);
}
);
width = 721;
}
);
leftKerningGroup = _kern3;
rightKerningGroup = _kern4;
unicode = 0043;
},
{
glyphname = S;
layers = (
{
layerId = "D8C8E711-746D-4FC3-8EF0-1339555BCA12";
paths = (
{
closed = 1;
nodes = (
"436 481 LINE",
"429 525 OFFCURVE",
"387 551 OFFCURVE",
"325 551 CURVE SMOOTH",
"277 551 OFFCURVE",
"238 535 OFFCURVE",
"238 503 CURVE SMOOTH",
"238 471 OFFCURVE",
"275 457 OFFCURVE",
"348 440 CURVE SMOOTH",
"413 425 LINE SMOOTH",
"530 398 OFFCURVE",
"627 368 OFFCURVE",
"627 221 CURVE SMOOTH",
"627 54 OFFCURVE",
"484 -8 OFFCURVE",
"342 -8 CURVE SMOOTH",
"185 -8 OFFCURVE",
"54 68 OFFCURVE",
"37 239 CURVE",
"219 239 LINE",
"232 182 OFFCURVE",
"287 160 OFFCURVE",
"354 160 CURVE SMOOTH",
"394 160 OFFCURVE",
"445 168 OFFCURVE",
"445 211 CURVE SMOOTH",
"445 241 OFFCURVE",
"419 253 OFFCURVE",
"374 263 CURVE SMOOTH",
"318 275 LINE SMOOTH",
"181 304 OFFCURVE",
"59 340 OFFCURVE",
"59 504 CURVE SMOOTH",
"59 506 LINE SMOOTH",
"59 667 OFFCURVE",
"209 717 OFFCURVE",
"349 717 CURVE SMOOTH",
"497 717 OFFCURVE",
"596 631 OFFCURVE",
"611 481 CURVE"
);
}
);
width = 665;
}
);
leftKerningGroup = _kern3;
rightKerningGroup = _kern4;
unicode = 0053;
},
{
glyphname = uni0421;
layers = (
{
layerId = "D8C8E711-746D-4FC3-8EF0-1339555BCA12";
paths = (
{
closed = 1;
nodes = (
"215 265 OFFCURVE",
"259 163 OFFCURVE",
"386 163 CURVE SMOOTH",
"461 163 OFFCURVE",
"509 199 OFFCURVE",
"524 263 CURVE",
"699 263 LINE",
"686 83 OFFCURVE",
"540 -8 OFFCURVE",
"380 -8 CURVE SMOOTH",
"160 -8 OFFCURVE",
"28 130 OFFCURVE",
"28 350 CURVE SMOOTH",
"28 576 OFFCURVE",
"167 717 OFFCURVE",
"377 717 CURVE SMOOTH",
"543 717 OFFCURVE",
"675 628 OFFCURVE",
"691 445 CURVE",
"520 445 LINE",
"504 509 OFFCURVE",
"461 546 OFFCURVE",
"383 546 CURVE SMOOTH",
"257 546 OFFCURVE",
"215 449 OFFCURVE",
"215 358 CURVE SMOOTH"
);
}
);
width = 727;
}
);
leftKerningGroup = _kern7;
rightKerningGroup = _kern8;
unicode = 0421;
},
{
glyphname = G;
layers = (
{
layerId = "D8C8E711-746D-4FC3-8EF0-1339555BCA12";
paths = (
{
closed = 1;
nodes = (
"215 256 OFFCURVE",
"259 163 OFFCURVE",
"387 163 CURVE SMOOTH",
"451 163 OFFCURVE",
"511 186 OFFCURVE",
"522 242 CURVE",
"355 242 LINE",
"355 394 LINE",
"712 394 LINE",
"712 368 LINE SMOOTH",
"712 271 OFFCURVE",
"699 181 OFFCURVE",
"648 111 CURVE SMOOTH",
"586 27 OFFCURVE",
"483 -8 OFFCURVE",
"377 -8 CURVE SMOOTH",
"164 -8 OFFCURVE",
"28 133 OFFCURVE",
"28 357 CURVE SMOOTH",
"28 581 OFFCURVE",
"165 717 OFFCURVE",
"377 717 CURVE SMOOTH",
"541 717 OFFCURVE",
"675 636 OFFCURVE",
"699 458 CURVE",
"520 458 LINE",
"507 521 OFFCURVE",
"459 546 OFFCURVE",
"392 546 CURVE SMOOTH",
"258 546 OFFCURVE",
"215 445 OFFCURVE",
"215 351 CURVE SMOOTH"
);
}
);
width = 740;
}
);
leftKerningGroup = _kern3;
rightKerningGroup = _kern4;
unicode = 0047;
},
{
glyphname = uni041E;
layers = (
{
layerId = "D8C8E711-746D-4FC3-8EF0-1339555BCA12";
paths = (
{
closed = 1;
nodes = (
"605 717 OFFCURVE",
"753 577 OFFCURVE",
"753 358 CURVE SMOOTH",
"753 141 OFFCURVE",
"607 -8 OFFCURVE",
"387 -8 CURVE SMOOTH",
"170 -8 OFFCURVE",
"28 136 OFFCURVE",
"28 353 CURVE SMOOTH",
"28 574 OFFCURVE",
"176 717 OFFCURVE",
"392 717 CURVE SMOOTH"
);
},
{
closed = 1;
nodes = (
"213 260 OFFCURVE",
"266 163 OFFCURVE",
"391 163 CURVE SMOOTH",
"519 163 OFFCURVE",
"568 266 OFFCURVE",
"568 353 CURVE SMOOTH",
"568 437 OFFCURVE",
"522 546 OFFCURVE",
"390 546 CURVE SMOOTH",
"264 546 OFFCURVE",
"213 447 OFFCURVE",
"213 354 CURVE SMOOTH"
);
}
);
width = 781;
}
);
leftKerningGroup = _kern7;
rightKerningGroup = _kern8;
unicode = 041E;
},
{
glyphname = Q;
layers = (
{
layerId = "D8C8E711-746D-4FC3-8EF0-1339555BCA12";
paths = (
{
closed = 1;
nodes = (
"608 717 OFFCURVE",
"753 579 OFFCURVE",
"753 358 CURVE SMOOTH",
"753 251 OFFCURVE",
"719 174 OFFCURVE",
"660 113 CURVE",
"691 74 OFFCURVE",
"723 33 OFFCURVE",
"754 -6 CURVE",
"615 -112 LINE",
"516 15 LINE",
"477 0 OFFCURVE",
"430 -8 OFFCURVE",
"391 -8 CURVE SMOOTH",
"169 -8 OFFCURVE",
"28 135 OFFCURVE",
"28 352 CURVE SMOOTH",
"28 573 OFFCURVE",
"173 717 OFFCURVE",
"392 717 CURVE SMOOTH"
);
},
{
closed = 1;
nodes = (
"213 260 OFFCURVE",
"262 163 OFFCURVE",
"387 163 CURVE SMOOTH",
"517 163 OFFCURVE",
"568 268 OFFCURVE",
"568 358 CURVE SMOOTH",
"568 446 OFFCURVE",
"520 546 OFFCURVE",
"392 546 CURVE SMOOTH",
"262 546 OFFCURVE",
"213 443 OFFCURVE",
"213 351 CURVE SMOOTH"
);
}
);
width = 782;
}
);
leftKerningGroup = _kern3;
rightKerningGroup = _kern4;
unicode = 0051;
},
{
glyphname = J;
layers = (
{
layerId = "D8C8E711-746D-4FC3-8EF0-1339555BCA12";
paths = (
{
closed = 1;
nodes = (
"539 255 LINE",
"540 80 OFFCURVE",
"455 -8 OFFCURVE",
"291 -8 CURVE SMOOTH",
"122 -8 OFFCURVE",
"22 85 OFFCURVE",
"22 243 CURVE SMOOTH",
"22 269 LINE",
"202 269 LINE",
"202 225 OFFCURVE",
"206 161 OFFCURVE",
"285 161 CURVE SMOOTH",
"347 161 OFFCURVE",
"358 202 OFFCURVE",
"358 242 CURVE SMOOTH",
"358 708 LINE",
"539 708 LINE"
);
}
);
width = 602;
}
);
unicode = 004A;
},
{
glyphname = K_alt;
layers = (
{
layerId = "D8C8E711-746D-4FC3-8EF0-1339555BCA12";
paths = (
{
closed = 1;
nodes = (
"248 437 LINE",
"494 708 LINE",
"731 708 LINE",
"448 408 LINE",
"710 0 LINE",
"492 0 LINE",
"313 286 LINE",
"248 224 LINE",
"248 0 LINE",
"67 0 LINE",
"67 708 LINE",
"248 708 LINE"
);
}
);
width = 725;
}
);
leftKerningGroup = _kern16;
rightKerningGroup = _kern16;
},
{
glyphname = K;
layers = (
{
layerId = "D8C8E711-746D-4FC3-8EF0-1339555BCA12";
paths = (
{
closed = 1;
nodes = (
"248 269 LINE",
"248 0 LINE",
"67 0 LINE",
"67 708 LINE",
"248 708 LINE",
"248 436 LINE",
"345 436 LINE",
"498 708 LINE",
"704 708 LINE",
"494 369 LINE",
"702 0 LINE",
"492 0 LINE",
"349 269 LINE"
);
}
);
width = 704;
}
);
leftKerningGroup = _kern1;
rightKerningGroup = _kern16;
unicode = 004B;
},
{
glyphname = k_alt;
layers = (
{
layerId = "D8C8E711-746D-4FC3-8EF0-1339555BCA12";
paths = (
{
closed = 1;
nodes = (
"383 527 LINE",
"606 527 LINE",
"396 314 LINE",
"594 0 LINE",
"396 0 LINE",
"275 200 LINE",
"224 149 LINE",
"224 0 LINE",
"47 0 LINE",
"47 708 LINE",
"224 708 LINE",
"224 351 LINE"
);
}
);
width = 600;
}
);
leftKerningGroup = _kern17;
rightKerningGroup = _kern17;
},
{
glyphname = k;
layers = (
{
layerId = "D8C8E711-746D-4FC3-8EF0-1339555BCA12";
paths = (
{
closed = 1;
nodes = (
"224 183 LINE",
"224 0 LINE",
"47 0 LINE",
"47 708 LINE",
"224 708 LINE",
"224 341 LINE",
"277 341 LINE",
"387 527 LINE",
"585 527 LINE",
"422 276 LINE",
"598 0 LINE",
"394 0 LINE",
"280 183 LINE"
);
}
);
width = 585;
}
);
leftKerningGroup = _kern17;
rightKerningGroup = _kern17;
unicode = 006B;
},
{
glyphname = i_alt;
layers = (
{
layerId = "D8C8E711-746D-4FC3-8EF0-1339555BCA12";
paths = (
{
closed = 1;
nodes = (
"-8 527 LINE",
"245 527 LINE",
"245 0 LINE",
"69 0 LINE",
"69 369 LINE",
"-8 369 LINE"
);
},
{
closed = 1;
nodes = (
"208 782 OFFCURVE",
"257 743 OFFCURVE",
"257 674 CURVE SMOOTH",
"257 606 OFFCURVE",
"207 572 OFFCURVE",
"151 572 CURVE SMOOTH",
"95 572 OFFCURVE",
"43 606 OFFCURVE",
"43 673 CURVE SMOOTH",
"43 742 OFFCURVE",
"99 782 OFFCURVE",
"153 782 CURVE SMOOTH"
);
}
);
width = 296;
}
);
},
{
glyphname = j_alt;
layers = (
{
layerId = "D8C8E711-746D-4FC3-8EF0-1339555BCA12";
paths = (
{
closed = 1;
nodes = (
"55 369 LINE",
"-34 369 LINE",
"-34 527 LINE",
"231 527 LINE",
"231 -35 LINE",
"230 -159 OFFCURVE",
"181 -220 OFFCURVE",
"53 -220 CURVE SMOOTH",
"-38 -220 LINE",
"-38 -61 LINE",
"-14 -61 LINE SMOOTH",
"58 -61 OFFCURVE",
"55 -13 OFFCURVE",
"55 11 CURVE SMOOTH"
);
},
{
closed = 1;
nodes = (
"199 782 OFFCURVE",
"247 742 OFFCURVE",
"247 674 CURVE SMOOTH",
"247 605 OFFCURVE",
"198 572 OFFCURVE",
"142 572 CURVE SMOOTH",
"86 572 OFFCURVE",
"34 606 OFFCURVE",
"34 673 CURVE SMOOTH",
"34 742 OFFCURVE",
"89 782 OFFCURVE",
"144 782 CURVE SMOOTH"
);
}
);
width = 287;
}
);
},
{
glyphname = s_alt;
layers = (
{
layerId = "D8C8E711-746D-4FC3-8EF0-1339555BCA12";
paths = (
{
closed = 1;
nodes = (
"209 347 OFFCURVE",
"253 338 OFFCURVE",
"301 331 CURVE SMOOTH",
"398 316 OFFCURVE",
"526 306 OFFCURVE",
"526 173 CURVE SMOOTH",
"526 42 OFFCURVE",
"402 -8 OFFCURVE",
"289 -8 CURVE SMOOTH",
"180 -8 OFFCURVE",
"42 39 OFFCURVE",
"23 187 CURVE",
"203 187 LINE",
"206 152 OFFCURVE",
"258 139 OFFCURVE",
"299 139 CURVE SMOOTH",
"342 139 OFFCURVE",
"357 153 OFFCURVE",
"357 170 CURVE SMOOTH",
"357 196 OFFCURVE",
"315 199 OFFCURVE",
"263 208 CURVE SMOOTH",
"178 223 OFFCURVE",
"42 235 OFFCURVE",
"42 372 CURVE SMOOTH",
"42 505 OFFCURVE",
"182 538 OFFCURVE",
"274 538 CURVE SMOOTH",
"390 538 OFFCURVE",
"503 486 OFFCURVE",
"516 348 CURVE",
"345 348 LINE",
"344 379 OFFCURVE",
"310 394 OFFCURVE",
"266 395 CURVE SMOOTH",
"223 396 OFFCURVE",
"209 383 OFFCURVE",
"209 370 CURVE SMOOTH"
);
}
);
width = 550;
}
);
leftKerningGroup = _kern5;
rightKerningGroup = _kern6;
},
{
glyphname = s;
layers = (
{
layerId = "D8C8E711-746D-4FC3-8EF0-1339555BCA12";
paths = (
{
closed = 1;
nodes = (
"223 394 OFFCURVE",
"203 384 OFFCURVE",
"203 368 CURVE SMOOTH",
"203 359 OFFCURVE",
"209 348 OFFCURVE",
"234 341 CURVE SMOOTH",
"278 330 OFFCURVE",
"316 323 OFFCURVE",
"356 315 CURVE SMOOTH",
"421 302 OFFCURVE",
"496 273 OFFCURVE",
"496 170 CURVE SMOOTH",
"496 34 OFFCURVE",
"369 -8 OFFCURVE",
"263 -8 CURVE SMOOTH",
"159 -8 OFFCURVE",
"40 33 OFFCURVE",
"19 180 CURVE",
"198 180 LINE",
"206 153 OFFCURVE",
"235 136 OFFCURVE",
"272 136 CURVE SMOOTH",
"303 136 OFFCURVE",
"324 148 OFFCURVE",
"324 168 CURVE SMOOTH",
"324 195 OFFCURVE",
"287 197 OFFCURVE",
"240 207 CURVE SMOOTH",
"191 218 OFFCURVE",
"127 234 OFFCURVE",
"89 259 CURVE SMOOTH",
"50 286 OFFCURVE",
"34 327 OFFCURVE",
"34 374 CURVE SMOOTH",
"35 497 OFFCURVE",
"155 538 OFFCURVE",
"257 538 CURVE SMOOTH",
"369 538 OFFCURVE",
"467 487 OFFCURVE",
"483 356 CURVE",
"312 356 LINE",
"309 380 OFFCURVE",
"283 394 OFFCURVE",
"250 394 CURVE SMOOTH"
);
}
);
width = 515;
}
);
leftKerningGroup = _kern5;
rightKerningGroup = _kern6;
unicode = 0073;
},
{
glyphname = c_alt;
layers = (
{
layerId = "D8C8E711-746D-4FC3-8EF0-1339555BCA12";
paths = (
{
closed = 1;
nodes = (
"324 148 OFFCURVE",
"353 160 OFFCURVE",
"366 187 CURVE",
"540 187 LINE",
"516 50 OFFCURVE",
"409 -8 OFFCURVE",
"286 -8 CURVE SMOOTH",
"126 -8 OFFCURVE",
"23 94 OFFCURVE",
"23 260 CURVE SMOOTH",
"23 430 OFFCURVE",
"129 537 OFFCURVE",
"293 537 CURVE SMOOTH",
"423 537 OFFCURVE",
"527 468 OFFCURVE",
"543 323 CURVE",
"367 323 LINE",
"356 359 OFFCURVE",
"329 376 OFFCURVE",
"292 376 CURVE SMOOTH",
"219 376 OFFCURVE",
"197 312 OFFCURVE",
"197 260 CURVE SMOOTH",
"197 201 OFFCURVE",
"225 148 OFFCURVE",
"292 148 CURVE SMOOTH"
);
}
);
width = 567;
}
);
leftKerningGroup = _kern5;
rightKerningGroup = _kern6;
},
{
glyphname = copyright;
layers = (
{
layerId = "D8C8E711-746D-4FC3-8EF0-1339555BCA12";
paths = (
{
closed = 1;
nodes = (
"204 -85 OFFCURVE",
"39 66 OFFCURVE",
"39 318 CURVE SMOOTH",
"39 573 OFFCURVE",
"209 730 OFFCURVE",
"452 730 CURVE SMOOTH",
"702 730 OFFCURVE",
"876 565 OFFCURVE",
"876 313 CURVE SMOOTH",
"876 62 OFFCURVE",
"704 -85 OFFCURVE",
"456 -85 CURVE SMOOTH"
);
},
{
closed = 1;
nodes = (
"648 48 OFFCURVE",
"743 164 OFFCURVE",
"743 319 CURVE SMOOTH",
"743 472 OFFCURVE",
"650 595 OFFCURVE",
"465 595 CURVE SMOOTH",
"280 595 OFFCURVE",
"177 473 OFFCURVE",
"177 317 CURVE SMOOTH",
"177 166 OFFCURVE",
"274 48 OFFCURVE",
"462 48 CURVE SMOOTH"
);
},
{
closed = 1;
nodes = (
"498 241 OFFCURVE",
"521 258 OFFCURVE",
"524 283 CURVE",
"665 283 LINE",
"649 158 OFFCURVE",
"569 113 OFFCURVE",
"467 113 CURVE SMOOTH",
"343 113 OFFCURVE",
"255 179 OFFCURVE",
"255 319 CURVE SMOOTH",
"255 465 OFFCURVE",
"352 532 OFFCURVE",
"472 532 CURVE SMOOTH",
"574 532 OFFCURVE",
"652 483 OFFCURVE",
"665 360 CURVE",
"523 360 LINE",
"522 391 OFFCURVE",
"496 404 OFFCURVE",
"465 404 CURVE SMOOTH",
"404 404 OFFCURVE",
"397 357 OFFCURVE",
"397 320 CURVE SMOOTH",
"397 288 OFFCURVE",
"402 241 OFFCURVE",
"462 241 CURVE SMOOTH"
);
}
);
width = 915;
}
);
unicode = 00A9;
},
{
glyphname = ampersand;
layers = (
{
layerId = "D8C8E711-746D-4FC3-8EF0-1339555BCA12";
paths = (
{
closed = 1;
nodes = (
"524 0 LINE",
"475 48 LINE",
"422 5 OFFCURVE",
"346 -8 OFFCURVE",
"288 -8 CURVE SMOOTH",
"170 -8 OFFCURVE",
"47 46 OFFCURVE",
"47 193 CURVE SMOOTH",
"47 284 OFFCURVE",
"94 343 OFFCURVE",
"154 383 CURVE",
"156 383 LINE",
"123 416 OFFCURVE",
"101 462 OFFCURVE",
"101 521 CURVE SMOOTH",
"101 650 OFFCURVE",
"204 717 OFFCURVE",
"318 717 CURVE SMOOTH",
"424 717 OFFCURVE",
"526 659 OFFCURVE",
"526 537 CURVE SMOOTH",
"526 445 OFFCURVE",
"467 392 OFFCURVE",
"405 351 CURVE",
"478 275 LINE",
"491 296 OFFCURVE",
"499 337 OFFCURVE",
"499 356 CURVE",
"644 356 LINE",
"635 277 OFFCURVE",
"619 219 OFFCURVE",
"587 168 CURVE",
"740 0 LINE"
);
},
{
closed = 1;
nodes = (
"261 283 LINE",
"210 248 OFFCURVE",
"209 222 OFFCURVE",
"209 205 CURVE SMOOTH",
"209 160 OFFCURVE",
"251 141 OFFCURVE",
"289 141 CURVE SMOOTH",
"315 141 OFFCURVE",
"356 147 OFFCURVE",
"375 163 CURVE"
);
},
{
closed = 1;
nodes = (
"369 543 OFFCURVE",
"358 576 OFFCURVE",
"315 576 CURVE SMOOTH",
"270 576 OFFCURVE",
"257 543 OFFCURVE",
"257 522 CURVE SMOOTH",
"257 495 OFFCURVE",
"271 473 OFFCURVE",
"299 450 CURVE",
"348 473 OFFCURVE",
"369 496 OFFCURVE",
"369 527 CURVE SMOOTH"
);
}
);
width = 744;
}
);
unicode = 0026;
},
{
glyphname = dollar;
layers = (
{
layerId = "D8C8E711-746D-4FC3-8EF0-1339555BCA12";
paths = (
{
closed = 1;
nodes = (
"437 483 LINE",
"433 524 OFFCURVE",
"393 552 OFFCURVE",
"327 553 CURVE SMOOTH",
"281 554 OFFCURVE",
"240 541 OFFCURVE",
"240 506 CURVE SMOOTH",
"240 475 OFFCURVE",
"274 460 OFFCURVE",
"322 448 CURVE SMOOTH",
"349 441 OFFCURVE",
"386 432 OFFCURVE",
"412 426 CURVE SMOOTH",
"542 396 OFFCURVE",
"628 365 OFFCURVE",
"628 228 CURVE SMOOTH",
"628 86 OFFCURVE",
"535 16 OFFCURVE",
"415 0 CURVE",
"415 -144 LINE",
"254 -144 LINE",
"254 4 LINE",
"141 28 OFFCURVE",
"50 100 OFFCURVE",
"39 239 CURVE",
"220 239 LINE",
"235 182 OFFCURVE",
"289 159 OFFCURVE",
"354 159 CURVE SMOOTH",
"408 159 OFFCURVE",
"447 175 OFFCURVE",
"447 208 CURVE SMOOTH",
"447 242 OFFCURVE",
"407 252 OFFCURVE",
"366 262 CURVE SMOOTH",
"276 284 OFFCURVE",
"233 293 OFFCURVE",
"191 311 CURVE SMOOTH",
"111 344 OFFCURVE",
"61 393 OFFCURVE",
"61 506 CURVE SMOOTH",
"61 629 OFFCURVE",
"157 698 OFFCURVE",
"258 709 CURVE",
"258 856 LINE",
"419 856 LINE",
"419 707 LINE",
"528 693 OFFCURVE",
"613 608 OFFCURVE",
"613 483 CURVE"
);
}
);
width = 668;
}
);
unicode = 0024;
},
{
glyphname = parenleft;
layers = (
{
layerId = "D8C8E711-746D-4FC3-8EF0-1339555BCA12";
paths = (
{
closed = 1;
nodes = (
"45 486 OFFCURVE",
"100 656 OFFCURVE",
"213 803 CURVE",
"434 803 LINE",
"296 665 OFFCURVE",
"224 478 OFFCURVE",
"224 310 CURVE SMOOTH",
"224 143 OFFCURVE",
"296 -44 OFFCURVE",
"434 -182 CURVE",
"213 -182 LINE",
"100 -37 OFFCURVE",
"45 135 OFFCURVE",
"45 310 CURVE SMOOTH"
);
}
);
width = 384;
}
);
unicode = 0028;
},
{
glyphname = parenright;
layers = (
{
layerId = "D8C8E711-746D-4FC3-8EF0-1339555BCA12";
paths = (
{
closed = 1;
nodes = (
"339 135 OFFCURVE",
"284 -37 OFFCURVE",
"171 -182 CURVE",
"-50 -182 LINE",
"88 -44 OFFCURVE",
"160 143 OFFCURVE",
"160 310 CURVE SMOOTH",
"160 478 OFFCURVE",
"88 665 OFFCURVE",
"-50 803 CURVE",
"171 803 LINE",
"284 656 OFFCURVE",
"339 486 OFFCURVE",
"339 310 CURVE SMOOTH"
);
}
);
width = 384;
}
);
unicode = 0029;
},
{
glyphname = cent;
layers = (
{
layerId = "D8C8E711-746D-4FC3-8EF0-1339555BCA12";
paths = (
{
closed = 1;
nodes = (
"351 152 OFFCURVE",
"385 178 OFFCURVE",
"390 211 CURVE",
"569 211 LINE",
"561 96 OFFCURVE",
"490 20 OFFCURVE",
"389 1 CURVE",
"389 -140 LINE",
"227 -140 LINE",
"227 1 LINE",
"103 28 OFFCURVE",
"39 121 OFFCURVE",
"39 258 CURVE SMOOTH",
"39 408 OFFCURVE",
"115 511 OFFCURVE",
"226 532 CURVE",
"226 684 LINE",
"388 684 LINE",
"388 533 LINE",
"485 518 OFFCURVE",
"556 442 OFFCURVE",
"561 321 CURVE",
"390 321 LINE",
"382 358 OFFCURVE",
"350 384 OFFCURVE",
"306 384 CURVE SMOOTH",
"235 384 OFFCURVE",
"214 315 OFFCURVE",
"214 264 CURVE SMOOTH",
"214 211 OFFCURVE",
"238 152 OFFCURVE",
"306 152 CURVE SMOOTH"
);
}
);
width = 608;
}
);
unicode = 00A2;
},
{
glyphname = section;
layers = (
{
layerId = "D8C8E711-746D-4FC3-8EF0-1339555BCA12";
paths = (
{
closed = 1;
nodes = (
"265 587 OFFCURVE",
"244 577 OFFCURVE",
"244 558 CURVE SMOOTH",
"244 531 OFFCURVE",
"293 524 OFFCURVE",
"313 520 CURVE SMOOTH",
"366 510 OFFCURVE",
"414 504 OFFCURVE",
"465 483 CURVE SMOOTH",
"518 461 OFFCURVE",
"541 421 OFFCURVE",
"541 374 CURVE SMOOTH",
"541 329 OFFCURVE",
"522 286 OFFCURVE",
"493 263 CURVE",
"528 235 OFFCURVE",
"537 194 OFFCURVE",
"537 162 CURVE SMOOTH",
"537 106 OFFCURVE",
"510 66 OFFCURVE",
"473 39 CURVE SMOOTH",
"423 3 OFFCURVE",
"356 -8 OFFCURVE",
"295 -8 CURVE SMOOTH",
"175 -8 OFFCURVE",
"47 34 OFFCURVE",
"39 177 CURVE",
"224 177 LINE",
"231 146 OFFCURVE",
"260 125 OFFCURVE",
"299 125 CURVE SMOOTH",
"332 125 OFFCURVE",
"350 137 OFFCURVE",
"350 156 CURVE SMOOTH",
"350 171 OFFCURVE",
"340 181 OFFCURVE",
"320 184 CURVE SMOOTH",
"257 195 OFFCURVE",
"164 211 OFFCURVE",
"115 244 CURVE SMOOTH",
"70 274 OFFCURVE",
"52 311 OFFCURVE",
"52 354 CURVE SMOOTH",
"52 399 OFFCURVE",
"75 440 OFFCURVE",
"114 457 CURVE",
"77 480 OFFCURVE",
"59 523 OFFCURVE",
"59 563 CURVE SMOOTH",
"60 688 OFFCURVE",
"195 717 OFFCURVE",
"292 717 CURVE SMOOTH",
"414 717 OFFCURVE",
"519 671 OFFCURVE",
"530 546 CURVE",
"346 546 LINE",
"341 575 OFFCURVE",
"319 587 OFFCURVE",
"292 587 CURVE SMOOTH"
);
},
{
closed = 1;
nodes = (
"282 328 OFFCURVE",
"328 317 OFFCURVE",
"355 312 CURVE",
"364 320 OFFCURVE",
"370 337 OFFCURVE",
"370 348 CURVE SMOOTH",
"370 371 OFFCURVE",
"340 379 OFFCURVE",
"319 385 CURVE SMOOTH",
"294 392 OFFCURVE",
"266 401 OFFCURVE",
"239 404 CURVE",
"228 397 OFFCURVE",
"224 384 OFFCURVE",
"224 373 CURVE SMOOTH",
"224 357 OFFCURVE",
"232 345 OFFCURVE",
"261 335 CURVE SMOOTH"
);
}
);
width = 581;
}
);
unicode = 00A7;
},
{
glyphname = uni04C1;
layers = (
{
layerId = "D8C8E711-746D-4FC3-8EF0-1339555BCA12";
paths = (
{
closed = 1;
nodes = (
"403 751 OFFCURVE",
"321 807 OFFCURVE",
"316 927 CURVE",
"458 927 LINE",
"459 888 OFFCURVE",
"488 868 OFFCURVE",
"521 868 CURVE SMOOTH",
"555 868 OFFCURVE",
"579 888 OFFCURVE",
"580 927 CURVE",
"722 927 LINE",
"717 808 OFFCURVE",
"636 751 OFFCURVE",
"519 751 CURVE SMOOTH"
);
},
{
closed = 1;
nodes = (
"608 270 LINE",
"608 0 LINE",
"427 0 LINE",
"427 270 LINE",
"343 271 LINE",
"206 0 LINE",
"-4 0 LINE",
"197 370 LINE",
"-6 708 LINE",
"200 708 LINE",
"346 434 LINE",
"427 434 LINE",
"427 708 LINE",
"608 708 LINE",
"608 434 LINE",
"689 434 LINE",
"837 708 LINE",
"1042 708 LINE",
"838 370 LINE",
"1041 0 LINE",
"829 0 LINE",
"694 270 LINE"
);
}
);
width = 1036;
}
);
unicode = 04C1;
},
{
glyphname = uni04C2;
layers = (
{
layerId = "D8C8E711-746D-4FC3-8EF0-1339555BCA12";
paths = (
{
closed = 1;
nodes = (
"310 558 OFFCURVE",
"226 609 OFFCURVE",
"221 735 CURVE",
"365 735 LINE",
"366 696 OFFCURVE",
"395 676 OFFCURVE",
"428 676 CURVE SMOOTH",
"462 676 OFFCURVE",
"487 696 OFFCURVE",
"488 735 CURVE",
"631 735 LINE",
"626 609 OFFCURVE",
"544 558 OFFCURVE",
"427 558 CURVE SMOOTH"
);
},
{
closed = 1;
nodes = (
"516 182 LINE",
"516 0 LINE",
"339 0 LINE",
"339 182 LINE",
"263 182 LINE",
"188 0 LINE",
"-6 0 LINE",
"123 276 LINE",
"-2 527 LINE",
"181 527 LINE",
"265 341 LINE",
"339 341 LINE",
"339 527 LINE",
"516 527 LINE",
"516 341 LINE",
"592 341 LINE",
"672 527 LINE",
"857 527 LINE",
"730 276 LINE",
"862 0 LINE",
"666 0 LINE",
"593 182 LINE"
);
}
);
width = 855;
}
);
unicode = 04C2;
},
{
glyphname = w_alt;
layers = (
{
layerId = "D8C8E711-746D-4FC3-8EF0-1339555BCA12";
paths = (
{
closed = 1;
nodes = (
"160 0 LINE",
"-6 527 LINE",
"186 527 LINE",
"269 212 LINE",
"359 427 LINE",
"526 427 LINE",
"614 212 LINE",
"696 527 LINE",
"882 527 LINE",
"716 0 LINE",
"531 0 LINE",
"439 244 LINE",
"345 0 LINE"
);
}
);
width = 876;
}
);
leftKerningGroup = _kern20;
rightKerningGroup = _kern20;
},
{
glyphname = W_alt;
layers = (
{
layerId = "D8C8E711-746D-4FC3-8EF0-1339555BCA12";
paths = (
{
closed = 1;
nodes = (
"579 562 LINE",
"679 213 LINE",
"774 708 LINE",
"964 708 LINE",
"806 0 LINE",
"570 0 LINE",
"488 262 LINE",
"408 0 LINE",
"161 0 LINE",
"0 708 LINE",
"201 708 LINE",
"301 213 LINE",
"403 562 LINE"
);
}
);
width = 964;
}
);
leftKerningGroup = _kern19;
rightKerningGroup = _kern19;
},
{
glyphname = zero;
layers = (
{
layerId = "D8C8E711-746D-4FC3-8EF0-1339555BCA12";
paths = (
{
closed = 1;
nodes = (
"437 159 OFFCURVE",
"442 290 OFFCURVE",
"442 354 CURVE SMOOTH",
"442 415 OFFCURVE",
"440 546 OFFCURVE",
"331 546 CURVE SMOOTH",
"224 546 OFFCURVE",
"215 418 OFFCURVE",
"215 354 CURVE SMOOTH",
"215 292 OFFCURVE",
"217 159 OFFCURVE",
"327 159 CURVE SMOOTH"
);
},
{
closed = 1;
nodes = (
"543 717 OFFCURVE",
"621 551 OFFCURVE",
"621 354 CURVE SMOOTH",
"621 155 OFFCURVE",
"542 -8 OFFCURVE",
"327 -8 CURVE SMOOTH",
"112 -8 OFFCURVE",
"37 155 OFFCURVE",
"37 351 CURVE SMOOTH",
"37 554 OFFCURVE",
"118 717 OFFCURVE",
"330 717 CURVE SMOOTH"
);
}
);
width = 657;
}
);
unicode = 0030;
},
{
glyphname = one;
layers = (
{
layerId = "D8C8E711-746D-4FC3-8EF0-1339555BCA12";
paths = (
{
closed = 1;
nodes = (
"321 0 LINE",
"140 0 LINE",
"140 487 LINE",
"5 487 LINE",
"5 627 LINE",
"89 627 OFFCURVE",
"148 645 OFFCURVE",
"189 708 CURVE",
"321 708 LINE"
);
}
);
width = 408;
}
);
unicode = 0031;
},
{
glyphname = two;
layers = (
{
layerId = "D8C8E711-746D-4FC3-8EF0-1339555BCA12";
paths = (
{
closed = 1;
nodes = (
"208 304 LINE SMOOTH",
"251 339 OFFCURVE",
"280 364 OFFCURVE",
"292 375 CURVE SMOOTH",
"326 406 OFFCURVE",
"349 440 OFFCURVE",
"349 473 CURVE SMOOTH",
"349 513 OFFCURVE",
"325 546 OFFCURVE",
"268 546 CURVE",
"207 545 OFFCURVE",
"182 513 OFFCURVE",
"178 474 CURVE",
"10 474 LINE",
"15 639 OFFCURVE",
"139 717 OFFCURVE",
"274 717 CURVE SMOOTH",
"410 717 OFFCURVE",
"527 639 OFFCURVE",
"527 495 CURVE SMOOTH",
"527 346 OFFCURVE",
"400 250 OFFCURVE",
"287 167 CURVE",
"520 167 LINE",
"520 0 LINE",
"15 0 LINE",
"15 148 LINE"
);
}
);
width = 557;
}
);
unicode = 0032;
},
{
glyphname = three;
layers = (
{
layerId = "D8C8E711-746D-4FC3-8EF0-1339555BCA12";
paths = (
{
closed = 1;
nodes = (
"32 486 LINE",
"48 646 OFFCURVE",
"169 717 OFFCURVE",
"311 717 CURVE SMOOTH",
"433 717 OFFCURVE",
"559 664 OFFCURVE",
"559 519 CURVE SMOOTH",
"559 463 OFFCURVE",
"527 410 OFFCURVE",
"487 385 CURVE",
"554 357 OFFCURVE",
"585 290 OFFCURVE",
"585 216 CURVE SMOOTH",
"584 52 OFFCURVE",
"450 -7 OFFCURVE",
"309 -7 CURVE SMOOTH",
"160 -7 OFFCURVE",
"29 70 OFFCURVE",
"13 240 CURVE",
"189 240 LINE",
"197 189 OFFCURVE",
"244 162 OFFCURVE",
"310 162 CURVE SMOOTH",
"369 162 OFFCURVE",
"403 183 OFFCURVE",
"403 225 CURVE SMOOTH",
"403 259 OFFCURVE",
"380 284 OFFCURVE",
"332 284 CURVE SMOOTH",
"240 284 LINE",
"240 435 LINE",
"305 435 LINE SMOOTH",
"358 435 OFFCURVE",
"378 464 OFFCURVE",
"378 493 CURVE SMOOTH",
"378 526 OFFCURVE",
"354 550 OFFCURVE",
"302 550 CURVE SMOOTH",
"245 550 OFFCURVE",
"210 521 OFFCURVE",
"206 486 CURVE"
);
}
);
width = 622;
}
);
unicode = 0033;
},
{
glyphname = four;
layers = (
{
layerId = "D8C8E711-746D-4FC3-8EF0-1339555BCA12";
paths = (
{
closed = 1;
nodes = (
"544 287 LINE",
"622 287 LINE",
"622 123 LINE",
"544 123 LINE",
"544 0 LINE",
"365 0 LINE",
"365 123 LINE",
"22 123 LINE",
"22 261 LINE",
"339 708 LINE",
"544 708 LINE"
);
},
{
closed = 1;
nodes = (
"225 287 LINE",
"365 287 LINE",
"365 498 LINE"
);
}
);
width = 639;
}
);
unicode = 0034;
},
{
glyphname = seven;
layers = (
{
layerId = "D8C8E711-746D-4FC3-8EF0-1339555BCA12";
paths = (
{
closed = 1;
nodes = (
"46 0 LINE",
"306 540 LINE",
"-8 540 LINE",
"-8 708 LINE",
"513 708 LINE",
"513 579 LINE",
"248 0 LINE"
);
}
);
width = 516;
}
);
unicode = 0037;
},
{
glyphname = eight;
layers = (
{
layerId = "D8C8E711-746D-4FC3-8EF0-1339555BCA12";
paths = (
{
closed = 1;
nodes = (
"176 -8 OFFCURVE",
"37 53 OFFCURVE",
"37 217 CURVE SMOOTH",
"37 293 OFFCURVE",
"68 349 OFFCURVE",
"125 382 CURVE",
"88 413 OFFCURVE",
"62 458 OFFCURVE",
"62 522 CURVE SMOOTH",
"62 666 OFFCURVE",
"191 717 OFFCURVE",
"314 717 CURVE SMOOTH",
"439 717 OFFCURVE",
"565 664 OFFCURVE",
"565 514 CURVE SMOOTH",
"565 459 OFFCURVE",
"534 409 OFFCURVE",
"499 382 CURVE",
"555 351 OFFCURVE",
"590 298 OFFCURVE",
"590 214 CURVE SMOOTH",
"591 54 OFFCURVE",
"447 -8 OFFCURVE",
"311 -8 CURVE SMOOTH"
);
},
{
closed = 1;
nodes = (
"259 562 OFFCURVE",
"237 533 OFFCURVE",
"237 500 CURVE SMOOTH",
"237 465 OFFCURVE",
"261 432 OFFCURVE",
"314 432 CURVE SMOOTH",
"369 432 OFFCURVE",
"389 465 OFFCURVE",
"389 496 CURVE SMOOTH",
"389 532 OFFCURVE",
"362 562 OFFCURVE",
"310 562 CURVE SMOOTH"
);
},
{
closed = 1;
nodes = (
"409 272 OFFCURVE",
"374 302 OFFCURVE",
"313 302 CURVE SMOOTH",
"250 302 OFFCURVE",
"216 271 OFFCURVE",
"216 228 CURVE SMOOTH",
"216 183 OFFCURVE",
"254 154 OFFCURVE",
"312 154 CURVE SMOOTH",
"370 154 OFFCURVE",
"409 183 OFFCURVE",
"409 228 CURVE SMOOTH"
);
}
);
width = 627;
}
);
unicode = 0038;
},
{
glyphname = nine;
layers = (
{
layerId = "D8C8E711-746D-4FC3-8EF0-1339555BCA12";
paths = (
{
closed = 1;
nodes = (
"204 209 LINE",
"213 177 OFFCURVE",
"252 158 OFFCURVE",
"297 158 CURVE SMOOTH",
"393 158 OFFCURVE",
"425 243 OFFCURVE",
"422 307 CURVE",
"374 251 OFFCURVE",
"302 241 OFFCURVE",
"257 241 CURVE SMOOTH",
"128 241 OFFCURVE",
"34 325 OFFCURVE",
"34 468 CURVE SMOOTH",
"34 636 OFFCURVE",
"166 717 OFFCURVE",
"307 717 CURVE SMOOTH",
"514 717 OFFCURVE",
"586 541 OFFCURVE",
"586 355 CURVE SMOOTH",
"586 161 OFFCURVE",
"507 -8 OFFCURVE",
"295 -8 CURVE SMOOTH",
"161 -8 OFFCURVE",
"51 60 OFFCURVE",
"35 209 CURVE"
);
},
{
closed = 1;
nodes = (
"212 430 OFFCURVE",
"241 388 OFFCURVE",
"302 388 CURVE SMOOTH",
"372 388 OFFCURVE",
"392 441 OFFCURVE",
"391 473 CURVE SMOOTH",
"390 524 OFFCURVE",
"352 553 OFFCURVE",
"302 553 CURVE SMOOTH",
"241 553 OFFCURVE",
"212 511 OFFCURVE",
"212 471 CURVE SMOOTH"
);
}
);
width = 622;
}
);
unicode = 0039;
},
{
glyphname = uni0430;
layers = (
{
layerId = "D8C8E711-746D-4FC3-8EF0-1339555BCA12";
paths = (
{
closed = 1;
nodes = (
"266 213 LINE SMOOTH",
"227 213 OFFCURVE",
"204 201 OFFCURVE",
"204 172 CURVE SMOOTH",
"204 143 OFFCURVE",
"226 127 OFFCURVE",
"261 127 CURVE SMOOTH",
"317 127 OFFCURVE",
"361 169 OFFCURVE",
"364 213 CURVE"
);
},
{
closed = 1;
nodes = (
"367 59 LINE",
"321 8 OFFCURVE",
"270 -8 OFFCURVE",
"203 -8 CURVE SMOOTH",
"115 -8 OFFCURVE",
"29 44 OFFCURVE",
"29 153 CURVE SMOOTH",
"29 223 OFFCURVE",
"65 270 OFFCURVE",
"114 295 CURVE SMOOTH",
"175 326 OFFCURVE",
"253 322 OFFCURVE",
"338 322 CURVE SMOOTH",
"362 322 LINE",
"361 359 OFFCURVE",
"334 389 OFFCURVE",
"287 389 CURVE SMOOTH",
"252 389 OFFCURVE",
"219 373 OFFCURVE",
"215 350 CURVE",
"39 350 LINE",
"55 481 OFFCURVE",
"170 537 OFFCURVE",
"295 537 CURVE SMOOTH",
"450 537 OFFCURVE",
"530 450 OFFCURVE",
"530 283 CURVE SMOOTH",
"530 0 LINE",
"367 0 LINE"
);
}
);
width = 576;
}
);
leftKerningGroup = _kern27;
rightKerningGroup = _kern27;
unicode = 0430;
},
{
glyphname = uni0435;
layers = (
{
layerId = "D8C8E711-746D-4FC3-8EF0-1339555BCA12";
paths = (
{
closed = 1;
nodes = (
"339 140 OFFCURVE",
"369 159 OFFCURVE",
"376 178 CURVE",
"549 178 LINE",
"520 47 OFFCURVE",
"414 -8 OFFCURVE",
"296 -8 CURVE SMOOTH",
"134 -8 OFFCURVE",
"27 94 OFFCURVE",
"27 260 CURVE SMOOTH",
"27 426 OFFCURVE",
"135 538 OFFCURVE",
"298 538 CURVE SMOOTH",
"452 538 OFFCURVE",
"549 437 OFFCURVE",
"549 278 CURVE SMOOTH",
"549 255 OFFCURVE",
"547 236 OFFCURVE",
"542 213 CURVE",
"202 213 LINE",
"206 174 OFFCURVE",
"234 140 OFFCURVE",
"292 140 CURVE SMOOTH"
);
},
{
closed = 1;
nodes = (
"232 398 OFFCURVE",
"205 358 OFFCURVE",
"205 328 CURVE",
"383 328 LINE",
"383 358 OFFCURVE",
"359 398 OFFCURVE",
"295 398 CURVE SMOOTH"
);
}
);
width = 576;
}
);
leftKerningGroup = _kern9;
rightKerningGroup = _kern10;
unicode = 0435;
},
{
glyphname = uni043E;
layers = (
{
layerId = "D8C8E711-746D-4FC3-8EF0-1339555BCA12";
paths = (
{
closed = 1;
nodes = (
"224 373 OFFCURVE",
"200 310 OFFCURVE",
"200 260 CURVE SMOOTH",
"200 210 OFFCURVE",
"224 156 OFFCURVE",
"301 156 CURVE SMOOTH",
"378 156 OFFCURVE",
"401 212 OFFCURVE",
"401 260 CURVE SMOOTH",
"401 308 OFFCURVE",
"378 373 OFFCURVE",
"301 373 CURVE SMOOTH"
);
},
{
closed = 1;
nodes = (
"148 -8 OFFCURVE",
"27 87 OFFCURVE",
"27 262 CURVE SMOOTH",
"27 439 OFFCURVE",
"151 538 OFFCURVE",
"301 538 CURVE SMOOTH",
"454 538 OFFCURVE",
"574 436 OFFCURVE",
"574 259 CURVE SMOOTH",
"574 86 OFFCURVE",
"459 -8 OFFCURVE",
"304 -8 CURVE SMOOTH"
);
}
);
width = 601;
}
);
leftKerningGroup = _kern9;
rightKerningGroup = _kern10;
unicode = 043E;
},
{
glyphname = uni0441;
layers = (
{
layerId = "D8C8E711-746D-4FC3-8EF0-1339555BCA12";
paths = (
{
closed = 1;
nodes = (
"335 153 OFFCURVE",
"363 175 OFFCURVE",
"370 211 CURVE",
"546 211 LINE",
"541 67 OFFCURVE",
"429 -8 OFFCURVE",
"290 -8 CURVE SMOOTH",
"130 -8 OFFCURVE",
"27 91 OFFCURVE",
"27 262 CURVE SMOOTH",
"27 437 OFFCURVE",
"134 538 OFFCURVE",
"293 538 CURVE SMOOTH",
"435 538 OFFCURVE",
"535 458 OFFCURVE",
"540 317 CURVE",
"370 317 LINE",
"362 356 OFFCURVE",
"333 376 OFFCURVE",
"293 376 CURVE SMOOTH",
"219 376 OFFCURVE",
"202 309 OFFCURVE",
"202 263 CURVE SMOOTH",
"202 208 OFFCURVE",
"227 153 OFFCURVE",
"293 153 CURVE SMOOTH"
);
}
);
width = 568;
}
);
leftKerningGroup = _kern9;
rightKerningGroup = _kern10;
unicode = 0441;
},
{
glyphname = uni0218;
layers = (
{
layerId = "D8C8E711-746D-4FC3-8EF0-1339555BCA12";
paths = (
{
closed = 1;
nodes = (
"427 481 LINE",
"420 525 OFFCURVE",
"378 551 OFFCURVE",
"316 551 CURVE SMOOTH",
"268 551 OFFCURVE",
"229 535 OFFCURVE",
"229 503 CURVE SMOOTH",
"229 471 OFFCURVE",
"266 457 OFFCURVE",
"339 440 CURVE SMOOTH",
"404 425 LINE SMOOTH",
"521 398 OFFCURVE",
"618 368 OFFCURVE",
"618 221 CURVE SMOOTH",
"618 54 OFFCURVE",
"475 -6 OFFCURVE",
"333 -6 CURVE SMOOTH",
"177 -6 OFFCURVE",
"45 67 OFFCURVE",
"28 239 CURVE",
"210 239 LINE",
"223 182 OFFCURVE",
"278 160 OFFCURVE",
"345 160 CURVE SMOOTH",
"385 160 OFFCURVE",
"436 168 OFFCURVE",
"436 211 CURVE SMOOTH",
"436 241 OFFCURVE",
"410 254 OFFCURVE",
"367 263 CURVE SMOOTH",
"309 275 LINE SMOOTH",
"172 304 OFFCURVE",
"50 340 OFFCURVE",
"50 504 CURVE SMOOTH",
"50 506 LINE SMOOTH",
"50 667 OFFCURVE",
"200 717 OFFCURVE",
"340 717 CURVE SMOOTH",
"488 717 OFFCURVE",
"587 631 OFFCURVE",
"602 481 CURVE"
);
},
{
closed = 1;
nodes = (
"246 -240 LINE",
"270 -231 OFFCURVE",
"319 -196 OFFCURVE",
"327 -175 CURVE",
"292 -174 OFFCURVE",
"258 -150 OFFCURVE",
"258 -106 CURVE SMOOTH",
"257 -58 OFFCURVE",
"295 -32 OFFCURVE",
"339 -32 CURVE SMOOTH",
"395 -33 OFFCURVE",
"427 -75 OFFCURVE",
"425 -134 CURVE SMOOTH",
"423 -216 OFFCURVE",
"356 -272 OFFCURVE",
"285 -297 CURVE"
);
}
);
width = 647;
}
);
unicode = 0218;
},
{
glyphname = uni0219;
layers = (
{
layerId = "D8C8E711-746D-4FC3-8EF0-1339555BCA12";
paths = (
{
closed = 1;
nodes = (
"226 394 OFFCURVE",
"207 384 OFFCURVE",
"207 368 CURVE SMOOTH",
"207 359 OFFCURVE",
"213 348 OFFCURVE",
"238 341 CURVE SMOOTH",
"282 330 OFFCURVE",
"320 323 OFFCURVE",
"360 315 CURVE SMOOTH",
"425 302 OFFCURVE",
"500 273 OFFCURVE",
"500 170 CURVE SMOOTH",
"500 34 OFFCURVE",
"373 -5 OFFCURVE",
"271 -5 CURVE SMOOTH",
"167 -5 OFFCURVE",
"44 36 OFFCURVE",
"23 180 CURVE",
"202 180 LINE",
"210 153 OFFCURVE",
"239 136 OFFCURVE",
"276 136 CURVE SMOOTH",
"307 136 OFFCURVE",
"328 148 OFFCURVE",
"328 168 CURVE SMOOTH",
"328 195 OFFCURVE",
"291 197 OFFCURVE",
"244 207 CURVE SMOOTH",
"195 218 OFFCURVE",
"131 234 OFFCURVE",
"93 259 CURVE SMOOTH",
"54 286 OFFCURVE",
"38 327 OFFCURVE",
"38 374 CURVE SMOOTH",
"39 497 OFFCURVE",
"159 538 OFFCURVE",
"261 538 CURVE SMOOTH",
"373 538 OFFCURVE",
"471 487 OFFCURVE",
"487 356 CURVE",
"316 356 LINE",
"313 380 OFFCURVE",
"286 394 OFFCURVE",
"253 394 CURVE SMOOTH"
);
},
{
closed = 1;
nodes = (
"181 -240 LINE",
"204 -231 OFFCURVE",
"255 -196 OFFCURVE",
"263 -175 CURVE",
"227 -174 OFFCURVE",
"193 -149 OFFCURVE",
"193 -106 CURVE SMOOTH",
"193 -55 OFFCURVE",
"232 -30 OFFCURVE",
"275 -30 CURVE SMOOTH",
"331 -30 OFFCURVE",
"363 -74 OFFCURVE",
"363 -134 CURVE SMOOTH",
"363 -215 OFFCURVE",
"298 -271 OFFCURVE",
"220 -298 CURVE"
);
}
);
width = 524;
}
);
leftKerningGroup = _kern5;
rightKerningGroup = _kern6;
unicode = 0219;
},
{
glyphname = uni021A;
layers = (
{
layerId = "D8C8E711-746D-4FC3-8EF0-1339555BCA12";
paths = (
{
closed = 1;
nodes = (
"5 540 LINE",
"5 708 LINE",
"612 708 LINE",
"612 540 LINE",
"398 540 LINE",
"398 0 LINE",
"218 0 LINE",
"218 540 LINE"
);
},
{
closed = 1;
nodes = (
"215 -238 LINE",
"239 -229 OFFCURVE",
"288 -194 OFFCURVE",
"296 -173 CURVE",
"261 -172 OFFCURVE",
"227 -148 OFFCURVE",
"227 -105 CURVE SMOOTH",
"227 -54 OFFCURVE",
"267 -30 OFFCURVE",
"308 -30 CURVE SMOOTH",
"364 -31 OFFCURVE",
"394 -73 OFFCURVE",
"394 -132 CURVE SMOOTH",
"394 -214 OFFCURVE",
"325 -270 OFFCURVE",
"254 -295 CURVE"
);
}
);
width = 617;
}
);
leftKerningGroup = _kern28;
rightKerningGroup = _kern28;
unicode = 021A;
},
{
glyphname = uni021B;
layers = (
{
layerId = "D8C8E711-746D-4FC3-8EF0-1339555BCA12";
paths = (
{
closed = 1;
nodes = (
"259 369 LINE",
"259 207 LINE SMOOTH",
"259 182 OFFCURVE",
"261 159 OFFCURVE",
"303 159 CURVE SMOOTH",
"350 159 LINE",
"350 0 LINE",
"282 0 LINE SMOOTH",
"161 0 OFFCURVE",
"82 35 OFFCURVE",
"82 180 CURVE SMOOTH",
"82 369 LINE",
"9 369 LINE",
"9 527 LINE",
"82 527 LINE",
"82 658 LINE",
"259 658 LINE",
"259 527 LINE",
"356 527 LINE",
"356 369 LINE"
);
},
{
closed = 1;
nodes = (
"120 -241 LINE",
"145 -231 OFFCURVE",
"194 -197 OFFCURVE",
"202 -176 CURVE",
"167 -175 OFFCURVE",
"132 -150 OFFCURVE",
"132 -107 CURVE SMOOTH",
"132 -56 OFFCURVE",
"173 -31 OFFCURVE",
"214 -31 CURVE SMOOTH",
"271 -32 OFFCURVE",
"301 -75 OFFCURVE",
"301 -134 CURVE SMOOTH",
"301 -218 OFFCURVE",
"231 -274 OFFCURVE",
"160 -299 CURVE"
);
}
);
width = 375;
}
);
leftKerningGroup = _kern21;
rightKerningGroup = _kern21;
unicode = 021B;
},
{
glyphname = icircumflex;
layers = (
{
layerId = "D8C8E711-746D-4FC3-8EF0-1339555BCA12";
paths = (
{
closed = 1;
nodes = (
"276 0 LINE",
"100 0 LINE",
"100 527 LINE",
"276 527 LINE"
);
},
{
closed = 1;
nodes = (
"245 769 LINE",
"414 577 LINE",
"248 577 LINE",
"187 661 LINE",
"129 577 LINE",
"-37 577 LINE",
"129 769 LINE"
);
}
);
width = 377;
}
);
unicode = 00EE;
},
{
glyphname = question;
layers = (
{
layerId = "D8C8E711-746D-4FC3-8EF0-1339555BCA12";
paths = (
{
closed = 1;
nodes = (
"176 244 LINE",
"174 255 OFFCURVE",
"173 265 OFFCURVE",
"173 276 CURVE SMOOTH",
"173 348 OFFCURVE",
"222 391 OFFCURVE",
"262 423 CURVE SMOOTH",
"297 451 OFFCURVE",
"327 475 OFFCURVE",
"327 506 CURVE SMOOTH",
"327 532 OFFCURVE",
"307 551 OFFCURVE",
"263 551 CURVE SMOOTH",
"207 551 OFFCURVE",
"188 520 OFFCURVE",
"188 485 CURVE",
"17 485 LINE",
"17 510 LINE SMOOTH",
"17 662 OFFCURVE",
"145 717 OFFCURVE",
"265 717 CURVE SMOOTH",
"386 717 OFFCURVE",
"506 661 OFFCURVE",
"506 520 CURVE SMOOTH",
"506 442 OFFCURVE",
"459 400 OFFCURVE",
"396 342 CURVE SMOOTH",
"371 319 OFFCURVE",
"340 291 OFFCURVE",
"340 244 CURVE"
);
},
{
closed = 1;
nodes = (
"314 201 OFFCURVE",
"365 170 OFFCURVE",
"365 98 CURVE SMOOTH",
"365 24 OFFCURVE",
"314 -9 OFFCURVE",
"260 -9 CURVE SMOOTH",
"207 -9 OFFCURVE",
"154 24 OFFCURVE",
"154 98 CURVE SMOOTH",
"154 170 OFFCURVE",
"207 201 OFFCURVE",
"260 201 CURVE SMOOTH"
);
}
);
width = 541;
}
);
unicode = 003F;
},
{
glyphname = uni2116;
layers = (
{
layerId = "D8C8E711-746D-4FC3-8EF0-1339555BCA12";
paths = (
{
closed = 1;
nodes = (
"712 323 LINE",
"1051 323 LINE",
"1051 182 LINE",
"712 182 LINE"
);
},
{
closed = 1;
nodes = (
"206 708 LINE",
"449 340 LINE",
"449 708 LINE",
"629 708 LINE",
"629 0 LINE",
"466 0 LINE",
"217 366 LINE",
"217 0 LINE",
"39 0 LINE",
"39 708 LINE"
);
},
{
closed = 1;
nodes = (
"992 712 OFFCURVE",
"1069 640 OFFCURVE",
"1069 531 CURVE SMOOTH",
"1069 416 OFFCURVE",
"981 350 OFFCURVE",
"881 350 CURVE SMOOTH",
"780 350 OFFCURVE",
"694 416 OFFCURVE",
"694 531 CURVE SMOOTH",
"694 643 OFFCURVE",
"777 712 OFFCURVE",
"883 712 CURVE SMOOTH"
);
},
{
closed = 1;
nodes = (
"838 582 OFFCURVE",
"829 545 OFFCURVE",
"829 530 CURVE SMOOTH",
"829 516 OFFCURVE",
"838 481 OFFCURVE",
"881 481 CURVE SMOOTH",
"924 481 OFFCURVE",
"933 516 OFFCURVE",
"933 530 CURVE SMOOTH",
"933 545 OFFCURVE",
"924 582 OFFCURVE",
"881 582 CURVE SMOOTH"
);
}
);
width = 1108;
}
);
unicode = 2116;
},
{
glyphname = uni0401;
layers = (
{
layerId = "D8C8E711-746D-4FC3-8EF0-1339555BCA12";
paths = (
{
closed = 1;
nodes = (
"601 708 LINE",
"601 540 LINE",
"248 540 LINE",
"248 432 LINE",
"539 432 LINE",
"539 272 LINE",
"248 272 LINE",
"248 167 LINE",
"601 167 LINE",
"601 0 LINE",
"67 0 LINE",
"67 708 LINE"
);
},
{
closed = 1;
nodes = (
"261 952 OFFCURVE",
"306 918 OFFCURVE",
"306 857 CURVE SMOOTH",
"306 798 OFFCURVE",
"263 766 OFFCURVE",
"212 766 CURVE SMOOTH",
"163 766 OFFCURVE",
"118 798 OFFCURVE",
"118 857 CURVE SMOOTH",
"118 917 OFFCURVE",
"164 952 OFFCURVE",
"212 952 CURVE SMOOTH"
);
},
{
closed = 1;
nodes = (
"516 952 OFFCURVE",
"561 918 OFFCURVE",
"561 857 CURVE SMOOTH",
"561 798 OFFCURVE",
"518 766 OFFCURVE",
"467 766 CURVE SMOOTH",
"418 766 OFFCURVE",
"373 798 OFFCURVE",
"373 857 CURVE SMOOTH",
"373 917 OFFCURVE",
"419 952 OFFCURVE",
"467 952 CURVE SMOOTH"
);
}
);
width = 629;
}
);
unicode = 0401;
},
{
glyphname = asciitilde;
layers = (
{
layerId = "D8C8E711-746D-4FC3-8EF0-1339555BCA12";
paths = (
{
closed = 1;
nodes = (
"465 406 OFFCURVE",
"477 439 OFFCURVE",
"470 483 CURVE",
"623 483 LINE",
"626 463 OFFCURVE",
"626 452 OFFCURVE",
"626 452 CURVE",
"626 303 OFFCURVE",
"570 225 OFFCURVE",
"468 225 CURVE SMOOTH",
"395 225 OFFCURVE",
"347 265 OFFCURVE",
"314 293 CURVE SMOOTH",
"299 305 OFFCURVE",
"282 320 OFFCURVE",
"263 320 CURVE SMOOTH",
"236 320 OFFCURVE",
"223 292 OFFCURVE",
"223 261 CURVE SMOOTH",
"223 252 OFFCURVE",
"222 241 OFFCURVE",
"225 232 CURVE",
"70 232 LINE",
"67 252 OFFCURVE",
"67 260 OFFCURVE",
"67 271 CURVE SMOOTH",
"67 414 OFFCURVE",
"135 492 OFFCURVE",
"244 492 CURVE SMOOTH",
"313 492 OFFCURVE",
"347 461 OFFCURVE",
"378 435 CURVE",
"393 424 OFFCURVE",
"413 406 OFFCURVE",
"435 406 CURVE SMOOTH"
);
}
);
width = 693;
}
);
unicode = 007E;
},
{
glyphname = trademark;
layers = (
{
layerId = "D8C8E711-746D-4FC3-8EF0-1339555BCA12";
paths = (
{
closed = 1;
nodes = (
"341 578 LINE",
"255 578 LINE",
"255 371 LINE",
"125 371 LINE",
"125 578 LINE",
"39 578 LINE",
"39 708 LINE",
"341 708 LINE"
);
},
{
closed = 1;
nodes = (
"491 524 LINE",
"491 371 LINE",
"382 371 LINE",
"382 708 LINE",
"500 708 LINE",
"573 594 LINE",
"644 708 LINE",
"761 708 LINE",
"761 371 LINE",
"654 371 LINE",
"654 524 LINE",
"580 421 LINE",
"566 421 LINE"
);
}
);
width = 800;
}
);
unicode = 2122;
},
{
glyphname = registered;
layers = (
{
layerId = "D8C8E711-746D-4FC3-8EF0-1339555BCA12";
paths = (
{
closed = 1;
nodes = (
"374 736 OFFCURVE",
"464 659 OFFCURVE",
"464 531 CURVE SMOOTH",
"464 402 OFFCURVE",
"372 329 OFFCURVE",
"247 329 CURVE SMOOTH",
"125 329 OFFCURVE",
"32 399 OFFCURVE",
"32 530 CURVE SMOOTH",
"32 660 OFFCURVE",
"125 736 OFFCURVE",
"249 736 CURVE SMOOTH"
);
},
{
closed = 1;
nodes = (
"168 665 OFFCURVE",
"107 619 OFFCURVE",
"107 531 CURVE SMOOTH",
"107 444 OFFCURVE",
"168 400 OFFCURVE",
"248 400 CURVE SMOOTH",
"328 400 OFFCURVE",
"388 443 OFFCURVE",
"388 533 CURVE SMOOTH",
"388 619 OFFCURVE",
"333 665 OFFCURVE",
"250 665 CURVE SMOOTH"
);
},
{
closed = 1;
nodes = (
"350 437 LINE",
"279 437 LINE",
"245 498 LINE",
"235 498 LINE",
"235 437 LINE",
"171 437 LINE",
"171 639 LINE",
"257 639 LINE SMOOTH",
"304 639 OFFCURVE",
"341 617 OFFCURVE",
"341 571 CURVE SMOOTH",
"341 543 OFFCURVE",
"329 519 OFFCURVE",
"305 508 CURVE"
);
},
{
closed = 1;
nodes = (
"235 586 LINE",
"235 549 LINE",
"259 549 LINE SMOOTH",
"270 549 OFFCURVE",
"280 556 OFFCURVE",
"280 570 CURVE SMOOTH",
"280 583 OFFCURVE",
"271 586 OFFCURVE",
"256 586 CURVE SMOOTH"
);
}
);
width = 496;
}
);
unicode = 00AE;
},
{
glyphname = degree;
layers = (
{
layerId = "D8C8E711-746D-4FC3-8EF0-1339555BCA12";
paths = (
{
closed = 1;
nodes = (
"312 754 OFFCURVE",
"393 691 OFFCURVE",
"393 582 CURVE SMOOTH",
"393 473 OFFCURVE",
"312 416 OFFCURVE",
"216 416 CURVE SMOOTH",
"121 416 OFFCURVE",
"39 473 OFFCURVE",
"39 580 CURVE SMOOTH",
"39 689 OFFCURVE",
"123 754 OFFCURVE",
"218 754 CURVE SMOOTH"
);
},
{
closed = 1;
nodes = (
"189 633 OFFCURVE",
"166 612 OFFCURVE",
"166 583 CURVE SMOOTH",
"166 554 OFFCURVE",
"189 534 OFFCURVE",
"218 534 CURVE SMOOTH",
"249 534 OFFCURVE",
"271 554 OFFCURVE",
"271 583 CURVE SMOOTH",
"271 612 OFFCURVE",
"249 633 OFFCURVE",
"218 633 CURVE SMOOTH"
);
}
);
width = 432;
}
);
unicode = 00B0;
},
{
glyphname = bullet;
layers = (
{
layerId = "D8C8E711-746D-4FC3-8EF0-1339555BCA12";
paths = (
{
closed = 1;
nodes = (
"274 512 OFFCURVE",
"338 450 OFFCURVE",
"338 363 CURVE SMOOTH",
"338 274 OFFCURVE",
"275 215 OFFCURVE",
"189 215 CURVE SMOOTH",
"104 215 OFFCURVE",
"39 274 OFFCURVE",
"39 363 CURVE SMOOTH",
"39 454 OFFCURVE",
"103 512 OFFCURVE",
"187 512 CURVE SMOOTH"
);
}
);
width = 377;
}
);
unicode = 2022;
},
{
glyphname = uni27F5;
layers = (
{
layerId = "D8C8E711-746D-4FC3-8EF0-1339555BCA12";
paths = (
{
closed = 1;
nodes = (
"525 488 LINE",
"358 355 LINE",
"1365 355 LINE",
"1365 197 LINE",
"358 197 LINE",
"525 64 LINE",
"426 -59 LINE",
"39 277 LINE",
"425 611 LINE"
);
}
);
width = 1404;
}
);
unicode = 27F5;
},
{
glyphname = uni27F6;
layers = (
{
layerId = "D8C8E711-746D-4FC3-8EF0-1339555BCA12";
paths = (
{
closed = 1;
nodes = (
"979 611 LINE",
"1365 277 LINE",
"978 -59 LINE",
"879 64 LINE",
"1046 197 LINE",
"39 197 LINE",
"39 355 LINE",
"1046 355 LINE",
"879 488 LINE"
);
}
);
width = 1404;
}
);
unicode = 27F6;
},
{
glyphname = arrowup;
layers = (
{
layerId = "D8C8E711-746D-4FC3-8EF0-1339555BCA12";
paths = (
{
closed = 1;
nodes = (
"39 321 LINE",
"386 680 LINE",
"734 321 LINE",
"611 212 LINE",
"464 384 LINE",
"464 0 LINE",
"310 0 LINE",
"310 384 LINE",
"163 212 LINE"
);
}
);
width = 773;
}
);
unicode = 2191;
},
{
glyphname = arrowdown;
layers = (
{
layerId = "D8C8E711-746D-4FC3-8EF0-1339555BCA12";
paths = (
{
closed = 1;
nodes = (
"163 463 LINE",
"310 291 LINE",
"310 680 LINE",
"464 680 LINE",
"464 291 LINE",
"611 463 LINE",
"734 354 LINE",
"386 -5 LINE",
"39 354 LINE"
);
}
);
width = 773;
}
);
unicode = 2193;
},
{
glyphname = uni21BA;
layers = (
{
layerId = "D8C8E711-746D-4FC3-8EF0-1339555BCA12";
paths = (
{
closed = 1;
nodes = (
"904 590 LINE",
"746 604 LINE",
"820 546 OFFCURVE",
"871 432 OFFCURVE",
"871 334 CURVE SMOOTH",
"871 110 OFFCURVE",
"717 -50 OFFCURVE",
"458 -50 CURVE SMOOTH",
"198 -50 OFFCURVE",
"40 112 OFFCURVE",
"40 352 CURVE SMOOTH",
"40 493 OFFCURVE",
"94 617 OFFCURVE",
"211 696 CURVE",
"317 575 LINE",
"234 518 OFFCURVE",
"202 429 OFFCURVE",
"202 352 CURVE SMOOTH",
"202 230 OFFCURVE",
"284 107 OFFCURVE",
"459 107 CURVE SMOOTH",
"637 107 OFFCURVE",
"708 233 OFFCURVE",
"708 347 CURVE SMOOTH",
"708 377 OFFCURVE",
"703 441 OFFCURVE",
"636 519 CURVE",
"636 351 LINE",
"497 351 LINE",
"513 751 LINE",
"913 727 LINE"
);
}
);
width = 952;
}
);
unicode = 21BA;
},
{
glyphname = uni21BB;
layers = (
{
layerId = "D8C8E711-746D-4FC3-8EF0-1339555BCA12";
paths = (
{
closed = 1;
nodes = (
"39 727 LINE",
"439 751 LINE",
"455 351 LINE",
"316 351 LINE",
"316 519 LINE",
"247 442 OFFCURVE",
"244 379 OFFCURVE",
"244 354 CURVE SMOOTH",
"244 233 OFFCURVE",
"315 108 OFFCURVE",
"493 108 CURVE SMOOTH",
"668 108 OFFCURVE",
"750 230 OFFCURVE",
"750 352 CURVE SMOOTH",
"750 429 OFFCURVE",
"718 518 OFFCURVE",
"635 575 CURVE",
"741 696 LINE",
"858 617 OFFCURVE",
"912 493 OFFCURVE",
"912 352 CURVE SMOOTH",
"912 113 OFFCURVE",
"754 -51 OFFCURVE",
"494 -51 CURVE SMOOTH",
"235 -51 OFFCURVE",
"81 111 OFFCURVE",
"81 334 CURVE SMOOTH",
"81 432 OFFCURVE",
"132 546 OFFCURVE",
"206 604 CURVE",
"48 590 LINE"
);
}
);
width = 952;
}
);
unicode = 21BB;
},
{
glyphname = uni21B7;
layers = (
{
layerId = "D8C8E711-746D-4FC3-8EF0-1339555BCA12";
paths = (
{
closed = 1;
nodes = (
"946 258 LINE",
"999 109 LINE",
"617 -32 LINE",
"449 335 LINE",
"600 400 LINE",
"660 235 LINE",
"675 268 OFFCURVE",
"686 317 OFFCURVE",
"686 358 CURVE SMOOTH",
"686 468 OFFCURVE",
"605 574 OFFCURVE",
"446 574 CURVE SMOOTH",
"298 574 OFFCURVE",
"202 483 OFFCURVE",
"199 331 CURVE",
"39 331 LINE",
"44 596 OFFCURVE",
"220 733 OFFCURVE",
"449 733 CURVE SMOOTH",
"678 733 OFFCURVE",
"836 595 OFFCURVE",
"844 375 CURVE SMOOTH",
"847 310 OFFCURVE",
"830 245 OFFCURVE",
"798 197 CURVE"
);
}
);
width = 1038;
}
);
unicode = 21B7;
},
{
glyphname = uni21B6;
layers = (
{
layerId = "D8C8E711-746D-4FC3-8EF0-1339555BCA12";
paths = (
{
closed = 1;
nodes = (
"240 197 LINE",
"208 245 OFFCURVE",
"190 312 OFFCURVE",
"193 377 CURVE SMOOTH",
"201 597 OFFCURVE",
"360 733 OFFCURVE",
"589 733 CURVE SMOOTH",
"818 733 OFFCURVE",
"994 596 OFFCURVE",
"999 331 CURVE",
"839 331 LINE",
"834 483 OFFCURVE",
"742 574 OFFCURVE",
"593 574 CURVE SMOOTH",
"433 574 OFFCURVE",
"352 468 OFFCURVE",
"352 358 CURVE SMOOTH",
"352 317 OFFCURVE",
"363 277 OFFCURVE",
"378 244 CURVE",
"437 398 LINE",
"588 333 LINE",
"421 -32 LINE",
"39 109 LINE",
"92 258 LINE"
);
}
);
width = 1038;
}
);
unicode = 21B6;
},
{
glyphname = five;
layers = (
{
layerId = "D8C8E711-746D-4FC3-8EF0-1339555BCA12";
paths = (
{
closed = 1;
nodes = (
"61 291 LINE",
"61 708 LINE",
"555 708 LINE",
"555 543 LINE",
"233 543 LINE",
"233 452 LINE",
"277 479 OFFCURVE",
"335 483 OFFCURVE",
"373 481 CURVE SMOOTH",
"511 475 OFFCURVE",
"580 387 OFFCURVE",
"580 256 CURVE SMOOTH",
"580 83 OFFCURVE",
"460 -7 OFFCURVE",
"304 -7 CURVE SMOOTH",
"163 -7 OFFCURVE",
"61 67 OFFCURVE",
"42 233 CURVE",
"218 233 LINE",
"223 204 OFFCURVE",
"251 162 OFFCURVE",
"315 162 CURVE SMOOTH",
"376 162 OFFCURVE",
"397 203 OFFCURVE",
"397 241 CURVE SMOOTH",
"397 287 OFFCURVE",
"367 325 OFFCURVE",
"303 325 CURVE SMOOTH",
"267 325 OFFCURVE",
"236 312 OFFCURVE",
"204 291 CURVE"
);
}
);
width = 614;
}
);
unicode = 0035;
},
{
glyphname = six;
layers = (
{
layerId = "D8C8E711-746D-4FC3-8EF0-1339555BCA12";
paths = (
{
closed = 1;
nodes = (
"423 498 LINE",
"412 530 OFFCURVE",
"381 553 OFFCURVE",
"333 553 CURVE SMOOTH",
"241 553 OFFCURVE",
"199 467 OFFCURVE",
"199 392 CURVE",
"249 458 OFFCURVE",
"329 469 OFFCURVE",
"365 469 CURVE SMOOTH",
"509 469 OFFCURVE",
"590 383 OFFCURVE",
"590 242 CURVE SMOOTH",
"590 88 OFFCURVE",
"481 -8 OFFCURVE",
"325 -8 CURVE SMOOTH",
"120 -8 OFFCURVE",
"38 159 OFFCURVE",
"38 346 CURVE SMOOTH",
"38 542 OFFCURVE",
"133 717 OFFCURVE",
"341 717 CURVE SMOOTH",
"472 717 OFFCURVE",
"575 649 OFFCURVE",
"588 498 CURVE"
);
},
{
closed = 1;
nodes = (
"410 279 OFFCURVE",
"384 318 OFFCURVE",
"328 318 CURVE SMOOTH",
"271 318 OFFCURVE",
"238 278 OFFCURVE",
"238 237 CURVE SMOOTH",
"238 199 OFFCURVE",
"267 157 OFFCURVE",
"327 157 CURVE",
"386 158 OFFCURVE",
"410 198 OFFCURVE",
"410 238 CURVE SMOOTH"
);
}
);
width = 624;
}
);
unicode = 0036;
},
{
glyphname = dieresis;
layers = (
{
layerId = "D8C8E711-746D-4FC3-8EF0-1339555BCA12";
paths = (
{
closed = 1;
nodes = (
"240 733 OFFCURVE",
"285 699 OFFCURVE",
"285 638 CURVE SMOOTH",
"285 579 OFFCURVE",
"242 547 OFFCURVE",
"191 547 CURVE SMOOTH",
"142 547 OFFCURVE",
"97 579 OFFCURVE",
"97 638 CURVE SMOOTH",
"97 698 OFFCURVE",
"143 733 OFFCURVE",
"191 733 CURVE SMOOTH"
);
},
{
closed = 1;
nodes = (
"495 733 OFFCURVE",
"540 699 OFFCURVE",
"540 638 CURVE SMOOTH",
"540 579 OFFCURVE",
"497 547 OFFCURVE",
"446 547 CURVE SMOOTH",
"397 547 OFFCURVE",
"352 579 OFFCURVE",
"352 638 CURVE SMOOTH",
"352 698 OFFCURVE",
"398 733 OFFCURVE",
"446 733 CURVE SMOOTH"
);
}
);
width = 637;
}
);
unicode = 00A8;
},
{
glyphname = adieresis;
layers = (
{
layerId = "D8C8E711-746D-4FC3-8EF0-1339555BCA12";
paths = (
{
closed = 1;
nodes = (
"217 766 OFFCURVE",
"263 732 OFFCURVE",
"263 671 CURVE SMOOTH",
"263 611 OFFCURVE",
"219 579 OFFCURVE",
"168 579 CURVE SMOOTH",
"117 579 OFFCURVE",
"73 611 OFFCURVE",
"73 671 CURVE SMOOTH",
"73 731 OFFCURVE",
"118 766 OFFCURVE",
"168 766 CURVE SMOOTH"
);
},
{
closed = 1;
nodes = (
"472 766 OFFCURVE",
"516 732 OFFCURVE",
"516 672 CURVE SMOOTH",
"516 611 OFFCURVE",
"474 579 OFFCURVE",
"423 579 CURVE SMOOTH",
"373 579 OFFCURVE",
"326 611 OFFCURVE",
"326 671 CURVE SMOOTH",
"326 731 OFFCURVE",
"373 766 OFFCURVE",
"423 766 CURVE SMOOTH"
);
},
{
closed = 1;
nodes = (
"265 213 LINE SMOOTH",
"232 213 OFFCURVE",
"204 201 OFFCURVE",
"204 170 CURVE SMOOTH",
"204 142 OFFCURVE",
"229 127 OFFCURVE",
"261 127 CURVE SMOOTH",
"317 127 OFFCURVE",
"361 169 OFFCURVE",
"364 213 CURVE"
);
},
{
closed = 1;
nodes = (
"367 69 LINE",
"315 -10 OFFCURVE",
"232 -8 OFFCURVE",
"213 -8 CURVE SMOOTH",
"115 -8 OFFCURVE",
"29 44 OFFCURVE",
"29 153 CURVE SMOOTH",
"29 223 OFFCURVE",
"65 270 OFFCURVE",
"114 295 CURVE SMOOTH",
"175 326 OFFCURVE",
"253 322 OFFCURVE",
"338 322 CURVE SMOOTH",
"362 322 LINE",
"361 359 OFFCURVE",
"334 389 OFFCURVE",
"287 389 CURVE SMOOTH",
"252 389 OFFCURVE",
"219 373 OFFCURVE",
"215 350 CURVE",
"39 350 LINE",
"55 481 OFFCURVE",
"170 537 OFFCURVE",
"295 537 CURVE SMOOTH",
"450 537 OFFCURVE",
"530 450 OFFCURVE",
"530 283 CURVE SMOOTH",
"530 0 LINE",
"367 0 LINE"
);
}
);
width = 576;
}
);
leftKerningGroup = _kern27;
rightKerningGroup = _kern27;
unicode = 00E4;
},
{
glyphname = Adieresis;
layers = (
{
layerId = "D8C8E711-746D-4FC3-8EF0-1339555BCA12";
paths = (
{
closed = 1;
nodes = (
"189 0 LINE",
"-5 0 LINE",
"279 708 LINE",
"463 708 LINE",
"744 0 LINE",
"549 0 LINE",
"514 100 LINE",
"225 100 LINE"
);
},
{
closed = 1;
nodes = (
"457 263 LINE",
"371 506 LINE",
"282 263 LINE"
);
},
{
closed = 1;
nodes = (
"297 935 OFFCURVE",
"342 901 OFFCURVE",
"342 840 CURVE SMOOTH",
"342 781 OFFCURVE",
"299 749 OFFCURVE",
"248 749 CURVE SMOOTH",
"199 749 OFFCURVE",
"154 781 OFFCURVE",
"154 840 CURVE SMOOTH",
"154 900 OFFCURVE",
"200 935 OFFCURVE",
"248 935 CURVE SMOOTH"
);
},
{
closed = 1;
nodes = (
"552 935 OFFCURVE",
"597 901 OFFCURVE",
"597 840 CURVE SMOOTH",
"597 781 OFFCURVE",
"554 749 OFFCURVE",
"503 749 CURVE SMOOTH",
"454 749 OFFCURVE",
"409 781 OFFCURVE",
"409 840 CURVE SMOOTH",
"409 900 OFFCURVE",
"455 935 OFFCURVE",
"503 935 CURVE SMOOTH"
);
}
);
width = 739;
}
);
leftKerningGroup = _kern30;
rightKerningGroup = _kern30;
unicode = 00C4;
},
{
glyphname = cedilla;
layers = (
{
layerId = "D8C8E711-746D-4FC3-8EF0-1339555BCA12";
paths = (
{
closed = 1;
nodes = (
"360 52 LINE",
"339 -28 LINE",
"391 -31 OFFCURVE",
"441 -55 OFFCURVE",
"441 -136 CURVE SMOOTH",
"441 -234 OFFCURVE",
"356 -278 OFFCURVE",
"275 -278 CURVE SMOOTH",
"236 -278 OFFCURVE",
"216 -274 OFFCURVE",
"197 -269 CURVE",
"197 -167 LINE",
"273 -183 OFFCURVE",
"310 -170 OFFCURVE",
"310 -138 CURVE SMOOTH",
"310 -118 OFFCURVE",
"291 -107 OFFCURVE",
"261 -106 CURVE SMOOTH",
"236 -105 OFFCURVE",
"208 -111 OFFCURVE",
"199 -115 CURVE",
"248 52 LINE"
);
}
);
width = 622;
}
);
unicode = 00B8;
},
{
glyphname = ecircumflex;
layers = (
{
layerId = "D8C8E711-746D-4FC3-8EF0-1339555BCA12";
paths = (
{
closed = 1;
nodes = (
"335 140 OFFCURVE",
"365 159 OFFCURVE",
"372 178 CURVE",
"545 178 LINE",
"516 47 OFFCURVE",
"410 -8 OFFCURVE",
"292 -8 CURVE SMOOTH",
"130 -8 OFFCURVE",
"23 94 OFFCURVE",
"23 260 CURVE SMOOTH",
"23 426 OFFCURVE",
"131 538 OFFCURVE",
"294 538 CURVE SMOOTH",
"448 538 OFFCURVE",
"545 437 OFFCURVE",
"545 278 CURVE SMOOTH",
"545 255 OFFCURVE",
"543 236 OFFCURVE",
"538 213 CURVE",
"198 213 LINE",
"202 174 OFFCURVE",
"230 140 OFFCURVE",
"288 140 CURVE SMOOTH"
);
},
{
closed = 1;
nodes = (
"228 398 OFFCURVE",
"201 358 OFFCURVE",
"201 328 CURVE",
"379 328 LINE",
"379 358 OFFCURVE",
"355 398 OFFCURVE",
"291 398 CURVE SMOOTH"
);
},
{
closed = 1;
nodes = (
"348 769 LINE",
"517 577 LINE",
"351 577 LINE",
"290 661 LINE",
"232 577 LINE",
"66 577 LINE",
"232 769 LINE"
);
}
);
width = 570;
}
);
leftKerningGroup = _kern5;
rightKerningGroup = _kern6;
unicode = 00EA;
},
{
glyphname = dotlessi;
layers = (
{
layerId = "D8C8E711-746D-4FC3-8EF0-1339555BCA12";
paths = (
{
closed = 1;
nodes = (
"224 0 LINE",
"47 0 LINE",
"47 527 LINE",
"224 527 LINE"
);
}
);
width = 272;
}
);
unicode = 0131;
},
{
glyphname = udieresis;
layers = (
{
layerId = "D8C8E711-746D-4FC3-8EF0-1339555BCA12";
paths = (
{
closed = 1;
nodes = (
"215 766 OFFCURVE",
"261 732 OFFCURVE",
"261 671 CURVE SMOOTH",
"261 611 OFFCURVE",
"217 579 OFFCURVE",
"166 579 CURVE SMOOTH",
"115 579 OFFCURVE",
"71 611 OFFCURVE",
"71 671 CURVE SMOOTH",
"71 731 OFFCURVE",
"116 766 OFFCURVE",
"166 766 CURVE SMOOTH"
);
},
{
closed = 1;
nodes = (
"474 766 OFFCURVE",
"518 732 OFFCURVE",
"518 672 CURVE SMOOTH",
"518 611 OFFCURVE",
"476 579 OFFCURVE",
"425 579 CURVE SMOOTH",
"375 579 OFFCURVE",
"328 611 OFFCURVE",
"328 671 CURVE SMOOTH",
"328 731 OFFCURVE",
"375 766 OFFCURVE",
"425 766 CURVE SMOOTH"
);
},
{
closed = 1;
nodes = (
"366 153 OFFCURVE",
"369 207 OFFCURVE",
"369 248 CURVE SMOOTH",
"369 527 LINE",
"545 527 LINE",
"545 234 LINE SMOOTH",
"545 62 OFFCURVE",
"450 -8 OFFCURVE",
"299 -8 CURVE SMOOTH",
"137 -8 OFFCURVE",
"45 72 OFFCURVE",
"45 234 CURVE SMOOTH",
"45 527 LINE",
"222 527 LINE",
"222 248 LINE SMOOTH",
"222 196 OFFCURVE",
"241 153 OFFCURVE",
"300 153 CURVE SMOOTH"
);
}
);
width = 591;
}
);
unicode = 00FC;
},
{
glyphname = Udieresis;
layers = (
{
layerId = "D8C8E711-746D-4FC3-8EF0-1339555BCA12";
paths = (
{
closed = 1;
nodes = (
"294 933 OFFCURVE",
"339 899 OFFCURVE",
"339 838 CURVE SMOOTH",
"339 779 OFFCURVE",
"296 747 OFFCURVE",
"245 747 CURVE SMOOTH",
"196 747 OFFCURVE",
"151 779 OFFCURVE",
"151 838 CURVE SMOOTH",
"151 898 OFFCURVE",
"197 933 OFFCURVE",
"245 933 CURVE SMOOTH"
);
},
{
closed = 1;
nodes = (
"549 933 OFFCURVE",
"594 899 OFFCURVE",
"594 838 CURVE SMOOTH",
"594 779 OFFCURVE",
"551 747 OFFCURVE",
"500 747 CURVE SMOOTH",
"451 747 OFFCURVE",
"406 779 OFFCURVE",
"406 838 CURVE SMOOTH",
"406 898 OFFCURVE",
"452 933 OFFCURVE",
"500 933 CURVE SMOOTH"
);
},
{
closed = 1;
nodes = (
"162 -8 OFFCURVE",
"62 106 OFFCURVE",
"62 326 CURVE SMOOTH",
"62 708 LINE",
"244 708 LINE",
"244 315 LINE SMOOTH",
"244 238 OFFCURVE",
"273 161 OFFCURVE",
"377 161 CURVE SMOOTH",
"482 161 OFFCURVE",
"503 240 OFFCURVE",
"503 315 CURVE SMOOTH",
"503 708 LINE",
"685 708 LINE",
"685 326 LINE SMOOTH",
"685 107 OFFCURVE",
"588 -8 OFFCURVE",
"375 -8 CURVE SMOOTH"
);
}
);
width = 747;
}
);
leftKerningGroup = _kern1;
rightKerningGroup = _kern2;
unicode = 00DC;
},
{
glyphname = ccedilla;
layers = (
{
layerId = "D8C8E711-746D-4FC3-8EF0-1339555BCA12";
paths = (
{
closed = 1;
nodes = (
"332 153 OFFCURVE",
"360 175 OFFCURVE",
"367 211 CURVE",
"543 211 LINE",
"538 84 OFFCURVE",
"453 12 OFFCURVE",
"341 -4 CURVE",
"335 -28 LINE",
"387 -31 OFFCURVE",
"437 -56 OFFCURVE",
"437 -137 CURVE SMOOTH",
"437 -236 OFFCURVE",
"352 -281 OFFCURVE",
"270 -281 CURVE SMOOTH",
"230 -281 OFFCURVE",
"210 -277 OFFCURVE",
"191 -272 CURVE",
"191 -169 LINE",
"267 -185 OFFCURVE",
"305 -172 OFFCURVE",
"305 -141 CURVE SMOOTH",
"305 -93 OFFCURVE",
"213 -108 OFFCURVE",
"193 -116 CURVE",
"226 -2 LINE",
"99 21 OFFCURVE",
"24 115 OFFCURVE",
"24 262 CURVE SMOOTH",
"24 437 OFFCURVE",
"131 538 OFFCURVE",
"290 538 CURVE SMOOTH",
"432 538 OFFCURVE",
"532 458 OFFCURVE",
"537 317 CURVE",
"367 317 LINE",
"359 356 OFFCURVE",
"330 376 OFFCURVE",
"291 376 CURVE SMOOTH",
"218 376 OFFCURVE",
"199 309 OFFCURVE",
"199 262 CURVE SMOOTH",
"199 208 OFFCURVE",
"224 153 OFFCURVE",
"290 153 CURVE SMOOTH"
);
}
);
width = 565;
}
);
leftKerningGroup = _kern5;
rightKerningGroup = _kern6;
unicode = 00E7;
},
{
glyphname = uni0162;
layers = (
{
layerId = "D8C8E711-746D-4FC3-8EF0-1339555BCA12";
paths = (
{
closed = 1;
nodes = (
"5 540 LINE",
"5 708 LINE",
"607 708 LINE",
"607 540 LINE",
"396 540 LINE",
"396 0 LINE",
"362 0 LINE",
"355 -28 LINE",
"406 -31 OFFCURVE",
"456 -55 OFFCURVE",
"456 -136 CURVE SMOOTH",
"456 -234 OFFCURVE",
"371 -278 OFFCURVE",
"290 -278 CURVE SMOOTH",
"251 -278 OFFCURVE",
"231 -274 OFFCURVE",
"212 -269 CURVE",
"212 -167 LINE",
"288 -183 OFFCURVE",
"325 -170 OFFCURVE",
"325 -140 CURVE SMOOTH",
"325 -92 OFFCURVE",
"234 -107 OFFCURVE",
"214 -115 CURVE",
"247 0 LINE",
"216 0 LINE",
"216 540 LINE"
);
}
);
width = 612;
}
);
leftKerningGroup = _kern28;
rightKerningGroup = _kern28;
unicode = 0162;
},
{
glyphname = uni0163;
layers = (
{
layerId = "D8C8E711-746D-4FC3-8EF0-1339555BCA12";
paths = (
{
closed = 1;
nodes = (
"259 369 LINE",
"259 207 LINE SMOOTH",
"259 182 OFFCURVE",
"261 159 OFFCURVE",
"303 159 CURVE SMOOTH",
"350 159 LINE",
"350 0 LINE",
"304 0 LINE SMOOTH",
"289 0 OFFCURVE",
"276 0 OFFCURVE",
"263 1 CURVE",
"256 -28 LINE",
"306 -31 OFFCURVE",
"358 -56 OFFCURVE",
"358 -137 CURVE SMOOTH",
"358 -236 OFFCURVE",
"271 -281 OFFCURVE",
"190 -281 CURVE SMOOTH",
"151 -281 OFFCURVE",
"130 -277 OFFCURVE",
"111 -272 CURVE",
"111 -169 LINE",
"188 -185 OFFCURVE",
"225 -172 OFFCURVE",
"225 -141 CURVE SMOOTH",
"225 -93 OFFCURVE",
"134 -107 OFFCURVE",
"113 -116 CURVE",
"155 26 LINE",
"107 51 OFFCURVE",
"82 99 OFFCURVE",
"82 180 CURVE SMOOTH",
"82 369 LINE",
"9 369 LINE",
"9 527 LINE",
"82 527 LINE",
"82 658 LINE",
"259 658 LINE",
"259 527 LINE",
"356 527 LINE",
"356 369 LINE"
);
}
);
width = 377;
}
);
leftKerningGroup = _kern21;
rightKerningGroup = _kern21;
unicode = 0163;
},
{
glyphname = Ccedilla;
layers = (
{
layerId = "D8C8E711-746D-4FC3-8EF0-1339555BCA12";
paths = (
{
closed = 1;
nodes = (
"215 265 OFFCURVE",
"259 163 OFFCURVE",
"386 163 CURVE SMOOTH",
"461 163 OFFCURVE",
"509 199 OFFCURVE",
"524 263 CURVE",
"699 263 LINE",
"686 105 OFFCURVE",
"571 12 OFFCURVE",
"433 -4 CURVE",
"427 -28 LINE",
"478 -31 OFFCURVE",
"528 -55 OFFCURVE",
"528 -136 CURVE SMOOTH",
"528 -234 OFFCURVE",
"443 -278 OFFCURVE",
"362 -278 CURVE SMOOTH",
"323 -278 OFFCURVE",
"303 -274 OFFCURVE",
"284 -269 CURVE",
"284 -167 LINE",
"360 -183 OFFCURVE",
"397 -170 OFFCURVE",
"397 -140 CURVE SMOOTH",
"397 -92 OFFCURVE",
"306 -107 OFFCURVE",
"286 -115 CURVE",
"318 -4 LINE",
"136 20 OFFCURVE",
"28 151 OFFCURVE",
"28 350 CURVE SMOOTH",
"28 576 OFFCURVE",
"167 717 OFFCURVE",
"377 717 CURVE SMOOTH",
"543 717 OFFCURVE",
"675 628 OFFCURVE",
"691 445 CURVE",
"520 445 LINE",
"504 509 OFFCURVE",
"461 546 OFFCURVE",
"383 546 CURVE SMOOTH",
"257 546 OFFCURVE",
"215 449 OFFCURVE",
"215 358 CURVE SMOOTH"
);
}
);
width = 727;
}
);
leftKerningGroup = _kern3;
rightKerningGroup = _kern4;
unicode = 00C7;
},
{
glyphname = scedilla;
layers = (
{
layerId = "D8C8E711-746D-4FC3-8EF0-1339555BCA12";
paths = (
{
closed = 1;
nodes = (
"226 394 OFFCURVE",
"207 384 OFFCURVE",
"207 368 CURVE SMOOTH",
"207 359 OFFCURVE",
"213 348 OFFCURVE",
"238 341 CURVE SMOOTH",
"282 330 OFFCURVE",
"320 323 OFFCURVE",
"360 315 CURVE SMOOTH",
"425 302 OFFCURVE",
"500 273 OFFCURVE",
"500 170 CURVE SMOOTH",
"500 49 OFFCURVE",
"399 2 OFFCURVE",
"310 -6 CURVE",
"305 -28 LINE",
"357 -31 OFFCURVE",
"407 -56 OFFCURVE",
"407 -137 CURVE SMOOTH",
"407 -236 OFFCURVE",
"321 -281 OFFCURVE",
"239 -281 CURVE SMOOTH",
"200 -281 OFFCURVE",
"180 -277 OFFCURVE",
"161 -272 CURVE",
"161 -169 LINE",
"237 -185 OFFCURVE",
"275 -172 OFFCURVE",
"275 -141 CURVE SMOOTH",
"275 -93 OFFCURVE",
"182 -108 OFFCURVE",
"163 -116 CURVE",
"196 0 LINE",
"113 16 OFFCURVE",
"39 67 OFFCURVE",
"23 180 CURVE",
"202 180 LINE",
"210 153 OFFCURVE",
"239 136 OFFCURVE",
"276 136 CURVE SMOOTH",
"307 136 OFFCURVE",
"328 148 OFFCURVE",
"328 168 CURVE SMOOTH",
"328 195 OFFCURVE",
"291 197 OFFCURVE",
"244 207 CURVE SMOOTH",
"195 218 OFFCURVE",
"131 234 OFFCURVE",
"93 259 CURVE SMOOTH",
"54 286 OFFCURVE",
"37 327 OFFCURVE",
"38 374 CURVE SMOOTH",
"40 497 OFFCURVE",
"159 538 OFFCURVE",
"261 538 CURVE SMOOTH",
"373 538 OFFCURVE",
"471 487 OFFCURVE",
"487 356 CURVE",
"316 356 LINE",
"313 380 OFFCURVE",
"286 394 OFFCURVE",
"253 394 CURVE SMOOTH"
);
}
);
width = 524;
}
);
leftKerningGroup = _kern5;
rightKerningGroup = _kern6;
unicode = 015F;
},
{
glyphname = uni21A9;
layers = (
{
layerId = "D8C8E711-746D-4FC3-8EF0-1339555BCA12";
paths = (
{
closed = 1;
nodes = (
"165 518 LINE",
"165 676 LINE",
"811 676 LINE SMOOTH",
"1006 676 OFFCURVE",
"1152 532 OFFCURVE",
"1152 339 CURVE SMOOTH",
"1152 146 OFFCURVE",
"1005 0 OFFCURVE",
"811 0 CURVE SMOOTH",
"355 0 LINE",
"522 -135 LINE",
"426 -256 LINE",
"39 79 LINE",
"425 413 LINE",
"522 290 LINE",
"357 157 LINE",
"787 157 LINE SMOOTH",
"902 157 OFFCURVE",
"987 227 OFFCURVE",
"987 339 CURVE SMOOTH",
"987 452 OFFCURVE",
"899 518 OFFCURVE",
"787 518 CURVE SMOOTH"
);
}
);
width = 1191;
}
);
unicode = 21A9;
},
{
glyphname = uni2713;
layers = (
{
layerId = "D8C8E711-746D-4FC3-8EF0-1339555BCA12";
paths = (
{
closed = 1;
nodes = (
"403 230 LINE",
"937 827 LINE",
"1061 716 LINE",
"407 -18 LINE",
"39 372 LINE",
"157 488 LINE"
);
}
);
width = 1100;
}
);
unicode = 2713;
},
{
glyphname = divide;
layers = (
{
layerId = "D8C8E711-746D-4FC3-8EF0-1339555BCA12";
paths = (
{
closed = 1;
nodes = (
"39 284 LINE",
"39 438 LINE",
"529 438 LINE",
"529 284 LINE"
);
},
{
closed = 1;
nodes = (
"339 677 OFFCURVE",
"387 638 OFFCURVE",
"387 569 CURVE SMOOTH",
"387 501 OFFCURVE",
"338 465 OFFCURVE",
"282 465 CURVE SMOOTH",
"226 465 OFFCURVE",
"176 500 OFFCURVE",
"176 568 CURVE SMOOTH",
"176 637 OFFCURVE",
"230 677 OFFCURVE",
"284 677 CURVE SMOOTH"
);
},
{
closed = 1;
nodes = (
"339 256 OFFCURVE",
"387 217 OFFCURVE",
"387 148 CURVE SMOOTH",
"387 80 OFFCURVE",
"338 44 OFFCURVE",
"282 44 CURVE SMOOTH",
"226 44 OFFCURVE",
"176 79 OFFCURVE",
"176 147 CURVE SMOOTH",
"176 216 OFFCURVE",
"230 256 OFFCURVE",
"284 256 CURVE SMOOTH"
);
}
);
width = 568;
}
);
unicode = 00F7;
},
{
glyphname = multiply;
layers = (
{
layerId = "D8C8E711-746D-4FC3-8EF0-1339555BCA12";
paths = (
{
closed = 1;
nodes = (
"318 257 LINE",
"160 96 LINE",
"50 206 LINE",
"208 361 LINE",
"50 515 LINE",
"161 622 LINE",
"318 466 LINE",
"471 622 LINE",
"584 516 LINE",
"425 361 LINE",
"585 207 LINE",
"474 96 LINE"
);
}
);
width = 635;
}
);
unicode = 00D7;
},
{
glyphname = yen;
layers = (
{
layerId = "D8C8E711-746D-4FC3-8EF0-1339555BCA12";
paths = (
{
closed = 1;
nodes = (
"544 708 LINE",
"753 708 LINE",
"542 375 LINE",
"632 375 LINE",
"632 241 LINE",
"477 241 LINE",
"477 208 LINE",
"632 208 LINE",
"632 77 LINE",
"477 77 LINE",
"477 0 LINE",
"297 0 LINE",
"297 77 LINE",
"142 77 LINE",
"142 208 LINE",
"297 208 LINE",
"297 241 LINE",
"142 241 LINE",
"142 375 LINE",
"231 375 LINE",
"229 375 LINE",
"19 708 LINE",
"228 708 LINE",
"388 425 LINE"
);
}
);
width = 772;
}
);
unicode = 00A5;
},
{
glyphname = uni20BD;
layers = (
{
layerId = "D8C8E711-746D-4FC3-8EF0-1339555BCA12";
paths = (
{
closed = 1;
nodes = (
"377 708 LINE SMOOTH",
"529 708 OFFCURVE",
"664 658 OFFCURVE",
"664 480 CURVE SMOOTH",
"664 311 OFFCURVE",
"541 254 OFFCURVE",
"402 254 CURVE SMOOTH",
"301 254 LINE",
"301 208 LINE",
"503 208 LINE",
"503 72 LINE",
"301 72 LINE",
"301 0 LINE",
"119 0 LINE",
"119 72 LINE",
"39 72 LINE",
"39 208 LINE",
"119 208 LINE",
"119 254 LINE",
"39 254 LINE",
"39 398 LINE",
"119 398 LINE",
"119 708 LINE"
);
},
{
closed = 1;
nodes = (
"376 398 LINE SMOOTH",
"443 398 OFFCURVE",
"485 419 OFFCURVE",
"485 472 CURVE SMOOTH",
"485 521 OFFCURVE",
"448 540 OFFCURVE",
"379 540 CURVE SMOOTH",
"301 540 LINE",
"301 398 LINE"
);
}
);
width = 693;
}
);
unicode = 20BD;
},
{
glyphname = uni20B4;
layers = (
{
layerId = "D8C8E711-746D-4FC3-8EF0-1339555BCA12";
paths = (
{
closed = 1;
nodes = (
"427 718 OFFCURVE",
"565 682 OFFCURVE",
"565 545 CURVE SMOOTH",
"565 522 OFFCURVE",
"561 497 OFFCURVE",
"552 480 CURVE",
"592 480 LINE",
"592 370 LINE",
"465 370 LINE",
"430 347 OFFCURVE",
"421 342 OFFCURVE",
"412 337 CURVE",
"592 337 LINE",
"592 229 LINE",
"255 229 LINE",
"243 221 OFFCURVE",
"238 209 OFFCURVE",
"238 198 CURVE SMOOTH",
"238 174 OFFCURVE",
"264 157 OFFCURVE",
"312 157 CURVE SMOOTH",
"364 157 OFFCURVE",
"384 177 OFFCURVE",
"393 201 CURVE",
"566 201 LINE",
"563 41 OFFCURVE",
"433 -7 OFFCURVE",
"301 -7 CURVE SMOOTH",
"203 -7 OFFCURVE",
"63 31 OFFCURVE",
"63 164 CURVE SMOOTH",
"63 192 OFFCURVE",
"69 214 OFFCURVE",
"76 229 CURVE",
"27 229 LINE",
"27 337 LINE",
"169 337 LINE",
"182 345 OFFCURVE",
"213 367 OFFCURVE",
"218 370 CURVE",
"27 370 LINE",
"27 479 LINE",
"365 479 LINE",
"384 490 OFFCURVE",
"389 503 OFFCURVE",
"389 514 CURVE SMOOTH",
"389 537 OFFCURVE",
"364 554 OFFCURVE",
"318 554 CURVE SMOOTH",
"273 554 OFFCURVE",
"246 538 OFFCURVE",
"238 506 CURVE",
"63 506 LINE",
"68 674 OFFCURVE",
"211 718 OFFCURVE",
"324 718 CURVE SMOOTH"
);
}
);
width = 619;
}
);
unicode = 20B4;
},
{
glyphname = sterling;
layers = (
{
layerId = "D8C8E711-746D-4FC3-8EF0-1339555BCA12";
paths = (
{
closed = 1;
nodes = (
"298 418 LINE",
"504 418 LINE",
"504 260 LINE",
"298 260 LINE",
"298 167 LINE",
"594 167 LINE",
"594 0 LINE",
"40 0 LINE",
"40 167 LINE",
"121 167 LINE",
"121 260 LINE",
"39 260 LINE",
"39 418 LINE",
"121 418 LINE",
"121 498 LINE SMOOTH",
"121 651 OFFCURVE",
"236 717 OFFCURVE",
"365 717 CURVE SMOOTH",
"493 717 OFFCURVE",
"580 652 OFFCURVE",
"585 494 CURVE",
"422 494 LINE",
"422 526 OFFCURVE",
"416 567 OFFCURVE",
"364 567 CURVE SMOOTH",
"313 567 OFFCURVE",
"298 528 OFFCURVE",
"298 503 CURVE SMOOTH"
);
}
);
width = 633;
}
);
unicode = 00A3;
},
{
glyphname = Scedilla;
layers = (
{
layerId = "D8C8E711-746D-4FC3-8EF0-1339555BCA12";
paths = (
{
closed = 1;
nodes = (
"427 481 LINE",
"420 525 OFFCURVE",
"378 551 OFFCURVE",
"316 551 CURVE SMOOTH",
"268 551 OFFCURVE",
"229 535 OFFCURVE",
"229 503 CURVE SMOOTH",
"229 471 OFFCURVE",
"267 460 OFFCURVE",
"339 441 CURVE SMOOTH",
"404 425 LINE SMOOTH",
"520 395 OFFCURVE",
"618 365 OFFCURVE",
"618 221 CURVE SMOOTH",
"618 72 OFFCURVE",
"502 5 OFFCURVE",
"378 -6 CURVE",
"373 -28 LINE",
"424 -31 OFFCURVE",
"474 -55 OFFCURVE",
"474 -136 CURVE SMOOTH",
"474 -234 OFFCURVE",
"389 -278 OFFCURVE",
"308 -278 CURVE SMOOTH",
"269 -278 OFFCURVE",
"249 -274 OFFCURVE",
"230 -269 CURVE",
"230 -167 LINE",
"306 -183 OFFCURVE",
"343 -170 OFFCURVE",
"343 -140 CURVE SMOOTH",
"343 -92 OFFCURVE",
"252 -107 OFFCURVE",
"232 -115 CURVE",
"265 -3 LINE",
"133 18 OFFCURVE",
"41 100 OFFCURVE",
"28 239 CURVE",
"210 239 LINE",
"223 182 OFFCURVE",
"278 160 OFFCURVE",
"345 160 CURVE SMOOTH",
"385 160 OFFCURVE",
"436 168 OFFCURVE",
"436 211 CURVE SMOOTH",
"436 241 OFFCURVE",
"410 254 OFFCURVE",
"367 263 CURVE SMOOTH",
"309 275 LINE SMOOTH",
"172 304 OFFCURVE",
"50 340 OFFCURVE",
"50 504 CURVE SMOOTH",
"50 506 LINE",
"60 667 OFFCURVE",
"200 717 OFFCURVE",
"340 717 CURVE SMOOTH",
"488 717 OFFCURVE",
"587 631 OFFCURVE",
"602 481 CURVE"
);
}
);
width = 647;
}
);
leftKerningGroup = _kern3;
rightKerningGroup = _kern4;
unicode = 015E;
},
{
glyphname = t_alt;
layers = (
{
layerId = "D8C8E711-746D-4FC3-8EF0-1339555BCA12";
paths = (
{
closed = 1;
nodes = (
"259 369 LINE",
"259 210 LINE SMOOTH",
"259 185 OFFCURVE",
"264 159 OFFCURVE",
"306 159 CURVE SMOOTH",
"350 159 LINE",
"350 0 LINE",
"304 0 LINE SMOOTH",
"164 0 OFFCURVE",
"82 35 OFFCURVE",
"82 180 CURVE SMOOTH",
"82 369 LINE",
"9 369 LINE",
"9 527 LINE",
"86 527 LINE",
"113 658 LINE",
"259 658 LINE",
"259 527 LINE",
"356 527 LINE",
"356 369 LINE"
);
}
);
width = 375;
}
);
leftKerningGroup = _kern21;
rightKerningGroup = _kern21;
},
{
glyphname = alt_1;
layers = (
{
layerId = "D8C8E711-746D-4FC3-8EF0-1339555BCA12";
paths = (
{
closed = 1;
nodes = (
"192 163 LINE",
"192 482 LINE",
"59 482 LINE",
"59 623 LINE",
"140 623 OFFCURVE",
"212 640 OFFCURVE",
"241 701 CURVE",
"373 701 LINE",
"373 163 LINE",
"523 163 LINE",
"523 0 LINE",
"27 0 LINE",
"27 163 LINE"
);
}
);
width = 522;
}
);
},
{
glyphname = colon.uc;
layers = (
{
layerId = "D8C8E711-746D-4FC3-8EF0-1339555BCA12";
paths = (
{
closed = 1;
nodes = (
"210 607 OFFCURVE",
"258 568 OFFCURVE",
"258 499 CURVE SMOOTH",
"258 431 OFFCURVE",
"209 395 OFFCURVE",
"153 395 CURVE SMOOTH",
"97 395 OFFCURVE",
"47 430 OFFCURVE",
"47 498 CURVE SMOOTH",
"47 567 OFFCURVE",
"101 607 OFFCURVE",
"155 607 CURVE SMOOTH"
);
},
{
closed = 1;
nodes = (
"210 279 OFFCURVE",
"258 240 OFFCURVE",
"258 171 CURVE SMOOTH",
"258 103 OFFCURVE",
"209 67 OFFCURVE",
"153 67 CURVE SMOOTH",
"97 67 OFFCURVE",
"47 102 OFFCURVE",
"47 170 CURVE SMOOTH",
"47 239 OFFCURVE",
"101 279 OFFCURVE",
"155 279 CURVE SMOOTH"
);
}
);
width = 305;
}
);
},
{
glyphname = t2.alt;
layers = (
{
layerId = "D8C8E711-746D-4FC3-8EF0-1339555BCA12";
paths = (
{
closed = 1;
nodes = (
"362 160 OFFCURVE",
"383 172 OFFCURVE",
"396 183 CURVE",
"444 44 LINE",
"397 5 OFFCURVE",
"323 -7 OFFCURVE",
"274 -7 CURVE SMOOTH",
"150 -7 OFFCURVE",
"83 69 OFFCURVE",
"83 188 CURVE SMOOTH",
"83 369 LINE",
"9 369 LINE",
"9 527 LINE",
"83 527 LINE",
"83 659 LINE",
"260 659 LINE",
"260 527 LINE",
"418 527 LINE",
"418 369 LINE",
"260 369 LINE",
"260 229 LINE SMOOTH",
"260 185 OFFCURVE",
"282 160 OFFCURVE",
"329 160 CURVE SMOOTH"
);
}
);
width = 439;
}
);
},
{
glyphname = hyphen.uc;
layers = (
{
layerId = "D8C8E711-746D-4FC3-8EF0-1339555BCA12";
paths = (
{
closed = 1;
nodes = (
"412 279 LINE",
"54 279 LINE",
"54 436 LINE",
"412 436 LINE"
);
}
);
width = 466;
}
);
},
{
glyphname = uni00AD.uc;
layers = (
{
layerId = "D8C8E711-746D-4FC3-8EF0-1339555BCA12";
paths = (
{
closed = 1;
nodes = (
"412 279 LINE",
"54 279 LINE",
"54 436 LINE",
"412 436 LINE"
);
}
);
width = 466;
}
);
},
{
glyphname = endash.uc;
layers = (
{
layerId = "D8C8E711-746D-4FC3-8EF0-1339555BCA12";
paths = (
{
closed = 1;
nodes = (
"54 279 LINE",
"54 436 LINE",
"576 436 LINE",
"576 279 LINE"
);
}
);
width = 630;
}
);
},
{
glyphname = emdash.uc;
layers = (
{
layerId = "D8C8E711-746D-4FC3-8EF0-1339555BCA12";
paths = (
{
closed = 1;
nodes = (
"54 279 LINE",
"54 436 LINE",
"792 436 LINE",
"792 279 LINE"
);
}
);
width = 846;
}
);
},
{
glyphname = uni2117;
layers = (
{
layerId = "D8C8E711-746D-4FC3-8EF0-1339555BCA12";
paths = (
{
closed = 1;
nodes = (
"224 -81 OFFCURVE",
"39 63 OFFCURVE",
"39 317 CURVE SMOOTH",
"39 574 OFFCURVE",
"228 726 OFFCURVE",
"453 726 CURVE SMOOTH",
"681 726 OFFCURVE",
"876 569 OFFCURVE",
"876 313 CURVE SMOOTH",
"876 66 OFFCURVE",
"695 -81 OFFCURVE",
"458 -81 CURVE SMOOTH"
);
},
{
closed = 1;
nodes = (
"652 55 OFFCURVE",
"739 165 OFFCURVE",
"739 315 CURVE SMOOTH",
"739 471 OFFCURVE",
"646 588 OFFCURVE",
"463 588 CURVE SMOOTH",
"283 588 OFFCURVE",
"182 476 OFFCURVE",
"182 318 CURVE SMOOTH",
"182 164 OFFCURVE",
"279 55 OFFCURVE",
"465 55 CURVE SMOOTH"
);
},
{
closed = 1;
nodes = (
"441 97 LINE",
"318 97 LINE",
"318 539 LINE",
"490 539 LINE SMOOTH",
"589 539 OFFCURVE",
"671 504 OFFCURVE",
"671 380 CURVE SMOOTH",
"671 269 OFFCURVE",
"591 217 OFFCURVE",
"494 217 CURVE",
"441 218 LINE"
);
},
{
closed = 1;
nodes = (
"441 429 LINE",
"441 323 LINE",
"491 323 LINE SMOOTH",
"534 323 OFFCURVE",
"551 353 OFFCURVE",
"550 381 CURVE SMOOTH",
"549 406 OFFCURVE",
"533 429 OFFCURVE",
"489 429 CURVE SMOOTH"
);
}
);
width = 915;
}
);
unicode = 2117;
},
{
glyphname = f_alt;
layers = (
{
layerId = "D8C8E711-746D-4FC3-8EF0-1339555BCA12";
paths = (
{
closed = 1;
nodes = (
"386 527 LINE",
"386 369 LINE",
"261 369 LINE",
"261 0 LINE",
"84 0 LINE",
"84 369 LINE",
"9 369 LINE",
"9 527 LINE",
"84 527 LINE",
"84 556 LINE SMOOTH",
"84 691 OFFCURVE",
"185 749 OFFCURVE",
"295 749 CURVE SMOOTH",
"345 749 OFFCURVE",
"391 737 OFFCURVE",
"426 717 CURVE",
"383 580 LINE",
"374 587 OFFCURVE",
"350 597 OFFCURVE",
"323 597 CURVE SMOOTH",
"282 597 OFFCURVE",
"261 574 OFFCURVE",
"261 538 CURVE SMOOTH",
"261 527 LINE"
);
}
);
width = 383;
}
);
},
{
glyphname = g_alt;
layers = (
{
layerId = "D8C8E711-746D-4FC3-8EF0-1339555BCA12";
paths = (
{
closed = 1;
nodes = (
"588 122 LINE SMOOTH",
"588 26 OFFCURVE",
"578 -81 OFFCURVE",
"528 -147 CURVE SMOOTH",
"470 -223 OFFCURVE",
"378 -248 OFFCURVE",
"284 -248 CURVE SMOOTH",
"203 -248 OFFCURVE",
"117 -229 OFFCURVE",
"44 -182 CURVE",
"98 -39 LINE",
"135 -67 OFFCURVE",
"188 -83 OFFCURVE",
"264 -83 CURVE SMOOTH",
"372 -83 OFFCURVE",
"408 -27 OFFCURVE",
"411 55 CURVE",
"374 2 OFFCURVE",
"297 -7 OFFCURVE",
"256 -7 CURVE SMOOTH",
"101 -7 OFFCURVE",
"23 107 OFFCURVE",
"23 256 CURVE SMOOTH",
"23 418 OFFCURVE",
"115 537 OFFCURVE",
"277 537 CURVE SMOOTH",
"316 537 OFFCURVE",
"368 530 OFFCURVE",
"411 483 CURVE",
"427 527 LINE",
"588 527 LINE"
);
},
{
closed = 1;
nodes = (
"224 376 OFFCURVE",
"199 311 OFFCURVE",
"199 264 CURVE SMOOTH",
"199 209 OFFCURVE",
"232 153 OFFCURVE",
"308 153 CURVE SMOOTH",
"380 153 OFFCURVE",
"411 204 OFFCURVE",
"411 262 CURVE SMOOTH",
"411 319 OFFCURVE",
"381 376 OFFCURVE",
"306 376 CURVE SMOOTH"
);
}
);
width = 635;
}
);
},
{
glyphname = y;
layers = (
{
layerId = "D8C8E711-746D-4FC3-8EF0-1339555BCA12";
paths = (
{
closed = 1;
nodes = (
"372 3 OFFCURVE",
"314 -8 OFFCURVE",
"265 -8 CURVE SMOOTH",
"114 -8 OFFCURVE",
"54 99 OFFCURVE",
"54 239 CURVE SMOOTH",
"54 527 LINE",
"230 527 LINE",
"230 271 LINE SMOOTH",
"230 223 OFFCURVE",
"238 152 OFFCURVE",
"321 152 CURVE SMOOTH",
"405 152 OFFCURVE",
"405 225 OFFCURVE",
"405 278 CURVE SMOOTH",
"405 527 LINE",
"582 527 LINE",
"582 126 LINE SMOOTH",
"582 -92 OFFCURVE",
"529 -248 OFFCURVE",
"281 -248 CURVE SMOOTH",
"200 -248 OFFCURVE",
"120 -229 OFFCURVE",
"47 -182 CURVE",
"101 -39 LINE",
"137 -66 OFFCURVE",
"188 -83 OFFCURVE",
"256 -83 CURVE SMOOTH",
"357 -83 OFFCURVE",
"408 -45 OFFCURVE",
"407 42 CURVE"
);
}
);
width = 629;
}
);
unicode = 0079;
},
{
glyphname = a_alt;
layers = (
{
layerId = "D8C8E711-746D-4FC3-8EF0-1339555BCA12";
paths = (
{
closed = 1;
nodes = (
"204 143 OFFCURVE",
"226 131 OFFCURVE",
"260 131 CURVE SMOOTH",
"317 131 OFFCURVE",
"360 171 OFFCURVE",
"363 227 CURVE",
"331 224 OFFCURVE",
"296 222 OFFCURVE",
"264 216 CURVE SMOOTH",
"232 210 OFFCURVE",
"204 197 OFFCURVE",
"204 168 CURVE SMOOTH"
);
},
{
closed = 1;
nodes = (
"367 63 LINE",
"320 -2 OFFCURVE",
"250 -8 OFFCURVE",
"216 -8 CURVE SMOOTH",
"112 -8 OFFCURVE",
"29 48 OFFCURVE",
"29 155 CURVE SMOOTH",
"29 273 OFFCURVE",
"129 307 OFFCURVE",
"237 324 CURVE SMOOTH",
"272 330 OFFCURVE",
"315 333 OFFCURVE",
"363 336 CURVE",
"360 372 OFFCURVE",
"331 390 OFFCURVE",
"288 390 CURVE SMOOTH",
"251 390 OFFCURVE",
"226 377 OFFCURVE",
"215 350 CURVE",
"38 350 LINE",
"57 491 OFFCURVE",
"168 537 OFFCURVE",
"293 537 CURVE SMOOTH",
"455 537 OFFCURVE",
"530 460 OFFCURVE",
"530 283 CURVE SMOOTH",
"530 0 LINE",
"367 0 LINE"
);
}
);
width = 576;
}
);
leftKerningGroup = _kern27;
rightKerningGroup = _kern27;
},
{
glyphname = uni0490;
layers = (
{
layerId = "D8C8E711-746D-4FC3-8EF0-1339555BCA12";
paths = (
{
closed = 1;
nodes = (
"67 0 LINE",
"67 708 LINE",
"398 708 LINE",
"398 883 LINE",
"579 883 LINE",
"579 540 LINE",
"248 540 LINE",
"248 0 LINE"
);
}
);
width = 591;
}
);
leftKerningGroup = _kern23;
rightKerningGroup = _kern23;
unicode = 0490;
},
{
glyphname = uni0491;
layers = (
{
layerId = "D8C8E711-746D-4FC3-8EF0-1339555BCA12";
paths = (
{
closed = 1;
nodes = (
"459 676 LINE",
"459 369 LINE",
"224 369 LINE",
"224 0 LINE",
"47 0 LINE",
"47 527 LINE",
"286 527 LINE",
"286 676 LINE"
);
}
);
width = 467;
}
);
leftKerningGroup = _kern24;
rightKerningGroup = _kern24;
unicode = 0491;
},
{
glyphname = uni0404;
layers = (
{
layerId = "D8C8E711-746D-4FC3-8EF0-1339555BCA12";
paths = (
{
closed = 1;
nodes = (
"464 434 LINE",
"464 275 LINE",
"218 275 LINE",
"221 197 OFFCURVE",
"298 163 OFFCURVE",
"378 163 CURVE SMOOTH",
"441 163 OFFCURVE",
"501 184 OFFCURVE",
"523 257 CURVE",
"696 257 LINE",
"677 84 OFFCURVE",
"540 -8 OFFCURVE",
"366 -8 CURVE SMOOTH",
"144 -8 OFFCURVE",
"28 141 OFFCURVE",
"28 355 CURVE SMOOTH",
"28 575 OFFCURVE",
"152 717 OFFCURVE",
"374 717 CURVE SMOOTH",
"550 717 OFFCURVE",
"671 628 OFFCURVE",
"692 452 CURVE",
"517 452 LINE",
"499 526 OFFCURVE",
"435 549 OFFCURVE",
"370 549 CURVE SMOOTH",
"290 549 OFFCURVE",
"227 515 OFFCURVE",
"219 434 CURVE"
);
}
);
width = 724;
}
);
unicode = 0404;
},
{
glyphname = uni0454;
layers = (
{
layerId = "D8C8E711-746D-4FC3-8EF0-1339555BCA12";
paths = (
{
closed = 1;
nodes = (
"319 136 OFFCURVE",
"352 142 OFFCURVE",
"369 174 CURVE",
"540 174 LINE",
"511 51 OFFCURVE",
"416 -11 OFFCURVE",
"286 -11 CURVE SMOOTH",
"121 -11 OFFCURVE",
"23 88 OFFCURVE",
"23 257 CURVE SMOOTH",
"23 429 OFFCURVE",
"125 535 OFFCURVE",
"286 535 CURVE SMOOTH",
"417 535 OFFCURVE",
"516 465 OFFCURVE",
"540 342 CURVE",
"366 342 LINE",
"351 375 OFFCURVE",
"315 386 OFFCURVE",
"283 386 CURVE SMOOTH",
"240 386 OFFCURVE",
"200 367 OFFCURVE",
"197 330 CURVE",
"356 330 LINE",
"356 191 LINE",
"195 191 LINE",
"198 151 OFFCURVE",
"250 136 OFFCURVE",
"292 136 CURVE SMOOTH"
);
}
);
width = 560;
}
);
unicode = 0454;
},
{
glyphname = uni0406;
layers = (
{
layerId = "D8C8E711-746D-4FC3-8EF0-1339555BCA12";
paths = (
{
closed = 1;
nodes = (
"248 0 LINE",
"67 0 LINE",
"67 708 LINE",
"248 708 LINE"
);
}
);
width = 315;
}
);
unicode = 0406;
},
{
glyphname = uni0456;
layers = (
{
layerId = "D8C8E711-746D-4FC3-8EF0-1339555BCA12";
paths = (
{
closed = 1;
nodes = (
"235 0 LINE",
"59 0 LINE",
"59 527 LINE",
"235 527 LINE"
);
},
{
closed = 1;
nodes = (
"204 777 OFFCURVE",
"253 737 OFFCURVE",
"253 670 CURVE SMOOTH",
"253 603 OFFCURVE",
"203 567 OFFCURVE",
"146 567 CURVE SMOOTH",
"91 567 OFFCURVE",
"39 601 OFFCURVE",
"39 668 CURVE SMOOTH",
"39 737 OFFCURVE",
"95 777 OFFCURVE",
"149 777 CURVE SMOOTH"
);
}
);
width = 292;
}
);
unicode = 0456;
},
{
glyphname = uni0407;
layers = (
{
layerId = "D8C8E711-746D-4FC3-8EF0-1339555BCA12";
paths = (
{
closed = 1;
nodes = (
"252 0 LINE",
"71 0 LINE",
"71 708 LINE",
"252 708 LINE"
);
},
{
closed = 1;
nodes = (
"111 931 OFFCURVE",
"149 894 OFFCURVE",
"149 840 CURVE SMOOTH",
"149 786 OFFCURVE",
"112 751 OFFCURVE",
"57 751 CURVE SMOOTH",
"3 751 OFFCURVE",
"-33 785 OFFCURVE",
"-33 838 CURVE SMOOTH",
"-33 893 OFFCURVE",
"7 931 OFFCURVE",
"59 931 CURVE SMOOTH"
);
},
{
closed = 1;
nodes = (
"318 931 OFFCURVE",
"357 894 OFFCURVE",
"357 839 CURVE SMOOTH",
"357 786 OFFCURVE",
"321 751 OFFCURVE",
"266 751 CURVE SMOOTH",
"211 751 OFFCURVE",
"174 785 OFFCURVE",
"174 838 CURVE SMOOTH",
"174 893 OFFCURVE",
"215 931 OFFCURVE",
"266 931 CURVE SMOOTH"
);
}
);
width = 324;
}
);
unicode = 0407;
},
{
glyphname = uni0457;
layers = (
{
layerId = "D8C8E711-746D-4FC3-8EF0-1339555BCA12";
paths = (
{
closed = 1;
nodes = (
"250 0 LINE",
"74 0 LINE",
"74 527 LINE",
"250 527 LINE"
);
},
{
closed = 1;
nodes = (
"111 761 OFFCURVE",
"149 723 OFFCURVE",
"149 666 CURVE SMOOTH",
"149 611 OFFCURVE",
"113 576 OFFCURVE",
"60 576 CURVE SMOOTH",
"7 576 OFFCURVE",
"-30 611 OFFCURVE",
"-30 666 CURVE SMOOTH",
"-30 721 OFFCURVE",
"8 761 OFFCURVE",
"60 761 CURVE SMOOTH"
);
},
{
closed = 1;
nodes = (
"316 761 OFFCURVE",
"354 723 OFFCURVE",
"354 667 CURVE SMOOTH",
"354 611 OFFCURVE",
"318 576 OFFCURVE",
"264 576 CURVE SMOOTH",
"211 576 OFFCURVE",
"174 611 OFFCURVE",
"174 665 CURVE SMOOTH",
"174 721 OFFCURVE",
"213 761 OFFCURVE",
"265 761 CURVE SMOOTH"
);
}
);
width = 323;
}
);
unicode = 0457;
},
{
glyphname = map;
layers = (
{
layerId = "D8C8E711-746D-4FC3-8EF0-1339555BCA12";
paths = (
{
closed = 1;
nodes = (
"49 684 LINE SMOOTH",
"50 685 OFFCURVE",
"52 686 OFFCURVE",
"53 686 CURVE",
"92 686 LINE SMOOTH",
"94 686 OFFCURVE",
"95 686 OFFCURVE",
"96 687 CURVE SMOOTH",
"115 706 LINE SMOOTH",
"116 707 OFFCURVE",
"118 708 OFFCURVE",
"119 708 CURVE",
"215 708 LINE",
"216 708 OFFCURVE",
"218 707 OFFCURVE",
"219 706 CURVE SMOOTH",
"265 660 LINE SMOOTH",
"266 659 OFFCURVE",
"267 659 OFFCURVE",
"268 659 CURVE",
"301 659 LINE SMOOTH",
"304 659 OFFCURVE",
"306 657 OFFCURVE",
"306 654 CURVE SMOOTH",
"306 629 LINE SMOOTH",
"306 626 OFFCURVE",
"308 624 OFFCURVE",
"312 624 CURVE SMOOTH",
"318 624 LINE SMOOTH",
"320 624 OFFCURVE",
"321 624 OFFCURVE",
"322 625 CURVE",
"338 642 LINE",
"339 643 OFFCURVE",
"340 643 OFFCURVE",
"342 643 CURVE SMOOTH",
"374 643 LINE SMOOTH",
"377 643 OFFCURVE",
"379 641 OFFCURVE",
"379 638 CURVE SMOOTH",
"379 612 LINE",
"379 611 OFFCURVE",
"380 609 OFFCURVE",
"381 608 CURVE SMOOTH",
"401 588 LINE",
"403 585 OFFCURVE",
"405 585 OFFCURVE",
"408 588 CURVE SMOOTH",
"418 598 LINE SMOOTH",
"419 599 OFFCURVE",
"420 599 OFFCURVE",
"422 599 CURVE SMOOTH",
"428 599 LINE SMOOTH",
"432 599 OFFCURVE",
"434 597 OFFCURVE",
"434 594 CURVE SMOOTH",
"434 515 LINE",
"434 514 OFFCURVE",
"433 512 OFFCURVE",
"432 511 CURVE SMOOTH",
"426 505 LINE SMOOTH",
"423 502 OFFCURVE",
"423 500 OFFCURVE",
"426 497 CURVE SMOOTH",
"485 438 LINE SMOOTH",
"486 437 OFFCURVE",
"487 437 OFFCURVE",
"488 437 CURVE",
"500 437 LINE SMOOTH",
"503 437 OFFCURVE",
"505 435 OFFCURVE",
"505 432 CURVE SMOOTH",
"505 421 OFFCURVE",
"505 409 OFFCURVE",
"505 398 CURVE SMOOTH",
"505 386 OFFCURVE",
"505 373 OFFCURVE",
"505 361 CURVE",
"505 360 OFFCURVE",
"506 358 OFFCURVE",
"507 357 CURVE SMOOTH",
"529 335 LINE SMOOTH",
"530 334 OFFCURVE",
"532 333 OFFCURVE",
"533 333 CURVE",
"545 333 LINE SMOOTH",
"547 333 OFFCURVE",
"548 333 OFFCURVE",
"549 332 CURVE",
"565 315 LINE",
"566 314 OFFCURVE",
"567 312 OFFCURVE",
"567 311 CURVE",
"567 274 LINE",
"567 273 OFFCURVE",
"566 271 OFFCURVE",
"565 270 CURVE",
"559 265 LINE SMOOTH",
"556 262 OFFCURVE",
"556 260 OFFCURVE",
"559 257 CURVE SMOOTH",
"580 237 LINE SMOOTH",
"581 236 OFFCURVE",
"581 235 OFFCURVE",
"581 233 CURVE SMOOTH",
"581 230 OFFCURVE",
"579 228 OFFCURVE",
"576 228 CURVE SMOOTH",
"570 228 OFFCURVE",
"563 228 OFFCURVE",
"557 228 CURVE SMOOTH",
"552 228 OFFCURVE",
"548 228 OFFCURVE",
"543 228 CURVE",
"542 228 OFFCURVE",
"541 228 OFFCURVE",
"540 229 CURVE SMOOTH",
"531 238 LINE",
"529 241 OFFCURVE",
"527 241 OFFCURVE",
"524 238 CURVE SMOOTH",
"513 227 LINE SMOOTH",
"510 224 OFFCURVE",
"508 224 OFFCURVE",
"505 227 CURVE SMOOTH",
"490 242 LINE SMOOTH",
"487 245 OFFCURVE",
"485 245 OFFCURVE",
"482 242 CURVE SMOOTH",
"455 215 LINE SMOOTH",
"454 214 OFFCURVE",
"453 213 OFFCURVE",
"452 213 CURVE",
"443 213 LINE SMOOTH",
"440 213 OFFCURVE",
"438 215 OFFCURVE",
"438 219 CURVE SMOOTH",
"438 253 LINE SMOOTH",
"438 258 OFFCURVE",
"432 260 OFFCURVE",
"429 257 CURVE SMOOTH",
"407 235 LINE SMOOTH",
"406 234 OFFCURVE",
"406 233 OFFCURVE",
"406 232 CURVE",
"406 205 LINE SMOOTH",
"406 203 OFFCURVE",
"406 202 OFFCURVE",
"407 201 CURVE SMOOTH",
"417 191 LINE",
"420 189 OFFCURVE",
"420 187 OFFCURVE",
"417 184 CURVE SMOOTH",
"397 164 LINE SMOOTH",
"396 163 OFFCURVE",
"396 162 OFFCURVE",
"396 160 CURVE SMOOTH",
"396 135 LINE",
"396 134 OFFCURVE",
"395 132 OFFCURVE",
"394 131 CURVE SMOOTH",
"372 109 LINE SMOOTH",
"371 108 OFFCURVE",
"371 107 OFFCURVE",
"371 106 CURVE",
"371 94 LINE",
"371 93 OFFCURVE",
"370 91 OFFCURVE",
"369 90 CURVE SMOOTH",
"357 78 LINE SMOOTH",
"356 77 OFFCURVE",
"355 76 OFFCURVE",
"354 76 CURVE",
"345 76 LINE",
"344 76 OFFCURVE",
"343 76 OFFCURVE",
"342 75 CURVE SMOOTH",
"332 65 LINE SMOOTH",
"331 64 OFFCURVE",
"330 62 OFFCURVE",
"330 61 CURVE",
"330 23 LINE SMOOTH",
"330 19 OFFCURVE",
"328 17 OFFCURVE",
"325 17 CURVE SMOOTH",
"305 17 LINE SMOOTH",
"303 17 OFFCURVE",
"302 17 OFFCURVE",
"301 16 CURVE",
"287 1 LINE",
"286 0 OFFCURVE",
"286 0 OFFCURVE",
"283 0 CURVE SMOOTH",
"280 0 LINE SMOOTH",
"277 0 OFFCURVE",
"275 2 OFFCURVE",
"275 5 CURVE SMOOTH",
"275 28 LINE",
"275 29 OFFCURVE",
"274 31 OFFCURVE",
"273 32 CURVE SMOOTH",
"264 41 LINE",
"261 43 OFFCURVE",
"261 45 OFFCURVE",
"264 48 CURVE SMOOTH",
"276 60 LINE SMOOTH",
"279 63 OFFCURVE",
"279 65 OFFCURVE",
"276 68 CURVE SMOOTH",
"264 80 LINE SMOOTH",
"263 81 OFFCURVE",
"263 82 OFFCURVE",
"263 84 CURVE SMOOTH",
"263 169 LINE SMOOTH",
"263 171 OFFCURVE",
"263 172 OFFCURVE",
"264 173 CURVE",
"278 186 LINE",
"279 187 OFFCURVE",
"279 188 OFFCURVE",
"279 190 CURVE SMOOTH",
"279 309 LINE SMOOTH",
"279 311 OFFCURVE",
"279 312 OFFCURVE",
"278 313 CURVE",
"265 325 LINE",
"264 326 OFFCURVE",
"264 327 OFFCURVE",
"264 329 CURVE SMOOTH",
"264 352 LINE",
"264 353 OFFCURVE",
"263 354 OFFCURVE",
"262 355 CURVE SMOOTH",
"216 402 LINE SMOOTH",
"215 403 OFFCURVE",
"214 405 OFFCURVE",
"214 406 CURVE",
"214 427 LINE SMOOTH",
"214 429 OFFCURVE",
"214 430 OFFCURVE",
"213 431 CURVE SMOOTH",
"167 477 LINE SMOOTH",
"166 478 OFFCURVE",
"165 479 OFFCURVE",
"165 480 CURVE",
"165 506 LINE SMOOTH",
"165 508 OFFCURVE",
"165 509 OFFCURVE",
"164 510 CURVE SMOOTH",
"133 540 LINE SMOOTH",
"132 541 OFFCURVE",
"132 542 OFFCURVE",
"132 544 CURVE SMOOTH",
"132 573 LINE",
"132 574 OFFCURVE",
"131 576 OFFCURVE",
"130 577 CURVE SMOOTH",
"109 598 LINE SMOOTH",
"108 599 OFFCURVE",
"107 601 OFFCURVE",
"107 602 CURVE",
"107 628 LINE SMOOTH",
"107 630 OFFCURVE",
"107 631 OFFCURVE",
"106 632 CURVE SMOOTH",
"83 655 LINE SMOOTH",
"82 656 OFFCURVE",
"80 657 OFFCURVE",
"79 657 CURVE",
"37 657 LINE SMOOTH",
"34 657 OFFCURVE",
"32 659 OFFCURVE",
"32 662 CURVE SMOOTH",
"32 664 LINE SMOOTH",
"32 666 OFFCURVE",
"32 667 OFFCURVE",
"33 668 CURVE SMOOTH"
);
}
);
width = 653;
}
);
},
{
glyphname = logo;
layers = (
{
layerId = "D8C8E711-746D-4FC3-8EF0-1339555BCA12";
paths = (
{
closed = 1;
nodes = (
"780 499 OFFCURVE",
"776 495 OFFCURVE",
"769 493 CURVE",
"769 482 OFFCURVE",
"760 474 OFFCURVE",
"749 474 CURVE",
"747 464 OFFCURVE",
"741 459 OFFCURVE",
"731 459 CURVE SMOOTH",
"725 459 OFFCURVE",
"721 461 OFFCURVE",
"716 464 CURVE",
"704 477 LINE SMOOTH",
"700 481 OFFCURVE",
"698 486 OFFCURVE",
"698 491 CURVE SMOOTH",
"698 517 LINE",
"673 537 LINE",
"555 537 LINE",
"529 511 LINE",
"529 475 LINE",
"673 475 LINE SMOOTH",
"679 475 OFFCURVE",
"684 473 OFFCURVE",
"687 470 CURVE SMOOTH",
"712 444 LINE SMOOTH",
"716 440 OFFCURVE",
"718 435 OFFCURVE",
"718 430 CURVE SMOOTH",
"718 419 OFFCURVE",
"710 411 OFFCURVE",
"699 411 CURVE SMOOTH",
"661 411 LINE SMOOTH",
"656 411 OFFCURVE",
"651 413 OFFCURVE",
"647 417 CURVE SMOOTH",
"627 436 LINE",
"518 436 LINE",
"424 342 LINE",
"421 342 OFFCURVE",
"416 335 OFFCURVE",
"409 335 CURVE SMOOTH",
"401 335 OFFCURVE",
"396 342 OFFCURVE",
"393 342 CURVE",
"300 436 LINE",
"190 436 LINE",
"170 417 LINE",
"167 413 OFFCURVE",
"162 411 OFFCURVE",
"156 411 CURVE SMOOTH",
"119 411 LINE SMOOTH",
"108 411 OFFCURVE",
"98 419 OFFCURVE",
"98 430 CURVE SMOOTH",
"98 435 OFFCURVE",
"100 439 OFFCURVE",
"105 444 CURVE SMOOTH",
"130 470 LINE",
"135 473 OFFCURVE",
"139 475 OFFCURVE",
"144 475 CURVE SMOOTH",
"288 475 LINE",
"288 511 LINE",
"262 537 LINE",
"144 537 LINE",
"119 517 LINE",
"119 491 LINE SMOOTH",
"119 486 OFFCURVE",
"117 481 OFFCURVE",
"113 477 CURVE SMOOTH",
"101 464 LINE",
"96 461 OFFCURVE",
"92 459 OFFCURVE",
"86 459 CURVE SMOOTH",
"76 459 OFFCURVE",
"69 464 OFFCURVE",
"68 474 CURVE",
"57 474 OFFCURVE",
"49 482 OFFCURVE",
"49 493 CURVE",
"40 496 OFFCURVE",
"32 501 OFFCURVE",
"32 512 CURVE SMOOTH",
"32 517 OFFCURVE",
"34 521 OFFCURVE",
"39 526 CURVE SMOOTH",
"51 539 LINE SMOOTH",
"55 543 OFFCURVE",
"60 545 OFFCURVE",
"65 545 CURVE SMOOTH",
"92 545 LINE",
"92 545 OFFCURVE",
"93 546 OFFCURVE",
"94 547 CURVE",
"125 572 LINE SMOOTH",
"128 575 OFFCURVE",
"132 576 OFFCURVE",
"137 576 CURVE SMOOTH",
"176 576 LINE",
"179 585 OFFCURVE",
"185 589 OFFCURVE",
"194 589 CURVE SMOOTH",
"199 589 OFFCURVE",
"204 587 OFFCURVE",
"208 583 CURVE SMOOTH",
"215 576 LINE",
"270 576 LINE SMOOTH",
"275 576 OFFCURVE",
"279 574 OFFCURVE",
"284 571 CURVE",
"288 566 LINE",
"288 586 LINE",
"262 613 LINE",
"127 613 LINE",
"107 593 LINE",
"102 590 OFFCURVE",
"98 588 OFFCURVE",
"93 588 CURVE SMOOTH",
"81 588 LINE SMOOTH",
"76 588 OFFCURVE",
"72 590 OFFCURVE",
"67 593 CURVE",
"54 606 LINE",
"51 611 OFFCURVE",
"49 615 OFFCURVE",
"49 620 CURVE SMOOTH",
"49 625 OFFCURVE",
"50 629 OFFCURVE",
"53 632 CURVE",
"50 635 OFFCURVE",
"49 640 OFFCURVE",
"49 645 CURVE SMOOTH",
"49 650 OFFCURVE",
"51 654 OFFCURVE",
"54 659 CURVE",
"67 671 LINE SMOOTH",
"71 675 OFFCURVE",
"76 677 OFFCURVE",
"81 677 CURVE SMOOTH",
"93 677 LINE SMOOTH",
"98 677 OFFCURVE",
"103 675 OFFCURVE",
"107 671 CURVE SMOOTH",
"127 652 LINE",
"162 652 LINE",
"162 680 LINE",
"146 680 OFFCURVE",
"137 706 OFFCURVE",
"137 721 CURVE SMOOTH",
"137 758 LINE SMOOTH",
"137 769 OFFCURVE",
"145 778 OFFCURVE",
"156 778 CURVE SMOOTH",
"207 778 LINE SMOOTH",
"218 778 OFFCURVE",
"226 769 OFFCURVE",
"226 758 CURVE SMOOTH",
"226 721 LINE SMOOTH",
"226 706 OFFCURVE",
"217 680 OFFCURVE",
"201 680 CURVE",
"201 652 LINE",
"226 652 LINE",
"225 653 OFFCURVE",
"225 655 OFFCURVE",
"225 655 CURVE",
"225 668 OFFCURVE",
"233 677 OFFCURVE",
"245 677 CURVE SMOOTH",
"250 677 OFFCURVE",
"255 675 OFFCURVE",
"259 671 CURVE SMOOTH",
"295 635 LINE",
"298 638 OFFCURVE",
"303 639 OFFCURVE",
"308 639 CURVE SMOOTH",
"319 639 OFFCURVE",
"327 631 OFFCURVE",
"327 620 CURVE SMOOTH",
"327 464 LINE",
"389 402 LINE",
"389 473 LINE",
"357 505 LINE SMOOTH",
"353 509 OFFCURVE",
"351 514 OFFCURVE",
"351 519 CURVE SMOOTH",
"351 530 OFFCURVE",
"360 538 OFFCURVE",
"371 538 CURVE SMOOTH",
"376 538 OFFCURVE",
"380 536 OFFCURVE",
"385 533 CURVE",
"389 528 LINE",
"389 612 LINE",
"294 707 LINE",
"290 710 OFFCURVE",
"288 714 OFFCURVE",
"288 721 CURVE SMOOTH",
"288 739 LINE",
"282 739 LINE SMOOTH",
"271 739 OFFCURVE",
"263 747 OFFCURVE",
"263 758 CURVE SMOOTH",
"263 769 OFFCURVE",
"271 778 OFFCURVE",
"282 778 CURVE SMOOTH",
"288 778 LINE",
"288 784 LINE SMOOTH",
"288 795 OFFCURVE",
"297 803 OFFCURVE",
"308 803 CURVE SMOOTH",
"319 803 OFFCURVE",
"327 795 OFFCURVE",
"327 784 CURVE SMOOTH",
"327 778 LINE",
"333 778 LINE SMOOTH",
"344 778 OFFCURVE",
"352 769 OFFCURVE",
"352 758 CURVE SMOOTH",
"352 747 OFFCURVE",
"344 739 OFFCURVE",
"333 739 CURVE SMOOTH",
"327 739 LINE",
"327 729 LINE",
"389 667 LINE",
"389 787 LINE",
"388 788 OFFCURVE",
"387 789 OFFCURVE",
"387 790 CURVE",
"332 845 LINE SMOOTH",
"328 849 OFFCURVE",
"326 854 OFFCURVE",
"326 859 CURVE SMOOTH",
"326 864 OFFCURVE",
"328 869 OFFCURVE",
"332 873 CURVE SMOOTH",
"344 886 LINE SMOOTH",
"347 889 OFFCURVE",
"348 889 OFFCURVE",
"351 890 CURVE",
"351 910 LINE SMOOTH",
"351 915 OFFCURVE",
"353 920 OFFCURVE",
"357 924 CURVE SMOOTH",
"370 936 LINE",
"373 940 OFFCURVE",
"377 942 OFFCURVE",
"383 942 CURVE SMOOTH",
"387 942 OFFCURVE",
"391 941 OFFCURVE",
"394 939 CURVE",
"398 943 OFFCURVE",
"403 945 OFFCURVE",
"409 945 CURVE SMOOTH",
"414 945 OFFCURVE",
"419 943 OFFCURVE",
"423 939 CURVE",
"426 941 OFFCURVE",
"429 942 OFFCURVE",
"434 942 CURVE SMOOTH",
"439 942 OFFCURVE",
"444 940 OFFCURVE",
"448 936 CURVE SMOOTH",
"460 924 LINE SMOOTH",
"464 920 OFFCURVE",
"466 915 OFFCURVE",
"466 910 CURVE SMOOTH",
"466 890 LINE",
"469 889 OFFCURVE",
"471 887 OFFCURVE",
"473 886 CURVE",
"485 873 LINE SMOOTH",
"489 869 OFFCURVE",
"491 864 OFFCURVE",
"491 859 CURVE SMOOTH",
"491 854 OFFCURVE",
"489 849 OFFCURVE",
"485 845 CURVE SMOOTH",
"430 790 LINE",
"430 789 OFFCURVE",
"429 788 OFFCURVE",
"428 787 CURVE",
"428 667 LINE",
"490 729 LINE",
"490 739 LINE",
"484 739 LINE SMOOTH",
"473 739 OFFCURVE",
"465 747 OFFCURVE",
"465 758 CURVE SMOOTH",
"465 769 OFFCURVE",
"473 778 OFFCURVE",
"484 778 CURVE SMOOTH",
"490 778 LINE",
"490 784 LINE SMOOTH",
"490 795 OFFCURVE",
"498 803 OFFCURVE",
"509 803 CURVE SMOOTH",
"520 803 OFFCURVE",
"529 795 OFFCURVE",
"529 784 CURVE SMOOTH",
"529 778 LINE",
"535 778 LINE SMOOTH",
"546 778 OFFCURVE",
"554 769 OFFCURVE",
"554 758 CURVE SMOOTH",
"554 747 OFFCURVE",
"546 739 OFFCURVE",
"535 739 CURVE SMOOTH",
"529 739 LINE",
"529 721 LINE SMOOTH",
"529 714 OFFCURVE",
"527 710 OFFCURVE",
"523 707 CURVE",
"428 612 LINE",
"428 528 LINE",
"433 533 LINE SMOOTH",
"436 536 OFFCURVE",
"441 538 OFFCURVE",
"447 538 CURVE SMOOTH",
"461 538 OFFCURVE",
"466 528 OFFCURVE",
"466 519 CURVE SMOOTH",
"466 514 OFFCURVE",
"464 509 OFFCURVE",
"460 505 CURVE SMOOTH",
"428 473 LINE",
"428 402 LINE",
"490 464 LINE",
"490 620 LINE SMOOTH",
"490 631 OFFCURVE",
"498 639 OFFCURVE",
"509 639 CURVE SMOOTH",
"514 639 OFFCURVE",
"519 638 OFFCURVE",
"522 635 CURVE",
"559 671 LINE",
"562 675 OFFCURVE",
"566 677 OFFCURVE",
"573 677 CURVE SMOOTH",
"590 677 OFFCURVE",
"591 664 OFFCURVE",
"591 652 CURVE",
"616 652 LINE",
"616 680 LINE",
"600 680 OFFCURVE",
"591 706 OFFCURVE",
"591 721 CURVE SMOOTH",
"591 758 LINE SMOOTH",
"591 769 OFFCURVE",
"599 778 OFFCURVE",
"610 778 CURVE SMOOTH",
"661 778 LINE SMOOTH",
"672 778 OFFCURVE",
"680 769 OFFCURVE",
"680 758 CURVE SMOOTH",
"680 721 LINE SMOOTH",
"680 706 OFFCURVE",
"671 680 OFFCURVE",
"655 680 CURVE",
"655 652 LINE",
"691 652 LINE",
"710 671 LINE SMOOTH",
"714 675 OFFCURVE",
"719 677 OFFCURVE",
"724 677 CURVE SMOOTH",
"736 677 LINE SMOOTH",
"741 677 OFFCURVE",
"746 675 OFFCURVE",
"750 671 CURVE SMOOTH",
"763 659 LINE SMOOTH",
"767 655 OFFCURVE",
"769 650 OFFCURVE",
"769 645 CURVE SMOOTH",
"769 641 OFFCURVE",
"767 637 OFFCURVE",
"764 632 CURVE",
"767 629 OFFCURVE",
"769 625 OFFCURVE",
"769 620 CURVE SMOOTH",
"769 615 OFFCURVE",
"767 610 OFFCURVE",
"763 606 CURVE SMOOTH",
"750 593 LINE",
"745 590 OFFCURVE",
"741 588 OFFCURVE",
"736 588 CURVE SMOOTH",
"724 588 LINE SMOOTH",
"719 588 OFFCURVE",
"715 590 OFFCURVE",
"710 593 CURVE",
"691 613 LINE",
"555 613 LINE",
"529 586 LINE",
"529 566 LINE",
"533 571 LINE",
"538 574 OFFCURVE",
"542 576 OFFCURVE",
"547 576 CURVE SMOOTH",
"602 576 LINE",
"609 583 LINE SMOOTH",
"613 587 OFFCURVE",
"618 589 OFFCURVE",
"623 589 CURVE SMOOTH",
"632 589 OFFCURVE",
"638 585 OFFCURVE",
"641 576 CURVE",
"680 576 LINE SMOOTH",
"685 576 OFFCURVE",
"689 575 OFFCURVE",
"692 572 CURVE SMOOTH",
"723 547 LINE",
"724 546 OFFCURVE",
"725 546 OFFCURVE",
"726 545 CURVE",
"752 545 LINE SMOOTH",
"757 545 OFFCURVE",
"762 543 OFFCURVE",
"766 539 CURVE SMOOTH",
"778 526 LINE SMOOTH",
"782 522 OFFCURVE",
"784 517 OFFCURVE",
"784 512 CURVE SMOOTH",
"784 509 OFFCURVE",
"784 506 OFFCURVE",
"783 505 CURVE"
);
},
{
closed = 1;
nodes = (
"260 13 LINE SMOOTH",
"260 4 OFFCURVE",
"256 0 OFFCURVE",
"248 0 CURVE SMOOTH",
"187 0 LINE SMOOTH",
"179 0 OFFCURVE",
"175 4 OFFCURVE",
"175 13 CURVE SMOOTH",
"175 362 LINE SMOOTH",
"175 371 OFFCURVE",
"179 375 OFFCURVE",
"187 375 CURVE SMOOTH",
"248 375 LINE SMOOTH",
"256 375 OFFCURVE",
"263 372 OFFCURVE",
"269 366 CURVE SMOOTH",
"401 234 LINE SMOOTH",
"402 233 OFFCURVE",
"404 232 OFFCURVE",
"407 232 CURVE SMOOTH",
"410 232 OFFCURVE",
"413 233 OFFCURVE",
"414 234 CURVE SMOOTH",
"546 366 LINE SMOOTH",
"552 372 OFFCURVE",
"559 375 OFFCURVE",
"567 375 CURVE SMOOTH",
"628 375 LINE SMOOTH",
"636 375 OFFCURVE",
"640 371 OFFCURVE",
"640 362 CURVE SMOOTH",
"640 13 LINE SMOOTH",
"640 4 OFFCURVE",
"636 0 OFFCURVE",
"628 0 CURVE SMOOTH",
"567 0 LINE SMOOTH",
"558 0 OFFCURVE",
"554 4 OFFCURVE",
"554 13 CURVE SMOOTH",
"554 232 LINE SMOOTH",
"554 234 OFFCURVE",
"553 235 OFFCURVE",
"550 235 CURVE",
"549 235 OFFCURVE",
"549 235 OFFCURVE",
"548 234 CURVE SMOOTH",
"430 116 LINE",
"423 110 OFFCURVE",
"415 107 OFFCURVE",
"408 107 CURVE",
"407 107 LINE",
"400 107 OFFCURVE",
"392 110 OFFCURVE",
"385 116 CURVE",
"267 234 LINE SMOOTH",
"266 235 OFFCURVE",
"265 235 OFFCURVE",
"264 235 CURVE",
"261 235 OFFCURVE",
"260 234 OFFCURVE",
"260 232 CURVE SMOOTH"
);
},
{
closed = 1;
nodes = (
"1002 381 OFFCURVE",
"1086 308 OFFCURVE",
"1086 191 CURVE SMOOTH",
"1086 75 OFFCURVE",
"1002 -6 OFFCURVE",
"885 -6 CURVE SMOOTH",
"772 -6 OFFCURVE",
"688 68 OFFCURVE",
"688 183 CURVE SMOOTH",
"688 296 OFFCURVE",
"768 381 OFFCURVE",
"889 381 CURVE SMOOTH"
);
},
{
closed = 1;
nodes = (
"958 74 OFFCURVE",
"995 125 OFFCURVE",
"995 186 CURVE SMOOTH",
"995 256 OFFCURVE",
"948 301 OFFCURVE",
"886 301 CURVE SMOOTH",
"825 301 OFFCURVE",
"779 256 OFFCURVE",
"779 191 CURVE SMOOTH",
"779 123 OFFCURVE",
"827 74 OFFCURVE",
"892 74 CURVE SMOOTH"
);
},
{
closed = 1;
nodes = (
"1130 366 LINE SMOOTH",
"1130 372 OFFCURVE",
"1133 375 OFFCURVE",
"1139 375 CURVE SMOOTH",
"1206 375 LINE SMOOTH",
"1212 375 OFFCURVE",
"1215 372 OFFCURVE",
"1215 366 CURVE SMOOTH",
"1215 85 LINE SMOOTH",
"1215 82 OFFCURVE",
"1217 81 OFFCURVE",
"1220 81 CURVE SMOOTH",
"1359 81 LINE SMOOTH",
"1365 81 OFFCURVE",
"1368 78 OFFCURVE",
"1368 72 CURVE SMOOTH",
"1368 9 LINE SMOOTH",
"1368 3 OFFCURVE",
"1365 0 OFFCURVE",
"1359 0 CURVE SMOOTH",
"1139 0 LINE SMOOTH",
"1133 0 OFFCURVE",
"1130 3 OFFCURVE",
"1130 9 CURVE SMOOTH"
);
},
{
closed = 1;
nodes = (
"1416 366 LINE SMOOTH",
"1416 372 OFFCURVE",
"1419 375 OFFCURVE",
"1425 375 CURVE SMOOTH",
"1446 375 OFFCURVE",
"1511 376 OFFCURVE",
"1528 376 CURVE SMOOTH",
"1684 376 OFFCURVE",
"1744 290 OFFCURVE",
"1744 193 CURVE SMOOTH",
"1744 86 OFFCURVE",
"1671 -1 OFFCURVE",
"1526 -1 CURVE SMOOTH",
"1510 -1 OFFCURVE",
"1461 0 OFFCURVE",
"1425 0 CURVE SMOOTH",
"1419 0 OFFCURVE",
"1416 3 OFFCURVE",
"1416 9 CURVE SMOOTH"
);
},
{
closed = 1;
nodes = (
"1503 295 OFFCURVE",
"1501 293 OFFCURVE",
"1501 290 CURVE SMOOTH",
"1501 85 LINE SMOOTH",
"1501 77 OFFCURVE",
"1521 80 OFFCURVE",
"1540 80 CURVE SMOOTH",
"1607 80 OFFCURVE",
"1653 119 OFFCURVE",
"1653 188 CURVE SMOOTH",
"1653 260 OFFCURVE",
"1602 296 OFFCURVE",
"1533 296 CURVE SMOOTH",
"1525 296 OFFCURVE",
"1515 296 OFFCURVE",
"1506 295 CURVE"
);
},
{
closed = 1;
nodes = (
"2101 381 OFFCURVE",
"2185 308 OFFCURVE",
"2185 191 CURVE SMOOTH",
"2185 75 OFFCURVE",
"2101 -6 OFFCURVE",
"1984 -6 CURVE SMOOTH",
"1871 -6 OFFCURVE",
"1787 68 OFFCURVE",
"1787 183 CURVE SMOOTH",
"1787 296 OFFCURVE",
"1867 381 OFFCURVE",
"1988 381 CURVE SMOOTH"
);
},
{
closed = 1;
nodes = (
"2057 74 OFFCURVE",
"2094 125 OFFCURVE",
"2094 186 CURVE SMOOTH",
"2094 256 OFFCURVE",
"2047 301 OFFCURVE",
"1985 301 CURVE SMOOTH",
"1924 301 OFFCURVE",
"1878 256 OFFCURVE",
"1878 191 CURVE SMOOTH",
"1878 123 OFFCURVE",
"1926 74 OFFCURVE",
"1991 74 CURVE SMOOTH"
);
},
{
closed = 1;
nodes = (
"2403 9 LINE",
"2400 3 OFFCURVE",
"2396 0 OFFCURVE",
"2390 0 CURVE SMOOTH",
"2341 0 LINE SMOOTH",
"2336 0 OFFCURVE",
"2332 3 OFFCURVE",
"2329 9 CURVE SMOOTH",
"2183 366 LINE",
"2182 367 OFFCURVE",
"2182 368 OFFCURVE",
"2182 369 CURVE",
"2182 373 OFFCURVE",
"2184 375 OFFCURVE",
"2188 375 CURVE SMOOTH",
"2264 375 LINE SMOOTH",
"2269 375 OFFCURVE",
"2273 372 OFFCURVE",
"2276 366 CURVE",
"2367 132 LINE",
"2367 131 OFFCURVE",
"2368 130 OFFCURVE",
"2369 130 CURVE",
"2370 131 OFFCURVE",
"2370 131 OFFCURVE",
"2370 132 CURVE",
"2457 366 LINE",
"2460 372 OFFCURVE",
"2464 375 OFFCURVE",
"2470 375 CURVE SMOOTH",
"2540 375 LINE SMOOTH",
"2544 375 OFFCURVE",
"2546 373 OFFCURVE",
"2546 369 CURVE",
"2546 368 OFFCURVE",
"2545 367 OFFCURVE",
"2545 366 CURVE"
);
},
{
closed = 1;
nodes = (
"2616 367 LINE",
"2619 372 OFFCURVE",
"2623 375 OFFCURVE",
"2628 375 CURVE SMOOTH",
"2684 375 LINE SMOOTH",
"2689 375 OFFCURVE",
"2693 372 OFFCURVE",
"2696 367 CURVE",
"2837 9 LINE",
"2837 8 OFFCURVE",
"2838 7 OFFCURVE",
"2838 6 CURVE",
"2838 2 OFFCURVE",
"2836 0 OFFCURVE",
"2832 0 CURVE SMOOTH",
"2762 0 LINE SMOOTH",
"2756 0 OFFCURVE",
"2752 3 OFFCURVE",
"2751 9 CURVE",
"2726 75 LINE SMOOTH",
"2725 78 OFFCURVE",
"2723 79 OFFCURVE",
"2720 79 CURVE SMOOTH",
"2587 79 LINE SMOOTH",
"2584 79 OFFCURVE",
"2582 78 OFFCURVE",
"2581 75 CURVE SMOOTH",
"2557 9 LINE",
"2554 3 OFFCURVE",
"2550 0 OFFCURVE",
"2545 0 CURVE SMOOTH",
"2480 0 LINE SMOOTH",
"2476 0 OFFCURVE",
"2474 2 OFFCURVE",
"2474 6 CURVE",
"2474 7 OFFCURVE",
"2474 8 OFFCURVE",
"2475 9 CURVE"
);
},
{
closed = 1;
nodes = (
"2615 163 LINE",
"2615 162 LINE",
"2615 160 OFFCURVE",
"2616 159 OFFCURVE",
"2618 159 CURVE SMOOTH",
"2689 159 LINE SMOOTH",
"2691 159 OFFCURVE",
"2692 160 OFFCURVE",
"2692 162 CURVE",
"2692 163 LINE",
"2654 262 LINE",
"2653 261 OFFCURVE",
"2652 261 OFFCURVE",
"2652 261 CURVE"
);
}
);
width = 2910;
}
);
},
{
glyphname = a00E2.alt;
layers = (
{
layerId = "D8C8E711-746D-4FC3-8EF0-1339555BCA12";
paths = (
{
closed = 1;
nodes = (
"204 143 OFFCURVE",
"229 130 OFFCURVE",
"261 131 CURVE SMOOTH",
"317 132 OFFCURVE",
"360 171 OFFCURVE",
"363 227 CURVE",
"331 224 OFFCURVE",
"297 222 OFFCURVE",
"265 216 CURVE SMOOTH",
"233 210 OFFCURVE",
"204 198 OFFCURVE",
"204 170 CURVE SMOOTH"
);
},
{
closed = 1;
nodes = (
"367 63 LINE",
"320 -2 OFFCURVE",
"250 -8 OFFCURVE",
"216 -8 CURVE SMOOTH",
"112 -8 OFFCURVE",
"29 48 OFFCURVE",
"29 155 CURVE SMOOTH",
"29 273 OFFCURVE",
"129 307 OFFCURVE",
"237 324 CURVE SMOOTH",
"272 330 OFFCURVE",
"315 334 OFFCURVE",
"363 336 CURVE",
"360 372 OFFCURVE",
"331 390 OFFCURVE",
"288 390 CURVE SMOOTH",
"251 390 OFFCURVE",
"226 377 OFFCURVE",
"215 350 CURVE",
"38 350 LINE",
"57 491 OFFCURVE",
"168 537 OFFCURVE",
"293 537 CURVE SMOOTH",
"455 537 OFFCURVE",
"530 460 OFFCURVE",
"530 283 CURVE SMOOTH",
"530 0 LINE",
"367 0 LINE"
);
},
{
closed = 1;
nodes = (
"348 769 LINE",
"517 577 LINE",
"351 577 LINE",
"290 661 LINE",
"232 577 LINE",
"66 577 LINE",
"232 769 LINE"
);
}
);
width = 576;
}
);
leftKerningGroup = _kern27;
rightKerningGroup = _kern27;
},
{
glyphname = a0103.alt;
layers = (
{
layerId = "D8C8E711-746D-4FC3-8EF0-1339555BCA12";
paths = (
{
closed = 1;
nodes = (
"176 560 OFFCURVE",
"95 614 OFFCURVE",
"90 741 CURVE",
"233 741 LINE",
"234 702 OFFCURVE",
"264 682 OFFCURVE",
"297 682 CURVE SMOOTH",
"331 682 OFFCURVE",
"356 702 OFFCURVE",
"357 741 CURVE",
"500 741 LINE",
"495 615 OFFCURVE",
"412 560 OFFCURVE",
"293 560 CURVE SMOOTH"
);
},
{
closed = 1;
nodes = (
"204 143 OFFCURVE",
"229 130 OFFCURVE",
"261 131 CURVE SMOOTH",
"317 132 OFFCURVE",
"360 171 OFFCURVE",
"363 227 CURVE",
"331 224 OFFCURVE",
"297 222 OFFCURVE",
"265 215 CURVE",
"233 210 OFFCURVE",
"204 198 OFFCURVE",
"204 170 CURVE SMOOTH"
);
},
{
closed = 1;
nodes = (
"367 63 LINE",
"320 -2 OFFCURVE",
"250 -8 OFFCURVE",
"216 -8 CURVE SMOOTH",
"112 -8 OFFCURVE",
"29 48 OFFCURVE",
"29 155 CURVE SMOOTH",
"29 273 OFFCURVE",
"129 307 OFFCURVE",
"237 324 CURVE SMOOTH",
"272 330 OFFCURVE",
"315 335 OFFCURVE",
"363 336 CURVE",
"360 372 OFFCURVE",
"331 390 OFFCURVE",
"288 390 CURVE SMOOTH",
"251 390 OFFCURVE",
"226 377 OFFCURVE",
"215 350 CURVE",
"38 350 LINE",
"57 491 OFFCURVE",
"168 537 OFFCURVE",
"293 537 CURVE SMOOTH",
"455 537 OFFCURVE",
"530 460 OFFCURVE",
"530 283 CURVE SMOOTH",
"530 0 LINE",
"367 0 LINE"
);
}
);
width = 576;
}
);
leftKerningGroup = _kern27;
rightKerningGroup = _kern27;
},
{
glyphname = a00E4.alt;
layers = (
{
layerId = "D8C8E711-746D-4FC3-8EF0-1339555BCA12";
paths = (
{
closed = 1;
nodes = (
"217 766 OFFCURVE",
"263 732 OFFCURVE",
"263 671 CURVE SMOOTH",
"263 611 OFFCURVE",
"219 579 OFFCURVE",
"168 579 CURVE SMOOTH",
"117 579 OFFCURVE",
"73 611 OFFCURVE",
"73 671 CURVE SMOOTH",
"73 731 OFFCURVE",
"118 766 OFFCURVE",
"168 766 CURVE SMOOTH"
);
},
{
closed = 1;
nodes = (
"472 766 OFFCURVE",
"516 732 OFFCURVE",
"516 672 CURVE SMOOTH",
"516 611 OFFCURVE",
"474 579 OFFCURVE",
"423 579 CURVE SMOOTH",
"373 579 OFFCURVE",
"326 611 OFFCURVE",
"326 671 CURVE SMOOTH",
"326 731 OFFCURVE",
"373 766 OFFCURVE",
"423 766 CURVE SMOOTH"
);
},
{
closed = 1;
nodes = (
"204 143 OFFCURVE",
"229 130 OFFCURVE",
"261 131 CURVE SMOOTH",
"317 132 OFFCURVE",
"360 171 OFFCURVE",
"363 227 CURVE",
"331 224 OFFCURVE",
"297 222 OFFCURVE",
"265 215 CURVE",
"233 210 OFFCURVE",
"204 198 OFFCURVE",
"204 170 CURVE SMOOTH"
);
},
{
closed = 1;
nodes = (
"367 63 LINE",
"320 -2 OFFCURVE",
"250 -8 OFFCURVE",
"216 -8 CURVE SMOOTH",
"112 -8 OFFCURVE",
"29 48 OFFCURVE",
"29 155 CURVE SMOOTH",
"29 273 OFFCURVE",
"129 307 OFFCURVE",
"237 324 CURVE SMOOTH",
"272 330 OFFCURVE",
"315 335 OFFCURVE",
"363 336 CURVE",
"360 372 OFFCURVE",
"331 390 OFFCURVE",
"288 390 CURVE SMOOTH",
"251 390 OFFCURVE",
"226 377 OFFCURVE",
"215 350 CURVE",
"38 350 LINE",
"57 491 OFFCURVE",
"168 537 OFFCURVE",
"293 537 CURVE SMOOTH",
"455 537 OFFCURVE",
"530 460 OFFCURVE",
"530 283 CURVE SMOOTH",
"530 0 LINE",
"367 0 LINE"
);
}
);
width = 576;
}
);
leftKerningGroup = _kern27;
rightKerningGroup = _kern27;
},
{
glyphname = a2_alt;
layers = (
{
layerId = "D8C8E711-746D-4FC3-8EF0-1339555BCA12";
paths = (
{
closed = 1;
nodes = (
"236 376 OFFCURVE",
"203 319 OFFCURVE",
"203 266 CURVE SMOOTH",
"203 213 OFFCURVE",
"235 153 OFFCURVE",
"311 153 CURVE SMOOTH",
"382 153 OFFCURVE",
"415 204 OFFCURVE",
"415 262 CURVE SMOOTH",
"415 323 OFFCURVE",
"379 376 OFFCURVE",
"309 376 CURVE SMOOTH"
);
},
{
closed = 1;
nodes = (
"429 527 LINE",
"592 527 LINE",
"592 0 LINE",
"424 0 LINE",
"418 40 LINE",
"371 3 OFFCURVE",
"315 -8 OFFCURVE",
"267 -8 CURVE SMOOTH",
"109 -8 OFFCURVE",
"27 111 OFFCURVE",
"27 260 CURVE SMOOTH",
"27 427 OFFCURVE",
"131 537 OFFCURVE",
"282 538 CURVE SMOOTH",
"338 538 OFFCURVE",
"389 520 OFFCURVE",
"420 487 CURVE"
);
}
);
width = 639;
}
);
leftKerningGroup = _kern9;
},
{
glyphname = t0163.alt;
layers = (
{
layerId = "D8C8E711-746D-4FC3-8EF0-1339555BCA12";
paths = (
{
closed = 1;
nodes = (
"362 160 OFFCURVE",
"383 172 OFFCURVE",
"396 183 CURVE",
"444 44 LINE",
"398 6 OFFCURVE",
"344 -1 OFFCURVE",
"288 -7 CURVE",
"283 -31 LINE",
"333 -34 OFFCURVE",
"385 -59 OFFCURVE",
"385 -140 CURVE SMOOTH",
"385 -239 OFFCURVE",
"299 -284 OFFCURVE",
"217 -284 CURVE SMOOTH",
"178 -284 OFFCURVE",
"158 -280 OFFCURVE",
"138 -275 CURVE",
"138 -172 LINE",
"215 -188 OFFCURVE",
"253 -175 OFFCURVE",
"253 -144 CURVE SMOOTH",
"253 -96 OFFCURVE",
"160 -110 OFFCURVE",
"140 -119 CURVE",
"178 13 LINE",
"109 46 OFFCURVE",
"83 114 OFFCURVE",
"83 188 CURVE SMOOTH",
"83 369 LINE",
"9 369 LINE",
"9 527 LINE",
"83 527 LINE",
"83 659 LINE",
"260 659 LINE",
"260 527 LINE",
"418 527 LINE",
"418 369 LINE",
"260 369 LINE",
"260 229 LINE SMOOTH",
"260 185 OFFCURVE",
"282 160 OFFCURVE",
"329 160 CURVE SMOOTH"
);
}
);
width = 441;
}
);
},
{
glyphname = t021b.alt;
layers = (
{
layerId = "D8C8E711-746D-4FC3-8EF0-1339555BCA12";
paths = (
{
closed = 1;
nodes = (
"160 -243 LINE",
"184 -234 OFFCURVE",
"233 -199 OFFCURVE",
"241 -178 CURVE",
"206 -177 OFFCURVE",
"172 -152 OFFCURVE",
"172 -109 CURVE SMOOTH",
"172 -58 OFFCURVE",
"211 -33 OFFCURVE",
"254 -33 CURVE SMOOTH",
"310 -33 OFFCURVE",
"341 -77 OFFCURVE",
"341 -137 CURVE SMOOTH",
"341 -219 OFFCURVE",
"278 -274 OFFCURVE",
"199 -301 CURVE"
);
},
{
closed = 1;
nodes = (
"362 160 OFFCURVE",
"383 172 OFFCURVE",
"396 183 CURVE",
"444 44 LINE",
"397 5 OFFCURVE",
"323 -7 OFFCURVE",
"274 -7 CURVE SMOOTH",
"150 -7 OFFCURVE",
"83 69 OFFCURVE",
"83 188 CURVE SMOOTH",
"83 369 LINE",
"9 369 LINE",
"9 527 LINE",
"83 527 LINE",
"83 659 LINE",
"260 659 LINE",
"260 527 LINE",
"418 527 LINE",
"418 369 LINE",
"260 369 LINE",
"260 229 LINE SMOOTH",
"260 185 OFFCURVE",
"282 160 OFFCURVE",
"329 160 CURVE SMOOTH"
);
}
);
width = 441;
}
);
},
{
glyphname = logom;
layers = (
{
layerId = "D8C8E711-746D-4FC3-8EF0-1339555BCA12";
paths = (
{
closed = 1;
nodes = (
"783 502 OFFCURVE",
"778 498 OFFCURVE",
"771 496 CURVE",
"771 485 OFFCURVE",
"763 477 OFFCURVE",
"752 477 CURVE",
"751 470 OFFCURVE",
"747 465 OFFCURVE",
"739 463 CURVE SMOOTH",
"723 458 OFFCURVE",
"712 474 OFFCURVE",
"706 480 CURVE SMOOTH",
"698 488 OFFCURVE",
"700 493 OFFCURVE",
"700 520 CURVE",
"675 540 LINE",
"557 540 LINE",
"530 514 LINE",
"530 478 LINE",
"676 478 LINE SMOOTH",
"681 478 OFFCURVE",
"686 476 OFFCURVE",
"690 472 CURVE SMOOTH",
"715 447 LINE SMOOTH",
"727 435 OFFCURVE",
"718 413 OFFCURVE",
"701 413 CURVE SMOOTH",
"647 413 OFFCURVE",
"661 407 OFFCURVE",
"629 439 CURVE",
"519 439 LINE",
"424 344 LINE",
"415 333 OFFCURVE",
"402 333 OFFCURVE",
"394 344 CURVE",
"299 439 LINE",
"189 439 LINE",
"169 419 LINE SMOOTH",
"165 415 OFFCURVE",
"160 413 OFFCURVE",
"155 413 CURVE SMOOTH",
"117 413 LINE SMOOTH",
"100 413 OFFCURVE",
"91 434 OFFCURVE",
"103 447 CURVE",
"128 472 LINE SMOOTH",
"132 476 OFFCURVE",
"137 478 OFFCURVE",
"142 478 CURVE SMOOTH",
"288 478 LINE",
"288 514 LINE",
"261 540 LINE",
"143 540 LINE",
"118 520 LINE",
"118 493 OFFCURVE",
"120 488 OFFCURVE",
"111 479 CURVE SMOOTH",
"108 476 OFFCURVE",
"104 472 OFFCURVE",
"104 472 CURVE",
"88 456 OFFCURVE",
"69 461 OFFCURVE",
"66 477 CURVE",
"55 477 OFFCURVE",
"47 485 OFFCURVE",
"47 496 CURVE",
"39 498 OFFCURVE",
"34 502 OFFCURVE",
"32 510 CURVE SMOOTH",
"28 525 OFFCURVE",
"44 536 OFFCURVE",
"50 542 CURVE SMOOTH",
"58 550 OFFCURVE",
"63 548 OFFCURVE",
"90 548 CURVE",
"124 575 LINE SMOOTH",
"127 578 OFFCURVE",
"131 580 OFFCURVE",
"136 580 CURVE SMOOTH",
"175 580 LINE",
"180 593 OFFCURVE",
"196 596 OFFCURVE",
"207 587 CURVE",
"214 580 LINE",
"269 580 LINE SMOOTH",
"278 580 OFFCURVE",
"281 576 OFFCURVE",
"288 569 CURVE",
"288 590 LINE",
"261 616 LINE",
"125 616 LINE",
"99 590 OFFCURVE",
"105 591 OFFCURVE",
"79 591 CURVE SMOOTH",
"68 591 OFFCURVE",
"61 600 OFFCURVE",
"52 609 CURVE",
"45 618 OFFCURVE",
"44 627 OFFCURVE",
"51 636 CURVE",
"37 653 OFFCURVE",
"56 666 OFFCURVE",
"63 673 CURVE SMOOTH",
"72 683 OFFCURVE",
"81 681 OFFCURVE",
"89 681 CURVE SMOOTH",
"97 681 OFFCURVE",
"102 679 OFFCURVE",
"106 675 CURVE SMOOTH",
"125 656 LINE",
"161 656 LINE",
"161 684 LINE",
"145 691 OFFCURVE",
"135 706 OFFCURVE",
"135 725 CURVE SMOOTH",
"135 763 LINE SMOOTH",
"135 774 OFFCURVE",
"144 783 OFFCURVE",
"155 783 CURVE SMOOTH",
"206 783 LINE SMOOTH",
"217 783 OFFCURVE",
"226 774 OFFCURVE",
"226 763 CURVE SMOOTH",
"226 725 LINE SMOOTH",
"226 706 OFFCURVE",
"216 691 OFFCURVE",
"200 684 CURVE",
"200 656 LINE",
"225 656 LINE",
"220 675 OFFCURVE",
"244 692 OFFCURVE",
"258 675 CURVE",
"295 639 LINE",
"296 640 OFFCURVE",
"297 640 OFFCURVE",
"298 641 CURVE",
"301 642 OFFCURVE",
"304 643 OFFCURVE",
"307 643 CURVE SMOOTH",
"318 643 OFFCURVE",
"327 634 OFFCURVE",
"327 623 CURVE SMOOTH",
"327 467 LINE",
"389 404 LINE",
"389 476 LINE",
"357 508 LINE SMOOTH",
"339 526 OFFCURVE",
"366 555 OFFCURVE",
"385 536 CURVE",
"389 531 LINE",
"389 615 LINE",
"294 711 LINE SMOOTH",
"286 719 OFFCURVE",
"288 730 OFFCURVE",
"288 743 CURVE",
"282 743 LINE SMOOTH",
"255 743 OFFCURVE",
"255 783 OFFCURVE",
"282 783 CURVE SMOOTH",
"288 783 LINE",
"288 788 LINE SMOOTH",
"288 814 OFFCURVE",
"327 814 OFFCURVE",
"327 788 CURVE SMOOTH",
"327 783 LINE",
"333 783 LINE SMOOTH",
"359 783 OFFCURVE",
"359 743 OFFCURVE",
"333 743 CURVE SMOOTH",
"327 743 LINE",
"327 733 LINE",
"389 671 LINE",
"389 792 LINE SMOOTH",
"389 795 OFFCURVE",
"339 844 OFFCURVE",
"335 848 CURVE SMOOTH",
"324 858 OFFCURVE",
"324 871 OFFCURVE",
"333 880 CURVE SMOOTH",
"337 884 OFFCURVE",
"344 893 OFFCURVE",
"351 896 CURVE",
"351 927 OFFCURVE",
"348 920 OFFCURVE",
"370 942 CURVE SMOOTH",
"377 950 OFFCURVE",
"385 951 OFFCURVE",
"394 945 CURVE",
"405 954 OFFCURVE",
"419 952 OFFCURVE",
"424 945 CURVE",
"439 955 OFFCURVE",
"451 939 OFFCURVE",
"457 933 CURVE SMOOTH",
"469 921 OFFCURVE",
"467 909 OFFCURVE",
"467 896 CURVE",
"474 893 OFFCURVE",
"481 884 OFFCURVE",
"485 880 CURVE SMOOTH",
"494 871 OFFCURVE",
"494 858 OFFCURVE",
"483 848 CURVE SMOOTH",
"479 844 OFFCURVE",
"429 795 OFFCURVE",
"429 792 CURVE SMOOTH",
"429 671 LINE",
"491 733 LINE",
"491 743 LINE",
"485 743 LINE SMOOTH",
"458 743 OFFCURVE",
"458 783 OFFCURVE",
"485 783 CURVE SMOOTH",
"491 783 LINE",
"491 788 LINE SMOOTH",
"491 814 OFFCURVE",
"530 814 OFFCURVE",
"530 788 CURVE SMOOTH",
"530 783 LINE",
"536 783 LINE SMOOTH",
"562 783 OFFCURVE",
"562 743 OFFCURVE",
"536 743 CURVE SMOOTH",
"530 743 LINE",
"530 730 OFFCURVE",
"532 719 OFFCURVE",
"525 711 CURVE",
"429 615 LINE",
"429 531 LINE",
"434 538 OFFCURVE",
"438 542 OFFCURVE",
"447 542 CURVE SMOOTH",
"466 542 OFFCURVE",
"473 520 OFFCURVE",
"461 508 CURVE SMOOTH",
"429 476 LINE",
"429 404 LINE",
"491 467 LINE",
"491 623 LINE SMOOTH",
"491 640 OFFCURVE",
"510 650 OFFCURVE",
"523 639 CURVE",
"560 675 LINE",
"574 692 OFFCURVE",
"598 675 OFFCURVE",
"593 656 CURVE",
"618 656 LINE",
"618 684 LINE",
"602 691 OFFCURVE",
"592 706 OFFCURVE",
"592 725 CURVE SMOOTH",
"592 763 LINE SMOOTH",
"592 774 OFFCURVE",
"601 783 OFFCURVE",
"612 783 CURVE SMOOTH",
"663 783 LINE SMOOTH",
"674 783 OFFCURVE",
"683 774 OFFCURVE",
"683 763 CURVE SMOOTH",
"683 725 LINE SMOOTH",
"683 706 OFFCURVE",
"673 691 OFFCURVE",
"657 684 CURVE",
"657 656 LINE",
"693 656 LINE",
"719 682 OFFCURVE",
"713 681 OFFCURVE",
"739 681 CURVE SMOOTH",
"750 681 OFFCURVE",
"757 672 OFFCURVE",
"766 663 CURVE",
"773 654 OFFCURVE",
"774 645 OFFCURVE",
"767 636 CURVE",
"780 620 OFFCURVE",
"762 606 OFFCURVE",
"756 600 CURVE SMOOTH",
"746 590 OFFCURVE",
"737 591 OFFCURVE",
"730 591 CURVE SMOOTH",
"721 591 OFFCURVE",
"716 593 OFFCURVE",
"712 597 CURVE SMOOTH",
"693 616 LINE",
"557 616 LINE",
"530 590 LINE",
"530 569 LINE",
"537 576 OFFCURVE",
"540 580 OFFCURVE",
"549 580 CURVE SMOOTH",
"604 580 LINE",
"611 587 OFFCURVE",
"614 592 OFFCURVE",
"625 592 CURVE SMOOTH",
"634 592 OFFCURVE",
"640 588 OFFCURVE",
"643 580 CURVE",
"682 580 LINE SMOOTH",
"687 580 OFFCURVE",
"691 578 OFFCURVE",
"694 575 CURVE SMOOTH",
"728 548 LINE",
"767 548 OFFCURVE",
"759 551 OFFCURVE",
"781 529 CURVE SMOOTH",
"788 523 OFFCURVE",
"789 516 OFFCURVE",
"786 508 CURVE SMOOTH"
);
},
{
closed = 1;
nodes = (
"260 13 LINE SMOOTH",
"260 4 OFFCURVE",
"256 0 OFFCURVE",
"247 0 CURVE SMOOTH",
"186 0 LINE SMOOTH",
"177 0 OFFCURVE",
"173 4 OFFCURVE",
"173 13 CURVE SMOOTH",
"173 364 LINE SMOOTH",
"173 373 OFFCURVE",
"177 377 OFFCURVE",
"186 377 CURVE SMOOTH",
"247 377 LINE SMOOTH",
"254 377 OFFCURVE",
"262 374 OFFCURVE",
"269 368 CURVE",
"401 235 LINE",
"406 231 OFFCURVE",
"410 231 OFFCURVE",
"414 235 CURVE SMOOTH",
"547 368 LINE",
"554 374 OFFCURVE",
"562 377 OFFCURVE",
"569 377 CURVE SMOOTH",
"630 377 LINE SMOOTH",
"638 377 OFFCURVE",
"642 373 OFFCURVE",
"642 364 CURVE SMOOTH",
"642 13 LINE SMOOTH",
"642 4 OFFCURVE",
"638 0 OFFCURVE",
"630 0 CURVE SMOOTH",
"569 0 LINE SMOOTH",
"560 0 OFFCURVE",
"556 4 OFFCURVE",
"556 13 CURVE SMOOTH",
"556 233 LINE SMOOTH",
"556 236 OFFCURVE",
"552 239 OFFCURVE",
"549 236 CURVE SMOOTH",
"430 116 LINE",
"418 105 OFFCURVE",
"398 105 OFFCURVE",
"386 116 CURVE",
"266 236 LINE SMOOTH",
"263 239 OFFCURVE",
"260 236 OFFCURVE",
"260 233 CURVE SMOOTH"
);
}
);
width = 819;
}
);
},
{
glyphname = plusminus;
layers = (
{
associatedMasterId = "D8C8E711-746D-4FC3-8EF0-1339555BCA12";
layerId = "A054A3EB-1844-4DF9-B2AB-7B047869FD4A";
name = img;
width = 593;
},
{
layerId = "D8C8E711-746D-4FC3-8EF0-1339555BCA12";
paths = (
{
closed = 1;
nodes = (
"375 338 LINE",
"375 209 LINE",
"218 209 LINE",
"218 338 LINE",
"54 338 LINE",
"54 496 LINE",
"218 496 LINE",
"218 663 LINE",
"375 663 LINE",
"375 496 LINE",
"539 496 LINE",
"539 338 LINE"
);
},
{
closed = 1;
nodes = (
"54 158 LINE",
"539 158 LINE",
"539 0 LINE",
"54 0 LINE"
);
}
);
width = 593;
}
);
unicode = 00B1;
},
{
glyphname = twosuperior;
layers = (
{
associatedMasterId = "D8C8E711-746D-4FC3-8EF0-1339555BCA12";
layerId = "A054A3EB-1844-4DF9-B2AB-7B047869FD4A";
name = img;
width = 389;
},
{
layerId = "D8C8E711-746D-4FC3-8EF0-1339555BCA12";
paths = (
{
closed = 1;
nodes = (
"226 622 OFFCURVE",
"212 632 OFFCURVE",
"191 632 CURVE SMOOTH",
"166 632 OFFCURVE",
"157 617 OFFCURVE",
"157 594 CURVE",
"50 594 LINE",
"50 687 OFFCURVE",
"108 741 OFFCURVE",
"198 741 CURVE SMOOTH",
"281 741 OFFCURVE",
"339 694 OFFCURVE",
"339 616 CURVE SMOOTH",
"339 541 OFFCURVE",
"284 497 OFFCURVE",
"232 456 CURVE",
"336 456 LINE",
"336 349 LINE",
"53 349 LINE",
"53 437 LINE",
"169 531 LINE",
"188 548 OFFCURVE",
"226 573 OFFCURVE",
"226 603 CURVE SMOOTH"
);
}
);
width = 389;
}
);
unicode = 00B2;
},
